<?xml version="1.0" standalone="no"?>
<!DOCTYPE svg PUBLIC "-//W3C//DTD SVG 1.1//EN" "http://www.w3.org/Graphics/SVG/1.1/DTD/svg11.dtd">
<svg width="130mm" height="130mm" viewBox="-65 -65 130 130" xmlns="http://www.w3.org/2000/svg" version="1.1">
<title>OpenSCAD Model</title>
<path d="
M 0.376221,64.6146 L 0.862747,64.5382 L 1.33618,64.4026 L 1.78937,64.2098 L 2.21542,63.9628 L 2.7793,63.509
 L 2.92445,63.3688 L 3.05222,63.2643 L 3.18802,63.1709 L 3.33142,63.0887 L 3.4807,63.0189 L 3.63565,62.9615
 L 3.79434,62.9172 L 3.95654,62.8861 L 4.12061,62.8685 L 4.28558,62.8645 L 4.45044,62.8742 L 4.61356,62.8974
 L 4.77467,62.9341 L 4.93181,62.9838 L 5.0847,63.0465 L 5.23154,63.1215 L 5.37184,63.2084 L 5.53406,63.3285
 L 5.94717,63.5966 L 6.39011,63.8119 L 6.85614,63.9712 L 7.3382,64.072 L 7.82899,64.1127 L 8.32108,64.0929
 L 8.80699,64.0127 L 9.27939,63.8734 L 9.73106,63.6772 L 10.1552,63.4268 L 10.5454,63.1263 L 11.0452,62.6029
 L 11.1708,62.4449 L 11.2836,62.3248 L 11.4064,62.2141 L 11.5375,62.1142 L 11.6765,62.0254 L 11.8226,61.9483
 L 11.9743,61.8836 L 12.131,61.8317 L 12.2914,61.7928 L 12.4543,61.7673 L 12.619,61.7554 L 12.7839,61.7571
 L 12.9482,61.7724 L 13.1108,61.8013 L 13.2704,61.8435 L 13.4257,61.8986 L 13.5763,61.9665 L 13.7529,62.0644
 L 14.1974,62.2763 L 14.6647,62.4319 L 15.1475,62.529 L 15.6386,62.566 L 16.1306,62.5423 L 16.6158,62.4584
 L 17.0871,62.3154 L 17.5373,62.1157 L 17.9595,61.8621 L 18.3473,61.5586 L 18.6949,61.2097 L 19.1219,60.6257
 L 19.2259,60.4525 L 19.3222,60.3187 L 19.4292,60.1932 L 19.5464,60.0768 L 19.6727,59.9706 L 19.8073,59.8752
 L 19.9492,59.7913 L 20.0979,59.7192 L 20.2517,59.6598 L 20.4101,59.6133 L 20.5717,59.58 L 20.7357,59.5601
 L 20.9004,59.5539 L 21.0654,59.5613 L 21.2288,59.5822 L 21.3904,59.6167 L 21.5484,59.6643 L 21.7362,59.7383
 L 22.2046,59.8904 L 22.6882,59.9837 L 23.1796,60.0169 L 23.6713,59.9895 L 24.1559,59.9018 L 24.6261,59.7552
 L 25.0747,59.552 L 25.4949,59.2952 L 25.8804,58.9887 L 26.2253,58.6372 L 26.5244,58.2459 L 26.8716,57.6111
 L 26.952,57.426 L 27.03,57.2808 L 27.1199,57.1421 L 27.2207,57.0117 L 27.3322,56.8898 L 27.4532,56.7776
 L 27.5829,56.6759 L 27.7209,56.585 L 27.8656,56.5061 L 28.0166,56.4392 L 28.1724,56.3851 L 28.3323,56.344
 L 28.495,56.3163 L 28.6594,56.3021 L 28.8243,56.3016 L 28.9889,56.3146 L 29.1519,56.3412 L 29.3476,56.3901
 L 29.8319,56.4797 L 30.3235,56.5091 L 30.815,56.4779 L 31.2989,56.3865 L 31.7679,56.2364 L 32.215,56.0297
 L 32.6332,55.7697 L 33.0163,55.4602 L 33.3585,55.106 L 33.6546,54.7125 L 33.9001,54.2855 L 34.1614,53.6109
 L 34.217,53.4168 L 34.2754,53.2625 L 34.3463,53.1135 L 34.4294,52.9708 L 34.524,52.8354 L 34.6291,52.7086
 L 34.7447,52.5906 L 34.8696,52.4826 L 35.0027,52.3855 L 35.1438,52.2994 L 35.2911,52.2255 L 35.4443,52.1639
 L 35.602,52.1152 L 35.7631,52.0797 L 35.9267,52.0576 L 36.0915,52.049 L 36.2563,52.0541 L 36.457,52.0771
 L 36.9488,52.1027 L 37.44,52.0677 L 37.9233,51.9725 L 38.3911,51.8188 L 38.8365,51.6087 L 39.2528,51.3454
 L 39.6335,51.033 L 39.9729,50.6762 L 40.266,50.2804 L 40.5081,49.8515 L 40.6958,49.3962 L 40.8668,48.6932
 L 40.8966,48.4936 L 40.9343,48.333 L 40.9853,48.1759 L 41.0489,48.0238 L 41.125,47.8771 L 41.2128,47.7376
 L 41.3119,47.6056 L 41.4215,47.4823 L 41.5409,47.3685 L 41.6695,47.2649 L 41.8061,47.1722 L 41.9499,47.0912
 L 42.0997,47.0224 L 42.255,46.966 L 42.414,46.9229 L 42.5764,46.8929 L 42.7406,46.8764 L 42.9423,46.873
 L 43.4333,46.8342 L 43.9158,46.7354 L 44.3824,46.578 L 44.8262,46.3645 L 45.2404,46.0981 L 45.6187,45.7828
 L 45.9554,45.4234 L 46.2454,45.0253 L 46.4843,44.5947 L 46.6685,44.1379 L 46.7951,43.662 L 46.8729,42.9425
 L 46.8764,42.7407 L 46.8929,42.5764 L 46.9228,42.4142 L 46.9661,42.2549 L 47.0224,42.0997 L 47.0912,41.9499
 L 47.1722,41.8061 L 47.2649,41.6694 L 47.3685,41.541 L 47.4823,41.4216 L 47.6057,41.3119 L 47.7376,41.2128
 L 47.8772,41.125 L 48.0237,41.049 L 48.176,40.9852 L 48.3329,40.9344 L 48.4937,40.8966 L 48.6932,40.8668
 L 49.1749,40.7643 L 49.6404,40.6033 L 50.0825,40.3864 L 50.4946,40.1168 L 50.8705,39.7986 L 51.2044,39.4366
 L 51.4913,39.0363 L 51.7269,38.6038 L 51.9075,38.1456 L 52.0304,37.6687 L 52.0938,37.1803 L 52.077,36.4568
 L 52.0542,36.2563 L 52.049,36.0914 L 52.0576,35.9265 L 52.0796,35.7632 L 52.1152,35.6018 L 52.1639,35.4443
 L 52.2254,35.2912 L 52.2995,35.1437 L 52.3855,35.0027 L 52.4827,34.8695 L 52.5907,34.7447 L 52.7085,34.6292
 L 52.8354,34.524 L 52.9709,34.4294 L 53.1134,34.3464 L 53.2625,34.2754 L 53.4168,34.217 L 53.6109,34.1614
 L 54.075,33.9969 L 54.5155,33.7766 L 54.9255,33.5038 L 55.2989,33.1827 L 55.6301,32.8181 L 55.9139,32.4156
 L 56.1461,31.9813 L 56.3231,31.5218 L 56.4424,31.0439 L 56.502,30.5551 L 56.5011,30.0626 L 56.3901,29.3477
 L 56.3412,29.1517 L 56.3146,28.989 L 56.3016,28.8245 L 56.3022,28.6594 L 56.3163,28.495 L 56.3441,28.3323
 L 56.3851,28.1723 L 56.4392,28.0167 L 56.5061,27.8656 L 56.585,27.7209 L 56.6758,27.583 L 56.7777,27.453
 L 56.8897,27.3322 L 57.0116,27.2208 L 57.1422,27.1198 L 57.2807,27.03 L 57.4261,26.952 L 57.6112,26.8716
 L 58.0499,26.6478 L 58.4579,26.3719 L 58.8288,26.0479 L 59.1571,25.6808 L 59.4378,25.2762 L 59.6666,24.84
 L 59.8401,24.3792 L 59.9557,23.9004 L 60.0115,23.4111 L 60.0069,22.9186 L 59.9417,22.4305 L 59.7383,21.7361
 L 59.6643,21.5484 L 59.6167,21.3903 L 59.5822,21.2288 L 59.5613,21.0653 L 59.5539,20.9005 L 59.5601,20.7356
 L 59.58,20.5716 L 59.6133,20.4101 L 59.6599,20.2517 L 59.7192,20.0979 L 59.7913,19.9493 L 59.8752,19.8074
 L 59.9706,19.6727 L 60.0769,19.5463 L 60.1931,19.4293 L 60.3188,19.3221 L 60.4526,19.2259 L 60.6257,19.1219
 L 61.0315,18.8429 L 61.3999,18.5161 L 61.7254,18.1465 L 62.0029,17.7396 L 62.2284,17.3018 L 62.3984,16.8396
 L 62.5103,16.36 L 62.5624,15.8703 L 62.5539,15.3778 L 62.485,14.8902 L 62.3567,14.4147 L 62.0644,13.7528
 L 61.9665,13.5763 L 61.8987,13.4258 L 61.8434,13.2702 L 61.8013,13.1109 L 61.7724,12.9482 L 61.7571,12.7841
 L 61.7554,12.6189 L 61.7673,12.4544 L 61.7928,12.2913 L 61.8316,12.1311 L 61.8837,11.9742 L 61.9483,11.8226
 L 62.0254,11.6766 L 62.1142,11.5376 L 62.2143,11.4062 L 62.3247,11.2837 L 62.4449,11.1708 L 62.6029,11.0451
 L 62.9688,10.7155 L 63.2914,10.3434 L 63.5659,9.93445 L 63.788,9.49489 L 63.9544,9.03137 L 64.0626,8.5509
 L 64.1109,8.06081 L 64.0986,7.56845 L 64.026,7.08136 L 63.894,6.60689 L 63.7047,6.15224 L 63.3286,5.53418
 L 63.2084,5.37187 L 63.1215,5.23149 L 63.0465,5.08464 L 62.9839,4.93195 L 62.934,4.77449 L 62.8974,4.61365
 L 62.8742,4.45039 L 62.8645,4.28557 L 62.8685,4.12065 L 62.8861,3.95656 L 62.9172,3.79446 L 62.9615,3.63553
 L 63.0189,3.4807 L 63.0888,3.33128 L 63.1707,3.18822 L 63.2644,3.05208 L 63.3687,2.92455 L 63.509,2.77936
 L 63.8288,2.40479 L 64.1,1.99377 L 64.3188,1.55251 L 64.4816,1.08772 L 64.5861,0.606461 L 64.6307,0.115997
 L 64.6146,-0.376221 L 64.5382,-0.862747 L 64.4026,-1.33618 L 64.2098,-1.78937 L 63.9628,-2.21542 L 63.509,-2.7793
 L 63.3688,-2.92445 L 63.2643,-3.05222 L 63.1709,-3.18802 L 63.0887,-3.33142 L 63.0189,-3.4807 L 62.9615,-3.63565
 L 62.9172,-3.79434 L 62.8861,-3.95654 L 62.8685,-4.12061 L 62.8645,-4.28558 L 62.8742,-4.45044 L 62.8974,-4.61356
 L 62.9341,-4.77467 L 62.9838,-4.93181 L 63.0465,-5.0847 L 63.1215,-5.23154 L 63.2084,-5.37184 L 63.3285,-5.53406
 L 63.5966,-5.94717 L 63.8119,-6.39011 L 63.9712,-6.85614 L 64.072,-7.3382 L 64.1127,-7.82899 L 64.0929,-8.32108
 L 64.0127,-8.80699 L 63.8734,-9.27939 L 63.6772,-9.73106 L 63.4268,-10.1552 L 63.1263,-10.5454 L 62.6029,-11.0452
 L 62.4449,-11.1708 L 62.3248,-11.2836 L 62.2141,-11.4064 L 62.1142,-11.5375 L 62.0254,-11.6765 L 61.9483,-11.8226
 L 61.8836,-11.9743 L 61.8317,-12.131 L 61.7928,-12.2914 L 61.7673,-12.4543 L 61.7554,-12.619 L 61.7571,-12.7839
 L 61.7724,-12.9482 L 61.8013,-13.1108 L 61.8435,-13.2704 L 61.8986,-13.4257 L 61.9665,-13.5763 L 62.0644,-13.7529
 L 62.2763,-14.1974 L 62.4319,-14.6647 L 62.529,-15.1475 L 62.566,-15.6386 L 62.5423,-16.1306 L 62.4584,-16.6158
 L 62.3154,-17.0871 L 62.1157,-17.5373 L 61.8621,-17.9595 L 61.5586,-18.3473 L 61.2097,-18.6949 L 60.6257,-19.1219
 L 60.4525,-19.2259 L 60.3187,-19.3222 L 60.1932,-19.4292 L 60.0768,-19.5464 L 59.9706,-19.6727 L 59.8752,-19.8073
 L 59.7913,-19.9492 L 59.7192,-20.0979 L 59.6598,-20.2517 L 59.6133,-20.4101 L 59.58,-20.5717 L 59.5601,-20.7357
 L 59.5539,-20.9004 L 59.5613,-21.0654 L 59.5822,-21.2288 L 59.6167,-21.3904 L 59.6643,-21.5484 L 59.7383,-21.7362
 L 59.8904,-22.2046 L 59.9837,-22.6882 L 60.0169,-23.1796 L 59.9895,-23.6713 L 59.9018,-24.1559 L 59.7552,-24.6261
 L 59.552,-25.0747 L 59.2952,-25.4949 L 58.9887,-25.8804 L 58.6372,-26.2253 L 58.2459,-26.5244 L 57.6111,-26.8716
 L 57.426,-26.952 L 57.2808,-27.03 L 57.1421,-27.1199 L 57.0117,-27.2207 L 56.8898,-27.3322 L 56.7776,-27.4532
 L 56.6759,-27.5829 L 56.585,-27.7209 L 56.5061,-27.8656 L 56.4392,-28.0166 L 56.3851,-28.1724 L 56.344,-28.3323
 L 56.3163,-28.495 L 56.3021,-28.6594 L 56.3016,-28.8243 L 56.3146,-28.9889 L 56.3412,-29.1519 L 56.3901,-29.3476
 L 56.4797,-29.8319 L 56.5091,-30.3235 L 56.4779,-30.815 L 56.3865,-31.2989 L 56.2364,-31.7679 L 56.0297,-32.215
 L 55.7697,-32.6332 L 55.4602,-33.0163 L 55.106,-33.3585 L 54.7125,-33.6546 L 54.2855,-33.9001 L 53.6109,-34.1614
 L 53.4168,-34.217 L 53.2625,-34.2754 L 53.1135,-34.3463 L 52.9708,-34.4294 L 52.8354,-34.524 L 52.7086,-34.6291
 L 52.5906,-34.7447 L 52.4826,-34.8696 L 52.3855,-35.0027 L 52.2994,-35.1438 L 52.2255,-35.2911 L 52.1639,-35.4443
 L 52.1152,-35.602 L 52.0797,-35.7631 L 52.0576,-35.9267 L 52.049,-36.0915 L 52.0541,-36.2563 L 52.0771,-36.457
 L 52.1027,-36.9488 L 52.0677,-37.44 L 51.9725,-37.9233 L 51.8188,-38.3911 L 51.6087,-38.8365 L 51.3454,-39.2528
 L 51.033,-39.6335 L 50.6762,-39.9729 L 50.2804,-40.266 L 49.8515,-40.5081 L 49.3962,-40.6958 L 48.6932,-40.8668
 L 48.4936,-40.8966 L 48.333,-40.9343 L 48.1759,-40.9853 L 48.0238,-41.0489 L 47.8771,-41.125 L 47.7376,-41.2128
 L 47.6056,-41.3119 L 47.4823,-41.4215 L 47.3685,-41.5409 L 47.2649,-41.6695 L 47.1722,-41.8061 L 47.0912,-41.9499
 L 47.0224,-42.0997 L 46.966,-42.255 L 46.9229,-42.414 L 46.8929,-42.5764 L 46.8764,-42.7406 L 46.873,-42.9423
 L 46.8342,-43.4333 L 46.7354,-43.9158 L 46.578,-44.3824 L 46.3645,-44.8262 L 46.0981,-45.2404 L 45.7828,-45.6187
 L 45.4234,-45.9554 L 45.0253,-46.2454 L 44.5947,-46.4843 L 44.1379,-46.6685 L 43.662,-46.7951 L 42.9425,-46.8729
 L 42.7407,-46.8764 L 42.5764,-46.8929 L 42.4142,-46.9228 L 42.2549,-46.9661 L 42.0997,-47.0224 L 41.9499,-47.0912
 L 41.8061,-47.1722 L 41.6694,-47.2649 L 41.541,-47.3685 L 41.4216,-47.4823 L 41.3119,-47.6057 L 41.2128,-47.7376
 L 41.125,-47.8772 L 41.049,-48.0237 L 40.9852,-48.176 L 40.9344,-48.3329 L 40.8966,-48.4937 L 40.8668,-48.6932
 L 40.7643,-49.1749 L 40.6033,-49.6404 L 40.3864,-50.0825 L 40.1168,-50.4946 L 39.7986,-50.8705 L 39.4366,-51.2044
 L 39.0363,-51.4913 L 38.6038,-51.7269 L 38.1456,-51.9075 L 37.6687,-52.0304 L 37.1803,-52.0938 L 36.4568,-52.077
 L 36.2563,-52.0542 L 36.0914,-52.049 L 35.9265,-52.0576 L 35.7632,-52.0796 L 35.6018,-52.1152 L 35.4443,-52.1639
 L 35.2912,-52.2254 L 35.1437,-52.2995 L 35.0027,-52.3855 L 34.8695,-52.4827 L 34.7447,-52.5907 L 34.6292,-52.7085
 L 34.524,-52.8354 L 34.4294,-52.9709 L 34.3464,-53.1134 L 34.2754,-53.2625 L 34.217,-53.4168 L 34.1614,-53.6109
 L 33.9969,-54.075 L 33.7766,-54.5155 L 33.5038,-54.9255 L 33.1827,-55.2989 L 32.8181,-55.6301 L 32.4156,-55.9139
 L 31.9813,-56.1461 L 31.5218,-56.3231 L 31.0439,-56.4424 L 30.5551,-56.502 L 30.0626,-56.5011 L 29.3477,-56.3901
 L 29.1517,-56.3412 L 28.9889,-56.3146 L 28.8245,-56.3016 L 28.6594,-56.3022 L 28.495,-56.3163 L 28.3323,-56.3441
 L 28.1723,-56.3851 L 28.0167,-56.4392 L 27.8656,-56.5061 L 27.7209,-56.585 L 27.583,-56.6758 L 27.453,-56.7777
 L 27.3322,-56.8897 L 27.2208,-57.0116 L 27.1198,-57.1422 L 27.03,-57.2807 L 26.952,-57.4261 L 26.8716,-57.6112
 L 26.6478,-58.0499 L 26.3719,-58.4579 L 26.0479,-58.8288 L 25.6808,-59.1571 L 25.2762,-59.4378 L 24.84,-59.6666
 L 24.3792,-59.8401 L 23.9004,-59.9557 L 23.4111,-60.0115 L 22.9186,-60.0069 L 22.4305,-59.9417 L 21.7361,-59.7383
 L 21.5484,-59.6643 L 21.3903,-59.6167 L 21.2288,-59.5822 L 21.0653,-59.5613 L 20.9005,-59.5539 L 20.7356,-59.5601
 L 20.5716,-59.58 L 20.4101,-59.6133 L 20.2517,-59.6599 L 20.0979,-59.7192 L 19.9493,-59.7913 L 19.8074,-59.8752
 L 19.6727,-59.9706 L 19.5463,-60.0769 L 19.4293,-60.1931 L 19.3221,-60.3188 L 19.2259,-60.4526 L 19.1219,-60.6257
 L 18.8429,-61.0315 L 18.5161,-61.3999 L 18.1465,-61.7254 L 17.7396,-62.0029 L 17.3018,-62.2284 L 16.8396,-62.3984
 L 16.36,-62.5103 L 15.8703,-62.5624 L 15.3778,-62.5539 L 14.8902,-62.485 L 14.4147,-62.3567 L 13.7528,-62.0644
 L 13.5763,-61.9665 L 13.4258,-61.8987 L 13.2702,-61.8434 L 13.1109,-61.8013 L 12.9482,-61.7724 L 12.7841,-61.7571
 L 12.6189,-61.7554 L 12.4544,-61.7673 L 12.2913,-61.7928 L 12.1311,-61.8316 L 11.9742,-61.8837 L 11.8226,-61.9483
 L 11.6766,-62.0254 L 11.5376,-62.1142 L 11.4062,-62.2143 L 11.2837,-62.3247 L 11.1708,-62.4449 L 11.0451,-62.6029
 L 10.7155,-62.9688 L 10.3434,-63.2914 L 9.93445,-63.5659 L 9.49489,-63.788 L 9.03137,-63.9544 L 8.5509,-64.0626
 L 8.06081,-64.1109 L 7.56845,-64.0986 L 7.08136,-64.026 L 6.60689,-63.894 L 6.15224,-63.7047 L 5.53418,-63.3286
 L 5.37187,-63.2084 L 5.23149,-63.1215 L 5.08464,-63.0465 L 4.93195,-62.9839 L 4.77449,-62.934 L 4.61365,-62.8974
 L 4.45039,-62.8742 L 4.28551,-62.8645 L 4.12065,-62.8685 L 3.95656,-62.8861 L 3.79446,-62.9172 L 3.63553,-62.9615
 L 3.4807,-63.0189 L 3.33128,-63.0888 L 3.18822,-63.1707 L 3.05208,-63.2644 L 2.92455,-63.3687 L 2.77936,-63.509
 L 2.40479,-63.8288 L 1.99377,-64.1 L 1.55251,-64.3188 L 1.08772,-64.4816 L 0.606461,-64.5861 L 0.115997,-64.6307
 L -0.376221,-64.6146 L -0.862747,-64.5382 L -1.33618,-64.4026 L -1.78937,-64.2098 L -2.21542,-63.9628 L -2.7793,-63.509
 L -2.92445,-63.3688 L -3.05222,-63.2643 L -3.18802,-63.1709 L -3.33142,-63.0887 L -3.4807,-63.0189 L -3.63565,-62.9615
 L -3.79434,-62.9172 L -3.95654,-62.8861 L -4.12061,-62.8685 L -4.28558,-62.8645 L -4.45044,-62.8742 L -4.61356,-62.8974
 L -4.77467,-62.9341 L -4.93181,-62.9838 L -5.0847,-63.0465 L -5.23154,-63.1215 L -5.37184,-63.2084 L -5.53406,-63.3285
 L -5.94717,-63.5966 L -6.39011,-63.8119 L -6.85614,-63.9712 L -7.3382,-64.072 L -7.82899,-64.1127 L -8.32108,-64.0929
 L -8.80699,-64.0127 L -9.27939,-63.8734 L -9.73106,-63.6772 L -10.1552,-63.4268 L -10.5454,-63.1263 L -11.0452,-62.6029
 L -11.1708,-62.4449 L -11.2836,-62.3248 L -11.4064,-62.2141 L -11.5375,-62.1142 L -11.6765,-62.0254 L -11.8226,-61.9483
 L -11.9743,-61.8836 L -12.131,-61.8317 L -12.2914,-61.7928 L -12.4543,-61.7673 L -12.619,-61.7554 L -12.7839,-61.7571
 L -12.9482,-61.7724 L -13.1108,-61.8013 L -13.2704,-61.8435 L -13.4257,-61.8986 L -13.5763,-61.9665 L -13.7529,-62.0644
 L -14.1974,-62.2763 L -14.6647,-62.4319 L -15.1475,-62.529 L -15.6386,-62.566 L -16.1306,-62.5423 L -16.6158,-62.4584
 L -17.0871,-62.3154 L -17.5373,-62.1157 L -17.9595,-61.8621 L -18.3473,-61.5586 L -18.6949,-61.2097 L -19.1219,-60.6257
 L -19.2259,-60.4525 L -19.3222,-60.3187 L -19.4292,-60.1932 L -19.5464,-60.0768 L -19.6727,-59.9706 L -19.8073,-59.8752
 L -19.9492,-59.7913 L -20.0979,-59.7192 L -20.2517,-59.6598 L -20.4101,-59.6133 L -20.5717,-59.58 L -20.7357,-59.5601
 L -20.9004,-59.5539 L -21.0654,-59.5613 L -21.2288,-59.5822 L -21.3904,-59.6167 L -21.5484,-59.6643 L -21.7362,-59.7383
 L -22.2046,-59.8904 L -22.6882,-59.9837 L -23.1796,-60.0169 L -23.6713,-59.9895 L -24.1559,-59.9018 L -24.6261,-59.7552
 L -25.0747,-59.552 L -25.4949,-59.2952 L -25.8804,-58.9887 L -26.2253,-58.6372 L -26.5244,-58.2459 L -26.8716,-57.6111
 L -26.952,-57.426 L -27.03,-57.2808 L -27.1199,-57.1421 L -27.2207,-57.0117 L -27.3322,-56.8898 L -27.4532,-56.7776
 L -27.5829,-56.6759 L -27.7209,-56.585 L -27.8656,-56.5061 L -28.0166,-56.4392 L -28.1724,-56.3851 L -28.3323,-56.344
 L -28.495,-56.3163 L -28.6594,-56.3021 L -28.8243,-56.3016 L -28.9889,-56.3146 L -29.1519,-56.3412 L -29.3476,-56.3901
 L -29.8319,-56.4797 L -30.3235,-56.5091 L -30.815,-56.4779 L -31.2989,-56.3865 L -31.7679,-56.2364 L -32.215,-56.0297
 L -32.6332,-55.7697 L -33.0163,-55.4602 L -33.3585,-55.106 L -33.6546,-54.7125 L -33.9001,-54.2855 L -34.1614,-53.6109
 L -34.217,-53.4168 L -34.2754,-53.2625 L -34.3463,-53.1135 L -34.4294,-52.9708 L -34.524,-52.8354 L -34.6291,-52.7086
 L -34.7447,-52.5906 L -34.8696,-52.4826 L -35.0027,-52.3855 L -35.1438,-52.2994 L -35.2911,-52.2255 L -35.4443,-52.1639
 L -35.602,-52.1152 L -35.7631,-52.0797 L -35.9267,-52.0576 L -36.0915,-52.049 L -36.2563,-52.0541 L -36.457,-52.0771
 L -36.9488,-52.1027 L -37.44,-52.0677 L -37.9233,-51.9725 L -38.3911,-51.8188 L -38.8365,-51.6087 L -39.2528,-51.3454
 L -39.6335,-51.033 L -39.9729,-50.6762 L -40.266,-50.2804 L -40.5081,-49.8515 L -40.6958,-49.3962 L -40.8668,-48.6932
 L -40.8966,-48.4936 L -40.9343,-48.333 L -40.9853,-48.1759 L -41.0489,-48.0238 L -41.125,-47.8771 L -41.2128,-47.7376
 L -41.3119,-47.6056 L -41.4215,-47.4823 L -41.5409,-47.3685 L -41.6695,-47.2649 L -41.8061,-47.1722 L -41.9499,-47.0912
 L -42.0997,-47.0224 L -42.255,-46.966 L -42.414,-46.9229 L -42.5764,-46.8929 L -42.7406,-46.8764 L -42.9423,-46.873
 L -43.4333,-46.8342 L -43.9158,-46.7354 L -44.3824,-46.578 L -44.8262,-46.3645 L -45.2404,-46.0981 L -45.6187,-45.7828
 L -45.9554,-45.4234 L -46.2454,-45.0253 L -46.4843,-44.5947 L -46.6685,-44.1379 L -46.7951,-43.662 L -46.8729,-42.9425
 L -46.8764,-42.7407 L -46.8929,-42.5764 L -46.9228,-42.4142 L -46.9661,-42.2549 L -47.0224,-42.0997 L -47.0912,-41.9499
 L -47.1722,-41.8061 L -47.2649,-41.6694 L -47.3685,-41.541 L -47.4823,-41.4216 L -47.6057,-41.3119 L -47.7376,-41.2128
 L -47.8772,-41.125 L -48.0237,-41.049 L -48.176,-40.9852 L -48.3329,-40.9344 L -48.4937,-40.8966 L -48.6932,-40.8668
 L -49.1749,-40.7643 L -49.6404,-40.6033 L -50.0825,-40.3864 L -50.4946,-40.1168 L -50.8705,-39.7986 L -51.2044,-39.4366
 L -51.4913,-39.0363 L -51.7269,-38.6038 L -51.9075,-38.1456 L -52.0304,-37.6687 L -52.0938,-37.1803 L -52.077,-36.4568
 L -52.0542,-36.2563 L -52.049,-36.0914 L -52.0576,-35.9265 L -52.0796,-35.7632 L -52.1152,-35.6018 L -52.1639,-35.4443
 L -52.2254,-35.2912 L -52.2995,-35.1437 L -52.3855,-35.0027 L -52.4827,-34.8695 L -52.5907,-34.7447 L -52.7085,-34.6292
 L -52.8354,-34.524 L -52.9709,-34.4294 L -53.1134,-34.3464 L -53.2625,-34.2754 L -53.4168,-34.217 L -53.6109,-34.1614
 L -54.075,-33.9969 L -54.5155,-33.7766 L -54.9255,-33.5038 L -55.2989,-33.1827 L -55.6301,-32.8181 L -55.9139,-32.4156
 L -56.1461,-31.9813 L -56.3231,-31.5218 L -56.4424,-31.0439 L -56.502,-30.5551 L -56.5011,-30.0626 L -56.3901,-29.3477
 L -56.3412,-29.1517 L -56.3146,-28.9889 L -56.3016,-28.8245 L -56.3022,-28.6594 L -56.3163,-28.495 L -56.3441,-28.3323
 L -56.3851,-28.1723 L -56.4392,-28.0167 L -56.5061,-27.8656 L -56.585,-27.7209 L -56.6758,-27.583 L -56.7777,-27.453
 L -56.8897,-27.3322 L -57.0116,-27.2208 L -57.1422,-27.1198 L -57.2807,-27.03 L -57.4261,-26.952 L -57.6112,-26.8716
 L -58.0499,-26.6478 L -58.4579,-26.3719 L -58.8288,-26.0479 L -59.1571,-25.6808 L -59.4378,-25.2762 L -59.6666,-24.84
 L -59.8401,-24.3792 L -59.9557,-23.9004 L -60.0115,-23.4111 L -60.0069,-22.9186 L -59.9417,-22.4305 L -59.7383,-21.7361
 L -59.6643,-21.5484 L -59.6167,-21.3903 L -59.5822,-21.2288 L -59.5613,-21.0653 L -59.5539,-20.9005 L -59.5601,-20.7356
 L -59.58,-20.5716 L -59.6133,-20.4101 L -59.6599,-20.2517 L -59.7192,-20.0979 L -59.7913,-19.9493 L -59.8752,-19.8074
 L -59.9706,-19.6727 L -60.0769,-19.5463 L -60.1931,-19.4293 L -60.3188,-19.3221 L -60.4526,-19.2259 L -60.6257,-19.1219
 L -61.0315,-18.8429 L -61.3999,-18.5161 L -61.7254,-18.1465 L -62.0029,-17.7396 L -62.2284,-17.3018 L -62.3984,-16.8396
 L -62.5103,-16.36 L -62.5624,-15.8703 L -62.5539,-15.3778 L -62.485,-14.8902 L -62.3567,-14.4147 L -62.0644,-13.7528
 L -61.9665,-13.5763 L -61.8987,-13.4258 L -61.8434,-13.2702 L -61.8013,-13.1109 L -61.7724,-12.9482 L -61.7571,-12.7841
 L -61.7554,-12.6189 L -61.7673,-12.4544 L -61.7928,-12.2913 L -61.8316,-12.1311 L -61.8837,-11.9742 L -61.9483,-11.8226
 L -62.0254,-11.6766 L -62.1142,-11.5376 L -62.2143,-11.4062 L -62.3247,-11.2837 L -62.4449,-11.1708 L -62.6029,-11.0451
 L -62.9688,-10.7155 L -63.2914,-10.3434 L -63.5659,-9.93445 L -63.788,-9.49489 L -63.9544,-9.03137 L -64.0626,-8.5509
 L -64.1109,-8.06081 L -64.0986,-7.56845 L -64.026,-7.08136 L -63.894,-6.60689 L -63.7047,-6.15224 L -63.3286,-5.53418
 L -63.2084,-5.37187 L -63.1215,-5.23149 L -63.0465,-5.08464 L -62.9839,-4.93195 L -62.934,-4.77449 L -62.8974,-4.61365
 L -62.8742,-4.45039 L -62.8645,-4.28551 L -62.8685,-4.12065 L -62.8861,-3.95656 L -62.9172,-3.79446 L -62.9615,-3.63553
 L -63.0189,-3.4807 L -63.0888,-3.33128 L -63.1707,-3.18822 L -63.2644,-3.05208 L -63.3687,-2.92455 L -63.509,-2.77936
 L -63.8288,-2.40479 L -64.1,-1.99377 L -64.3188,-1.55251 L -64.4816,-1.08772 L -64.5861,-0.606461 L -64.6307,-0.115997
 L -64.6146,0.376221 L -64.5382,0.862747 L -64.4026,1.33618 L -64.2098,1.78937 L -63.9628,2.21542 L -63.509,2.7793
 L -63.3688,2.92445 L -63.2643,3.05222 L -63.1709,3.18802 L -63.0887,3.33142 L -63.0189,3.4807 L -62.9615,3.63565
 L -62.9172,3.79434 L -62.8861,3.95654 L -62.8685,4.12061 L -62.8645,4.28558 L -62.8742,4.45044 L -62.8974,4.61356
 L -62.9341,4.77467 L -62.9838,4.93181 L -63.0465,5.0847 L -63.1215,5.23154 L -63.2084,5.37184 L -63.3285,5.53406
 L -63.5966,5.94717 L -63.8119,6.39011 L -63.9712,6.85614 L -64.072,7.3382 L -64.1127,7.82899 L -64.0929,8.32108
 L -64.0127,8.80699 L -63.8734,9.27939 L -63.6772,9.73106 L -63.4268,10.1552 L -63.1263,10.5454 L -62.6029,11.0452
 L -62.4449,11.1708 L -62.3248,11.2836 L -62.2141,11.4064 L -62.1142,11.5375 L -62.0254,11.6765 L -61.9483,11.8226
 L -61.8836,11.9743 L -61.8317,12.131 L -61.7928,12.2914 L -61.7673,12.4544 L -61.7554,12.619 L -61.7571,12.7839
 L -61.7724,12.9482 L -61.8013,13.1108 L -61.8435,13.2704 L -61.8986,13.4257 L -61.9665,13.5763 L -62.0644,13.7529
 L -62.2763,14.1974 L -62.4319,14.6647 L -62.529,15.1475 L -62.566,15.6386 L -62.5423,16.1306 L -62.4584,16.6158
 L -62.3154,17.0871 L -62.1157,17.5373 L -61.8621,17.9595 L -61.5586,18.3473 L -61.2097,18.6949 L -60.6257,19.1219
 L -60.4525,19.2259 L -60.3187,19.3222 L -60.1932,19.4292 L -60.0768,19.5464 L -59.9706,19.6727 L -59.8752,19.8073
 L -59.7913,19.9492 L -59.7192,20.0979 L -59.6598,20.2517 L -59.6133,20.4101 L -59.58,20.5717 L -59.5601,20.7357
 L -59.5539,20.9004 L -59.5613,21.0654 L -59.5822,21.2288 L -59.6167,21.3904 L -59.6643,21.5484 L -59.7383,21.7362
 L -59.8904,22.2046 L -59.9837,22.6882 L -60.0169,23.1796 L -59.9895,23.6713 L -59.9018,24.1559 L -59.7552,24.6261
 L -59.552,25.0747 L -59.2952,25.4949 L -58.9887,25.8804 L -58.6372,26.2253 L -58.2459,26.5244 L -57.6111,26.8716
 L -57.426,26.952 L -57.2808,27.03 L -57.1421,27.1199 L -57.0117,27.2207 L -56.8898,27.3322 L -56.7776,27.4532
 L -56.6759,27.5829 L -56.585,27.7209 L -56.5061,27.8656 L -56.4392,28.0166 L -56.3851,28.1724 L -56.344,28.3323
 L -56.3163,28.495 L -56.3021,28.6594 L -56.3016,28.8243 L -56.3146,28.9889 L -56.3412,29.1519 L -56.3901,29.3476
 L -56.4797,29.8319 L -56.5091,30.3235 L -56.4779,30.815 L -56.3865,31.2989 L -56.2364,31.7679 L -56.0297,32.215
 L -55.7697,32.6332 L -55.4602,33.0163 L -55.106,33.3585 L -54.7125,33.6546 L -54.2855,33.9001 L -53.6109,34.1614
 L -53.4168,34.217 L -53.2625,34.2754 L -53.1135,34.3463 L -52.9708,34.4294 L -52.8354,34.524 L -52.7086,34.6291
 L -52.5906,34.7447 L -52.4826,34.8696 L -52.3855,35.0027 L -52.2994,35.1438 L -52.2255,35.2911 L -52.1639,35.4443
 L -52.1152,35.602 L -52.0797,35.7631 L -52.0576,35.9267 L -52.049,36.0916 L -52.0541,36.2563 L -52.0771,36.457
 L -52.1027,36.9488 L -52.0677,37.44 L -51.9725,37.9233 L -51.8188,38.3911 L -51.6087,38.8365 L -51.3454,39.2528
 L -51.033,39.6335 L -50.6762,39.9729 L -50.2804,40.266 L -49.8515,40.5081 L -49.3962,40.6958 L -48.6932,40.8668
 L -48.4936,40.8966 L -48.333,40.9343 L -48.1759,40.9853 L -48.0238,41.0489 L -47.8771,41.125 L -47.7376,41.2128
 L -47.6056,41.3119 L -47.4823,41.4215 L -47.3685,41.5409 L -47.2649,41.6695 L -47.1722,41.8061 L -47.0912,41.9499
 L -47.0224,42.0997 L -46.966,42.255 L -46.9229,42.414 L -46.8929,42.5764 L -46.8764,42.7406 L -46.873,42.9423
 L -46.8342,43.4333 L -46.7354,43.9158 L -46.578,44.3824 L -46.3645,44.8262 L -46.0981,45.2404 L -45.7828,45.6187
 L -45.4234,45.9554 L -45.0253,46.2454 L -44.5947,46.4843 L -44.1379,46.6685 L -43.662,46.7951 L -42.9425,46.8729
 L -42.7407,46.8764 L -42.5764,46.8929 L -42.4142,46.9228 L -42.2549,46.9661 L -42.0997,47.0224 L -41.9499,47.0912
 L -41.8061,47.1722 L -41.6694,47.2649 L -41.541,47.3685 L -41.4216,47.4823 L -41.3119,47.6057 L -41.2128,47.7376
 L -41.125,47.8772 L -41.049,48.0237 L -40.9852,48.176 L -40.9344,48.3329 L -40.8966,48.4937 L -40.8668,48.6932
 L -40.7643,49.1749 L -40.6033,49.6404 L -40.3864,50.0825 L -40.1168,50.4946 L -39.7986,50.8705 L -39.4366,51.2044
 L -39.0363,51.4913 L -38.6038,51.7269 L -38.1456,51.9075 L -37.6687,52.0304 L -37.1803,52.0938 L -36.4568,52.077
 L -36.2563,52.0542 L -36.0914,52.049 L -35.9265,52.0576 L -35.7632,52.0796 L -35.6018,52.1152 L -35.4443,52.1639
 L -35.2912,52.2254 L -35.1437,52.2995 L -35.0027,52.3855 L -34.8695,52.4827 L -34.7447,52.5907 L -34.6292,52.7085
 L -34.524,52.8354 L -34.4294,52.9709 L -34.3464,53.1134 L -34.2754,53.2625 L -34.217,53.4168 L -34.1614,53.6109
 L -33.9969,54.075 L -33.7766,54.5155 L -33.5038,54.9255 L -33.1827,55.2989 L -32.8181,55.6301 L -32.4156,55.9139
 L -31.9813,56.1461 L -31.5218,56.3231 L -31.0439,56.4424 L -30.5551,56.502 L -30.0626,56.5011 L -29.3477,56.3901
 L -29.1517,56.3412 L -28.9889,56.3146 L -28.8245,56.3016 L -28.6594,56.3022 L -28.495,56.3163 L -28.3323,56.3441
 L -28.1723,56.3851 L -28.0167,56.4392 L -27.8656,56.5061 L -27.7209,56.585 L -27.583,56.6758 L -27.453,56.7777
 L -27.3322,56.8897 L -27.2208,57.0116 L -27.1198,57.1422 L -27.03,57.2807 L -26.952,57.4261 L -26.8716,57.6112
 L -26.6478,58.0499 L -26.3719,58.4579 L -26.0479,58.8288 L -25.6808,59.1571 L -25.2762,59.4378 L -24.84,59.6666
 L -24.3792,59.8401 L -23.9004,59.9557 L -23.4111,60.0115 L -22.9186,60.0069 L -22.4305,59.9417 L -21.7361,59.7383
 L -21.5484,59.6643 L -21.3903,59.6167 L -21.2288,59.5822 L -21.0653,59.5613 L -20.9005,59.5539 L -20.7356,59.5601
 L -20.5716,59.58 L -20.4101,59.6133 L -20.2517,59.6599 L -20.0979,59.7192 L -19.9493,59.7913 L -19.8074,59.8752
 L -19.6727,59.9706 L -19.5463,60.0769 L -19.4293,60.1931 L -19.3221,60.3188 L -19.2259,60.4526 L -19.1219,60.6257
 L -18.8429,61.0315 L -18.5161,61.3999 L -18.1465,61.7254 L -17.7396,62.0029 L -17.3018,62.2284 L -16.8396,62.3984
 L -16.36,62.5103 L -15.8703,62.5624 L -15.3778,62.5539 L -14.8902,62.485 L -14.4147,62.3567 L -13.7528,62.0644
 L -13.5763,61.9665 L -13.4258,61.8987 L -13.2702,61.8434 L -13.1109,61.8013 L -12.9482,61.7724 L -12.7841,61.7571
 L -12.6189,61.7554 L -12.4544,61.7673 L -12.2913,61.7928 L -12.1311,61.8316 L -11.9742,61.8837 L -11.8226,61.9483
 L -11.6766,62.0254 L -11.5376,62.1142 L -11.4062,62.2143 L -11.2837,62.3247 L -11.1708,62.4449 L -11.0451,62.6029
 L -10.7155,62.9688 L -10.3434,63.2914 L -9.93445,63.5659 L -9.49489,63.788 L -9.03137,63.9544 L -8.5509,64.0626
 L -8.06081,64.1109 L -7.56845,64.0986 L -7.08136,64.026 L -6.60689,63.894 L -6.15224,63.7047 L -5.53418,63.3286
 L -5.37187,63.2084 L -5.23149,63.1215 L -5.08464,63.0465 L -4.93195,62.9839 L -4.77449,62.934 L -4.61365,62.8974
 L -4.45039,62.8742 L -4.28551,62.8645 L -4.12065,62.8685 L -3.95656,62.8861 L -3.79446,62.9172 L -3.63553,62.9615
 L -3.4807,63.0189 L -3.33128,63.0888 L -3.18822,63.1707 L -3.05208,63.2644 L -2.92455,63.3687 L -2.77936,63.509
 L -2.40479,63.8288 L -1.99377,64.1 L -1.55251,64.3188 L -1.08772,64.4816 L -0.606461,64.5861 L -0.115997,64.6307
 z
M -12.572,-18.2399 L -13.0307,-18.4125 L -13.4469,-18.6713 L -13.8046,-19.0063 L -14.0901,-19.4047 L -14.2923,-19.8511
 L -14.4036,-20.3284 L -14.4196,-20.8182 L -14.3398,-21.3017 L -14.1672,-21.7604 L -13.9084,-22.1766 L -13.5734,-22.5343
 L -13.175,-22.8198 L -12.7286,-23.022 L -12.2513,-23.1333 L -11.7615,-23.1494 L -11.2779,-23.0695 L -10.8193,-22.8969
 L -10.4031,-22.6381 L -10.0454,-22.3031 L -9.75993,-21.9047 L -9.55766,-21.4583 L -9.44638,-20.981 L -9.43034,-20.4912
 L -9.51018,-20.0076 L -9.68282,-19.549 L -9.9416,-19.1328 L -10.2766,-18.7751 L -10.675,-18.4896 L -11.1214,-18.2874
 L -11.5987,-18.1761 L -12.0885,-18.16 z
M 11.5987,-18.1761 L 11.1214,-18.2874 L 10.675,-18.4896 L 10.2766,-18.7751 L 9.9416,-19.1328 L 9.68282,-19.549
 L 9.51018,-20.0076 L 9.43034,-20.4912 L 9.44638,-20.981 L 9.55766,-21.4583 L 9.75993,-21.9047 L 10.0454,-22.3031
 L 10.4031,-22.6381 L 10.8193,-22.8969 L 11.2779,-23.0695 L 11.7615,-23.1494 L 12.2513,-23.1333 L 12.7286,-23.022
 L 13.175,-22.8198 L 13.5734,-22.5343 L 13.9084,-22.1766 L 14.1672,-21.7604 L 14.3398,-21.3017 L 14.4196,-20.8182
 L 14.4036,-20.3284 L 14.2923,-19.8511 L 14.0901,-19.4047 L 13.8046,-19.0063 L 13.4469,-18.6713 L 13.0307,-18.4125
 L 12.572,-18.2399 L 12.0885,-18.16 z
M -0.247726,2.98975 L -0.73645,2.90819 L -1.20508,2.74731 L -1.64084,2.51149 L -2.03183,2.20717 L -2.36742,1.84264
 L -2.63841,1.42784 L -2.83745,0.974091 L -2.95908,0.493774 L -3,-0 L -2.95908,-0.493774 L -2.83745,-0.974091
 L -2.63841,-1.42784 L -2.36742,-1.84264 L -2.03183,-2.20717 L -1.64084,-2.51149 L -1.20508,-2.74731 L -0.73645,-2.90819
 L -0.247726,-2.98975 L 0.247726,-2.98975 L 0.73645,-2.90819 L 1.20508,-2.74731 L 1.64084,-2.51149 L 2.03183,-2.20717
 L 2.36742,-1.84264 L 2.39999,-1.79277 L 2.39999,1.79277 L 2.36742,1.84264 L 2.03183,2.20717 L 1.64084,2.51149
 L 1.20508,2.74731 L 0.73645,2.90819 L 0.247726,2.98975 z
M 23.3623,2.45195 L 22.8933,2.30969 L 22.4611,2.07866 L 22.0822,1.76776 L 21.7713,1.38892 L 21.5403,0.956696
 L 21.398,0.487717 L 21.35,-0 L 21.398,-0.487717 L 21.5403,-0.956696 L 21.7713,-1.38892 L 22.0822,-1.76776
 L 22.4611,-2.07866 L 22.8933,-2.30969 L 23.3623,-2.45195 L 23.85,-2.5 L 24.3377,-2.45195 L 24.8067,-2.30969
 L 25.2389,-2.07866 L 25.6178,-1.76776 L 25.9287,-1.38892 L 26.1597,-0.956696 L 26.302,-0.487717 L 26.35,-0
 L 26.302,0.487717 L 26.1597,0.956696 L 25.9287,1.38892 L 25.6178,1.76776 L 25.2389,2.07866 L 24.8067,2.30969
 L 24.3377,2.45195 L 23.85,2.5 z
M -24.3377,2.45195 L -24.8067,2.30969 L -25.2389,2.07866 L -25.6178,1.76776 L -25.9287,1.38892 L -26.1597,0.956696
 L -26.302,0.487717 L -26.35,-0 L -26.302,-0.487717 L -26.1597,-0.956696 L -25.9287,-1.38892 L -25.6178,-1.76776
 L -25.2389,-2.07866 L -24.8067,-2.30969 L -24.3377,-2.45195 L -23.85,-2.5 L -23.3623,-2.45195 L -22.8933,-2.30969
 L -22.4611,-2.07866 L -22.0822,-1.76776 L -21.7713,-1.38892 L -21.5403,-0.956696 L -21.398,-0.487717 L -21.35,-0
 L -21.398,0.487717 L -21.5403,0.956696 L -21.7713,1.38892 L -22.0822,1.76776 L -22.4611,2.07866 L -22.8933,2.30969
 L -23.3623,2.45195 L -23.85,2.5 z
M 11.2779,23.0695 L 10.8193,22.8969 L 10.4031,22.6381 L 10.0454,22.3031 L 9.75993,21.9047 L 9.55766,21.4583
 L 9.44638,20.981 L 9.43034,20.4912 L 9.51018,20.0076 L 9.68282,19.549 L 9.9416,19.1328 L 10.2766,18.7751
 L 10.675,18.4896 L 11.1214,18.2874 L 11.5987,18.1761 L 12.0885,18.16 L 12.572,18.2399 L 13.0307,18.4125
 L 13.4469,18.6713 L 13.8046,19.0063 L 14.0901,19.4047 L 14.2923,19.8511 L 14.4036,20.3284 L 14.4196,20.8182
 L 14.3398,21.3017 L 14.1672,21.7604 L 13.9084,22.1766 L 13.5734,22.5343 L 13.175,22.8198 L 12.7286,23.022
 L 12.2513,23.1333 L 11.7615,23.1494 z
M -12.2513,23.1333 L -12.7286,23.022 L -13.175,22.8198 L -13.5734,22.5343 L -13.9084,22.1766 L -14.1672,21.7604
 L -14.3398,21.3017 L -14.4196,20.8182 L -14.4036,20.3284 L -14.2923,19.8511 L -14.0901,19.4047 L -13.8046,19.0063
 L -13.4469,18.6713 L -13.0307,18.4125 L -12.572,18.2399 L -12.0885,18.16 L -11.5987,18.1761 L -11.1214,18.2874
 L -10.675,18.4896 L -10.2766,18.7751 L -9.9416,19.1328 L -9.68282,19.549 L -9.51018,20.0076 L -9.43034,20.4912
 L -9.44638,20.981 L -9.55766,21.4583 L -9.75993,21.9047 L -10.0454,22.3031 L -10.4031,22.6381 L -10.8193,22.8969
 L -11.2779,23.0695 L -11.7615,23.1494 z
" stroke="black" fill="lightgray" stroke-width="0.5"/>
</svg>
