<?xml version="1.0" standalone="no"?>
<!DOCTYPE svg PUBLIC "-//W3C//DTD SVG 1.1//EN" "http://www.w3.org/Graphics/SVG/1.1/DTD/svg11.dtd">
<svg width="140mm" height="281mm" viewBox="-70 -211 140 281" xmlns="http://www.w3.org/2000/svg" version="1.1">
<title>OpenSCAD Model</title>
<path d="
M 4.59804,-71.5514 L 5.07852,-71.6595 L 5.54207,-71.8258 L 5.98167,-72.0478 L 6.39066,-72.3222 L 6.89626,-72.782
 L 7.03024,-72.9266 L 7.1521,-73.0381 L 7.28253,-73.1389 L 7.42102,-73.2288 L 7.56644,-73.3069 L 7.7177,-73.3727
 L 7.87395,-73.4258 L 8.03391,-73.4657 L 8.19691,-73.4924 L 8.36137,-73.5055 L 8.52652,-73.505 L 8.69084,-73.4908
 L 8.85341,-73.4632 L 9.0134,-73.4221 L 9.16922,-73.3681 L 9.32008,-73.3013 L 9.46503,-73.2223 L 9.6297,-73.114
 L 10.057,-72.8691 L 10.5112,-72.6786 L 10.9853,-72.5454 L 11.4722,-72.4715 L 11.9645,-72.4579 L 12.4547,-72.505
 L 12.9355,-72.6119 L 13.3994,-72.7771 L 13.8396,-72.9981 L 14.2492,-73.2715 L 14.6221,-73.5931 L 15.0687,-74.1107
 L 15.1843,-74.2704 L 15.2918,-74.3957 L 15.4092,-74.5116 L 15.5358,-74.6174 L 15.6707,-74.7125 L 15.8129,-74.796
 L 15.9619,-74.8676 L 16.1158,-74.9265 L 16.2742,-74.9726 L 16.436,-75.0055 L 16.5999,-75.0248 L 16.7648,-75.0306
 L 16.9297,-75.0228 L 17.0933,-75.0013 L 17.2544,-74.9664 L 17.4124,-74.9183 L 17.5658,-74.8573 L 17.7423,-74.7696
 L 18.196,-74.5781 L 18.6698,-74.4438 L 19.1565,-74.3687 L 19.6488,-74.354 L 20.1391,-74.3999 L 20.6201,-74.5057
 L 21.0845,-74.6698 L 21.5251,-74.8897 L 21.9354,-75.1621 L 22.3091,-75.4829 L 22.6406,-75.8472 L 23.0215,-76.4147
 L 23.117,-76.5873 L 23.2085,-76.7244 L 23.3111,-76.8536 L 23.4242,-76.9741 L 23.5466,-77.0847 L 23.6777,-77.1848
 L 23.8167,-77.2737 L 23.9625,-77.3508 L 24.1143,-77.4157 L 24.271,-77.4678 L 24.4312,-77.5068 L 24.5943,-77.5324
 L 24.7589,-77.5444 L 24.9238,-77.5429 L 25.0883,-77.5277 L 25.2507,-77.499 L 25.4101,-77.457 L 25.5961,-77.3911
 L 26.0696,-77.2557 L 26.5561,-77.1794 L 27.0484,-77.1635 L 27.5388,-77.2083 L 28.0201,-77.3129 L 28.4848,-77.4759
 L 28.9259,-77.6948 L 29.3369,-77.9663 L 29.7113,-78.2861 L 30.0437,-78.6496 L 30.3288,-79.0512 L 30.6385,-79.6605
 L 30.7126,-79.8433 L 30.7869,-79.9906 L 30.8732,-80.1313 L 30.9708,-80.2644 L 31.0791,-80.389 L 31.1971,-80.504
 L 31.3245,-80.6092 L 31.4598,-80.7032 L 31.6029,-80.786 L 31.7519,-80.8565 L 31.9065,-80.9146 L 32.065,-80.9596
 L 32.2271,-80.9915 L 32.3911,-81.0098 L 32.5561,-81.0145 L 32.7208,-81.0056 L 32.8842,-80.9831 L 33.0766,-80.9402
 L 33.563,-80.8628 L 34.0552,-80.8457 L 34.5457,-80.8893 L 35.0272,-80.9928 L 35.4923,-81.1547 L 35.934,-81.3725
 L 36.3456,-81.643 L 36.7208,-81.962 L 37.054,-82.3247 L 37.3401,-82.7255 L 37.5747,-83.1585 L 37.8088,-83.8008
 L 37.8602,-83.991 L 37.9164,-84.1465 L 37.985,-84.2964 L 38.0658,-84.4402 L 38.1583,-84.5771 L 38.2617,-84.7056
 L 38.3754,-84.8252 L 38.4985,-84.935 L 38.6304,-85.0343 L 38.7698,-85.1223 L 38.9162,-85.1985 L 39.0685,-85.2624
 L 39.2253,-85.3135 L 39.386,-85.3515 L 39.5491,-85.3761 L 39.7137,-85.3871 L 39.8788,-85.3844 L 40.0749,-85.3651
 L 40.5671,-85.3468 L 41.0577,-85.3893 L 41.5394,-85.4916 L 42.0049,-85.6524 L 42.4471,-85.8692 L 42.8594,-86.1387
 L 43.2353,-86.4568 L 43.5694,-86.8187 L 43.8564,-87.2189 L 44.0921,-87.6513 L 44.2728,-88.1095 L 44.4277,-88.7752
 L 44.4559,-88.9704 L 44.4928,-89.1313 L 44.5429,-89.2884 L 44.6058,-89.4411 L 44.681,-89.5877 L 44.7683,-89.7281
 L 44.8666,-89.8604 L 44.9757,-89.9843 L 45.0947,-90.0988 L 45.2225,-90.203 L 45.3586,-90.2962 L 45.502,-90.378
 L 45.6515,-90.4476 L 45.8065,-90.5047 L 45.9655,-90.5488 L 46.1276,-90.5795 L 46.2917,-90.5968 L 46.4888,-90.6012
 L 46.9796,-90.6424 L 47.4616,-90.7437 L 47.9274,-90.9034 L 48.3701,-91.1192 L 48.783,-91.3877 L 49.1597,-91.7049
 L 49.4946,-92.066 L 49.7826,-92.4655 L 50.0193,-92.8974 L 50.2011,-93.3551 L 50.3253,-93.8317 L 50.3988,-94.5112
 L 50.4032,-94.7083 L 50.4205,-94.8724 L 50.4512,-95.0345 L 50.4953,-95.1935 L 50.5524,-95.3485 L 50.622,-95.498
 L 50.7038,-95.6414 L 50.797,-95.7775 L 50.9012,-95.9053 L 51.0157,-96.0243 L 51.1396,-96.1334 L 51.2719,-96.2317
 L 51.4123,-96.319 L 51.5589,-96.3942 L 51.7116,-96.4571 L 51.8687,-96.5072 L 52.0296,-96.5441 L 52.2248,-96.5723
 L 52.707,-96.6724 L 53.1732,-96.831 L 53.6165,-97.0457 L 54.03,-97.3132 L 54.4074,-97.6295 L 54.7432,-97.9899
 L 55.0321,-98.3887 L 55.2698,-98.82 L 55.4527,-99.2773 L 55.578,-99.7536 L 55.6439,-100.242 L 55.6349,-100.925
 L 55.6156,-101.121 L 55.6129,-101.286 L 55.6239,-101.451 L 55.6485,-101.614 L 55.6865,-101.775 L 55.7376,-101.932
 L 55.8015,-102.084 L 55.8777,-102.23 L 55.9657,-102.37 L 56.065,-102.502 L 56.1748,-102.625 L 56.2944,-102.738
 L 56.4229,-102.842 L 56.5598,-102.934 L 56.7036,-103.015 L 56.8535,-103.084 L 57.009,-103.14 L 57.1992,-103.191
 L 57.6658,-103.349 L 58.1096,-103.562 L 58.5237,-103.829 L 58.9019,-104.144 L 59.2385,-104.504 L 59.5284,-104.902
 L 59.7671,-105.333 L 59.9511,-105.79 L 60.0775,-106.266 L 60.1445,-106.754 L 60.151,-107.246 L 60.0598,-107.923
 L 60.0169,-108.116 L 59.9944,-108.279 L 59.9855,-108.444 L 59.9902,-108.609 L 60.0085,-108.773 L 60.0404,-108.935
 L 60.0854,-109.094 L 60.1435,-109.248 L 60.214,-109.397 L 60.2968,-109.54 L 60.3908,-109.676 L 60.496,-109.803
 L 60.611,-109.921 L 60.7356,-110.029 L 60.8687,-110.127 L 61.0094,-110.213 L 61.1567,-110.287 L 61.3395,-110.361
 L 61.7837,-110.574 L 62.1984,-110.84 L 62.5774,-111.154 L 62.9149,-111.513 L 63.2057,-111.91 L 63.4454,-112.34
 L 63.6305,-112.797 L 63.7581,-113.273 L 63.8262,-113.76 L 63.834,-114.253 L 63.7811,-114.742 L 63.6089,-115.404
 L 63.543,-115.59 L 63.501,-115.749 L 63.4723,-115.912 L 63.4571,-116.076 L 63.4556,-116.241 L 63.4676,-116.406
 L 63.4932,-116.569 L 63.5322,-116.729 L 63.5843,-116.886 L 63.6492,-117.037 L 63.7263,-117.183 L 63.8152,-117.322
 L 63.9153,-117.453 L 64.0259,-117.576 L 64.1464,-117.689 L 64.2756,-117.791 L 64.4127,-117.883 L 64.5853,-117.979
 L 65.0007,-118.243 L 65.3804,-118.557 L 65.7187,-118.915 L 66.0105,-119.311 L 66.2512,-119.741 L 66.4374,-120.197
 L 66.5661,-120.672 L 66.6354,-121.16 L 66.6443,-121.652 L 66.5925,-122.142 L 66.481,-122.622 L 66.2304,-123.258
 L 66.1427,-123.434 L 66.0817,-123.588 L 66.0336,-123.746 L 65.9987,-123.907 L 65.9772,-124.07 L 65.9694,-124.235
 L 65.9752,-124.4 L 65.9945,-124.564 L 66.0274,-124.726 L 66.0735,-124.884 L 66.1324,-125.038 L 66.204,-125.187
 L 66.2875,-125.329 L 66.3826,-125.464 L 66.4884,-125.591 L 66.6043,-125.708 L 66.7296,-125.816 L 66.8893,-125.931
 L 67.2698,-126.244 L 67.6089,-126.601 L 67.9016,-126.997 L 68.1434,-127.426 L 68.3306,-127.882 L 68.4605,-128.357
 L 68.5309,-128.844 L 68.541,-129.337 L 68.4904,-129.826 L 68.3801,-130.306 L 68.2116,-130.769 L 67.886,-131.37
 L 67.7777,-131.535 L 67.6987,-131.68 L 67.6319,-131.831 L 67.5779,-131.987 L 67.5368,-132.147 L 67.5092,-132.309
 L 67.495,-132.473 L 67.4945,-132.639 L 67.5076,-132.803 L 67.5343,-132.966 L 67.5742,-133.126 L 67.6273,-133.282
 L 67.6931,-133.434 L 67.7712,-133.579 L 67.8611,-133.717 L 67.9619,-133.848 L 68.0734,-133.97 L 68.218,-134.104
 L 68.558,-134.46 L 68.8516,-134.855 L 69.0944,-135.284 L 69.2827,-135.739 L 69.4137,-136.214 L 69.4853,-136.701
 L 69.4965,-137.193 L 69.4471,-137.683 L 69.3379,-138.164 L 69.1705,-138.627 L 68.9474,-139.066 L 68.5519,-139.623
 L 68.4244,-139.774 L 68.3285,-139.908 L 68.2441,-140.05 L 68.1715,-140.198 L 68.1116,-140.352 L 68.0645,-140.51
 L 68.0307,-140.671 L 68.0102,-140.835 L 68.0034,-141 L 68.0102,-141.165 L 68.0307,-141.329 L 68.0645,-141.49
 L 68.1116,-141.648 L 68.1715,-141.802 L 68.2441,-141.95 L 68.3285,-142.092 L 68.4244,-142.226 L 68.5519,-142.377
 L 68.8464,-142.772 L 69.0903,-143.199 L 69.2796,-143.654 L 69.4117,-144.129 L 69.4845,-144.616 L 69.4968,-145.108
 L 69.4486,-145.598 L 69.3405,-146.079 L 69.1742,-146.542 L 68.9522,-146.982 L 68.6778,-147.391 L 68.218,-147.896
 L 68.0734,-148.03 L 67.9619,-148.152 L 67.8611,-148.283 L 67.7712,-148.421 L 67.6931,-148.566 L 67.6273,-148.718
 L 67.5742,-148.874 L 67.5343,-149.034 L 67.5076,-149.197 L 67.4945,-149.361 L 67.495,-149.527 L 67.5092,-149.691
 L 67.5368,-149.853 L 67.5779,-150.013 L 67.6319,-150.169 L 67.6987,-150.32 L 67.7777,-150.465 L 67.886,-150.63
 L 68.1309,-151.057 L 68.3214,-151.511 L 68.4546,-151.985 L 68.5285,-152.472 L 68.5421,-152.965 L 68.495,-153.455
 L 68.3881,-153.935 L 68.2229,-154.399 L 68.0019,-154.84 L 67.7285,-155.249 L 67.4069,-155.622 L 66.8893,-156.069
 L 66.7296,-156.184 L 66.6043,-156.292 L 66.4884,-156.409 L 66.3826,-156.536 L 66.2875,-156.671 L 66.204,-156.813
 L 66.1324,-156.962 L 66.0735,-157.116 L 66.0274,-157.274 L 65.9945,-157.436 L 65.9752,-157.6 L 65.9694,-157.765
 L 65.9772,-157.93 L 65.9987,-158.093 L 66.0336,-158.254 L 66.0817,-158.412 L 66.1427,-158.566 L 66.2304,-158.742
 L 66.4219,-159.196 L 66.5562,-159.67 L 66.6313,-160.157 L 66.646,-160.649 L 66.6001,-161.139 L 66.4943,-161.62
 L 66.3302,-162.084 L 66.1103,-162.525 L 65.8379,-162.935 L 65.5171,-163.309 L 65.1528,-163.641 L 64.5853,-164.021
 L 64.4127,-164.117 L 64.2756,-164.209 L 64.1464,-164.311 L 64.0259,-164.424 L 63.9153,-164.547 L 63.8152,-164.678
 L 63.7263,-164.817 L 63.6492,-164.963 L 63.5843,-165.114 L 63.5322,-165.271 L 63.4932,-165.431 L 63.4676,-165.594
 L 63.4556,-165.759 L 63.4571,-165.924 L 63.4723,-166.088 L 63.501,-166.251 L 63.543,-166.41 L 63.6089,-166.596
 L 63.7443,-167.07 L 63.8206,-167.556 L 63.8365,-168.048 L 63.7917,-168.539 L 63.6871,-169.02 L 63.5241,-169.485
 L 63.3052,-169.926 L 63.0337,-170.337 L 62.7139,-170.711 L 62.3504,-171.044 L 61.9488,-171.329 L 61.3395,-171.639
 L 61.1567,-171.713 L 61.0094,-171.787 L 60.8687,-171.873 L 60.7356,-171.971 L 60.611,-172.079 L 60.496,-172.197
 L 60.3908,-172.324 L 60.2968,-172.46 L 60.214,-172.603 L 60.1435,-172.752 L 60.0854,-172.906 L 60.0404,-173.065
 L 60.0085,-173.227 L 59.9902,-173.391 L 59.9855,-173.556 L 59.9944,-173.721 L 60.0169,-173.884 L 60.0598,-174.077
 L 60.1372,-174.563 L 60.1543,-175.055 L 60.1107,-175.546 L 60.0072,-176.027 L 59.8453,-176.492 L 59.6275,-176.934
 L 59.357,-177.346 L 59.038,-177.721 L 58.6753,-178.054 L 58.2745,-178.34 L 57.8415,-178.575 L 57.1992,-178.809
 L 57.009,-178.86 L 56.8535,-178.916 L 56.7036,-178.985 L 56.5598,-179.066 L 56.4229,-179.158 L 56.2944,-179.262
 L 56.1748,-179.375 L 56.065,-179.498 L 55.9657,-179.63 L 55.8777,-179.77 L 55.8015,-179.916 L 55.7376,-180.068
 L 55.6865,-180.225 L 55.6485,-180.386 L 55.6239,-180.549 L 55.6129,-180.714 L 55.6156,-180.879 L 55.6349,-181.075
 L 55.6532,-181.567 L 55.6107,-182.058 L 55.5084,-182.539 L 55.3476,-183.005 L 55.1308,-183.447 L 54.8613,-183.859
 L 54.5432,-184.235 L 54.1813,-184.569 L 53.7811,-184.856 L 53.3487,-185.092 L 52.8905,-185.273 L 52.2248,-185.428
 L 52.0296,-185.456 L 51.8687,-185.493 L 51.7116,-185.543 L 51.5589,-185.606 L 51.4123,-185.681 L 51.2719,-185.768
 L 51.1396,-185.867 L 51.0157,-185.976 L 50.9012,-186.095 L 50.797,-186.223 L 50.7038,-186.359 L 50.622,-186.502
 L 50.5524,-186.651 L 50.4953,-186.807 L 50.4512,-186.965 L 50.4205,-187.128 L 50.4032,-187.292 L 50.3988,-187.489
 L 50.3576,-187.98 L 50.2563,-188.462 L 50.0966,-188.927 L 49.8808,-189.37 L 49.6123,-189.783 L 49.2951,-190.16
 L 48.934,-190.495 L 48.5345,-190.783 L 48.1026,-191.019 L 47.6449,-191.201 L 47.1683,-191.325 L 46.4888,-191.399
 L 46.2917,-191.403 L 46.1276,-191.42 L 45.9655,-191.451 L 45.8065,-191.495 L 45.6515,-191.552 L 45.502,-191.622
 L 45.3586,-191.704 L 45.2225,-191.797 L 45.0947,-191.901 L 44.9757,-192.016 L 44.8666,-192.14 L 44.7683,-192.272
 L 44.681,-192.412 L 44.6058,-192.559 L 44.5429,-192.712 L 44.4928,-192.869 L 44.4559,-193.03 L 44.4277,-193.225
 L 44.3276,-193.707 L 44.169,-194.173 L 43.9543,-194.616 L 43.6868,-195.03 L 43.3705,-195.407 L 43.0101,-195.743
 L 42.6113,-196.032 L 42.18,-196.27 L 41.7227,-196.453 L 41.2464,-196.578 L 40.7584,-196.644 L 40.0749,-196.635
 L 39.8788,-196.616 L 39.7137,-196.613 L 39.5491,-196.624 L 39.386,-196.648 L 39.2253,-196.686 L 39.0685,-196.738
 L 38.9162,-196.801 L 38.7698,-196.878 L 38.6304,-196.966 L 38.4985,-197.065 L 38.3754,-197.175 L 38.2617,-197.294
 L 38.1583,-197.423 L 38.0658,-197.56 L 37.985,-197.704 L 37.9164,-197.853 L 37.8602,-198.009 L 37.8088,-198.199
 L 37.6513,-198.666 L 37.4376,-199.11 L 37.1711,-199.524 L 36.8556,-199.902 L 36.4961,-200.238 L 36.098,-200.528
 L 35.6672,-200.767 L 35.2104,-200.951 L 34.7344,-201.078 L 34.2465,-201.145 L 33.754,-201.151 L 33.0766,-201.06
 L 32.8842,-201.017 L 32.7208,-200.994 L 32.5561,-200.985 L 32.3911,-200.99 L 32.2271,-201.009 L 32.065,-201.04
 L 31.9065,-201.085 L 31.7519,-201.143 L 31.6029,-201.214 L 31.4598,-201.297 L 31.3245,-201.391 L 31.1971,-201.496
 L 31.0791,-201.611 L 30.9708,-201.736 L 30.8732,-201.869 L 30.7869,-202.009 L 30.7126,-202.157 L 30.6385,-202.339
 L 30.426,-202.784 L 30.1604,-203.198 L 29.8459,-203.577 L 29.4872,-203.915 L 29.0897,-204.206 L 28.6595,-204.445
 L 28.2031,-204.63 L 27.7274,-204.758 L 27.2397,-204.826 L 26.7473,-204.834 L 26.2576,-204.781 L 25.5961,-204.609
 L 25.4101,-204.543 L 25.2507,-204.501 L 25.0883,-204.472 L 24.9238,-204.457 L 24.7589,-204.456 L 24.5943,-204.468
 L 24.4312,-204.493 L 24.271,-204.532 L 24.1143,-204.584 L 23.9625,-204.649 L 23.8167,-204.726 L 23.6777,-204.815
 L 23.5466,-204.915 L 23.4242,-205.026 L 23.3111,-205.146 L 23.2085,-205.276 L 23.117,-205.413 L 23.0215,-205.585
 L 22.7569,-206.001 L 22.4433,-206.38 L 22.0853,-206.719 L 21.6886,-207.01 L 21.2589,-207.251 L 20.803,-207.437
 L 20.3276,-207.566 L 19.84,-207.635 L 19.3476,-207.644 L 18.8578,-207.593 L 18.3782,-207.481 L 17.7423,-207.23
 L 17.5658,-207.143 L 17.4124,-207.082 L 17.2544,-207.034 L 17.0933,-206.999 L 16.9297,-206.977 L 16.7648,-206.969
 L 16.5999,-206.975 L 16.436,-206.995 L 16.2742,-207.027 L 16.1158,-207.073 L 15.9619,-207.132 L 15.8129,-207.204
 L 15.6707,-207.288 L 15.5358,-207.383 L 15.4092,-207.488 L 15.2918,-207.604 L 15.1843,-207.73 L 15.0687,-207.889
 L 14.756,-208.27 L 14.3989,-208.609 L 14.0028,-208.902 L 13.5738,-209.143 L 13.1183,-209.331 L 12.6432,-209.46
 L 12.1558,-209.531 L 11.6634,-209.541 L 11.1735,-209.49 L 10.6935,-209.38 L 10.2308,-209.212 L 9.6297,-208.886
 L 9.46503,-208.778 L 9.32008,-208.699 L 9.16922,-208.632 L 9.0134,-208.578 L 8.85341,-208.537 L 8.69084,-208.509
 L 8.52652,-208.495 L 8.36137,-208.494 L 8.19691,-208.508 L 8.03391,-208.534 L 7.87395,-208.574 L 7.7177,-208.627
 L 7.56644,-208.693 L 7.42102,-208.771 L 7.28253,-208.861 L 7.1521,-208.962 L 7.03024,-209.073 L 6.89626,-209.218
 L 6.53995,-209.558 L 6.14455,-209.852 L 5.71608,-210.094 L 5.26102,-210.283 L 4.78625,-210.414 L 4.29901,-210.485
 L 3.80664,-210.496 L 3.31665,-210.447 L 2.83643,-210.338 L 2.37326,-210.17 L 1.93419,-209.947 L 1.37685,-209.552
 L 1.22629,-209.424 L 1.092,-209.328 L 0.950378,-209.244 L 0.80191,-209.172 L 0.648376,-209.112 L 0.490005,-209.064
 L 0.328751,-209.031 L 0.164871,-209.01 L 0,-209.003 L -0.164871,-209.01 L -0.328751,-209.031 L -0.490005,-209.064
 L -0.648376,-209.112 L -0.80191,-209.172 L -0.950378,-209.244 L -1.092,-209.328 L -1.22629,-209.424 L -1.37685,-209.552
 L -1.77155,-209.846 L -2.19945,-210.09 L -2.65407,-210.28 L -3.12851,-210.412 L -3.61559,-210.484 L -4.10793,-210.497
 L -4.59804,-210.449 L -5.07852,-210.341 L -5.54207,-210.174 L -5.98167,-209.952 L -6.39066,-209.678 L -6.89626,-209.218
 L -7.03024,-209.073 L -7.1521,-208.962 L -7.28253,-208.861 L -7.42102,-208.771 L -7.56644,-208.693 L -7.7177,-208.627
 L -7.87395,-208.574 L -8.03391,-208.534 L -8.19691,-208.508 L -8.36137,-208.494 L -8.52652,-208.495 L -8.69084,-208.509
 L -8.85341,-208.537 L -9.0134,-208.578 L -9.16922,-208.632 L -9.32008,-208.699 L -9.46503,-208.778 L -9.6297,-208.886
 L -10.057,-209.131 L -10.5112,-209.321 L -10.9853,-209.455 L -11.4722,-209.529 L -11.9645,-209.542 L -12.4547,-209.495
 L -12.9355,-209.388 L -13.3994,-209.223 L -13.8396,-209.002 L -14.2492,-208.729 L -14.6221,-208.407 L -15.0687,-207.889
 L -15.1843,-207.73 L -15.2918,-207.604 L -15.4092,-207.488 L -15.5358,-207.383 L -15.6707,-207.288 L -15.8129,-207.204
 L -15.9619,-207.132 L -16.1158,-207.073 L -16.2742,-207.027 L -16.436,-206.995 L -16.5999,-206.975 L -16.7648,-206.969
 L -16.9297,-206.977 L -17.0933,-206.999 L -17.2544,-207.034 L -17.4124,-207.082 L -17.5658,-207.143 L -17.7423,-207.23
 L -18.196,-207.422 L -18.6698,-207.556 L -19.1565,-207.631 L -19.6488,-207.646 L -20.1391,-207.6 L -20.6201,-207.494
 L -21.0845,-207.33 L -21.5251,-207.11 L -21.9354,-206.838 L -22.3091,-206.517 L -22.6406,-206.153 L -23.0215,-205.585
 L -23.117,-205.413 L -23.2085,-205.276 L -23.3111,-205.146 L -23.4242,-205.026 L -23.5466,-204.915 L -23.6777,-204.815
 L -23.8167,-204.726 L -23.9625,-204.649 L -24.1143,-204.584 L -24.271,-204.532 L -24.4312,-204.493 L -24.5943,-204.468
 L -24.7589,-204.456 L -24.9238,-204.457 L -25.0883,-204.472 L -25.2507,-204.501 L -25.4101,-204.543 L -25.5961,-204.609
 L -26.0696,-204.744 L -26.5561,-204.821 L -27.0484,-204.836 L -27.5388,-204.792 L -28.0201,-204.687 L -28.4848,-204.524
 L -28.9259,-204.305 L -29.3369,-204.034 L -29.7113,-203.714 L -30.0437,-203.35 L -30.3288,-202.949 L -30.6385,-202.339
 L -30.7126,-202.157 L -30.7869,-202.009 L -30.8732,-201.869 L -30.9708,-201.736 L -31.0791,-201.611 L -31.1971,-201.496
 L -31.3245,-201.391 L -31.4598,-201.297 L -31.6029,-201.214 L -31.7519,-201.143 L -31.9065,-201.085 L -32.065,-201.04
 L -32.2271,-201.009 L -32.3911,-200.99 L -32.5561,-200.985 L -32.7208,-200.994 L -32.8842,-201.017 L -33.0766,-201.06
 L -33.563,-201.137 L -34.0552,-201.154 L -34.5457,-201.111 L -35.0272,-201.007 L -35.4923,-200.845 L -35.934,-200.627
 L -36.3456,-200.357 L -36.7208,-200.038 L -37.054,-199.675 L -37.3401,-199.274 L -37.5747,-198.841 L -37.8088,-198.199
 L -37.8602,-198.009 L -37.9164,-197.853 L -37.985,-197.704 L -38.0658,-197.56 L -38.1583,-197.423 L -38.2617,-197.294
 L -38.3754,-197.175 L -38.4985,-197.065 L -38.6304,-196.966 L -38.7698,-196.878 L -38.9162,-196.801 L -39.0685,-196.738
 L -39.2253,-196.686 L -39.386,-196.648 L -39.5491,-196.624 L -39.7137,-196.613 L -39.8788,-196.616 L -40.0749,-196.635
 L -40.5671,-196.653 L -41.0577,-196.611 L -41.5394,-196.508 L -42.0049,-196.348 L -42.4471,-196.131 L -42.8594,-195.861
 L -43.2353,-195.543 L -43.5694,-195.181 L -43.8564,-194.781 L -44.0921,-194.349 L -44.2728,-193.891 L -44.4277,-193.225
 L -44.4559,-193.03 L -44.4928,-192.869 L -44.5429,-192.712 L -44.6058,-192.559 L -44.681,-192.412 L -44.7683,-192.272
 L -44.8666,-192.14 L -44.9757,-192.016 L -45.0947,-191.901 L -45.2225,-191.797 L -45.3586,-191.704 L -45.502,-191.622
 L -45.6515,-191.552 L -45.8065,-191.495 L -45.9655,-191.451 L -46.1276,-191.42 L -46.2917,-191.403 L -46.4888,-191.399
 L -46.9796,-191.358 L -47.4616,-191.256 L -47.9274,-191.097 L -48.3701,-190.881 L -48.783,-190.612 L -49.1597,-190.295
 L -49.4946,-189.934 L -49.7826,-189.534 L -50.0193,-189.103 L -50.2011,-188.645 L -50.3253,-188.168 L -50.3988,-187.489
 L -50.4032,-187.292 L -50.4205,-187.128 L -50.4512,-186.965 L -50.4953,-186.807 L -50.5524,-186.651 L -50.622,-186.502
 L -50.7038,-186.359 L -50.797,-186.223 L -50.9012,-186.095 L -51.0157,-185.976 L -51.1396,-185.867 L -51.2719,-185.768
 L -51.4123,-185.681 L -51.5589,-185.606 L -51.7116,-185.543 L -51.8687,-185.493 L -52.0296,-185.456 L -52.2248,-185.428
 L -52.707,-185.328 L -53.1732,-185.169 L -53.6165,-184.954 L -54.03,-184.687 L -54.4074,-184.37 L -54.7432,-184.01
 L -55.0321,-183.611 L -55.2698,-183.18 L -55.4527,-182.723 L -55.578,-182.246 L -55.6439,-181.758 L -55.6349,-181.075
 L -55.6156,-180.879 L -55.6129,-180.714 L -55.6239,-180.549 L -55.6485,-180.386 L -55.6865,-180.225 L -55.7376,-180.068
 L -55.8015,-179.916 L -55.8777,-179.77 L -55.9657,-179.63 L -56.065,-179.498 L -56.1748,-179.375 L -56.2944,-179.262
 L -56.4229,-179.158 L -56.5598,-179.066 L -56.7036,-178.985 L -56.8535,-178.916 L -57.009,-178.86 L -57.1992,-178.809
 L -57.6658,-178.651 L -58.1096,-178.438 L -58.5237,-178.171 L -58.9019,-177.856 L -59.2385,-177.496 L -59.5284,-177.098
 L -59.7671,-176.667 L -59.9511,-176.21 L -60.0775,-175.734 L -60.1445,-175.246 L -60.151,-174.754 L -60.0598,-174.077
 L -60.0169,-173.884 L -59.9944,-173.721 L -59.9855,-173.556 L -59.9902,-173.391 L -60.0085,-173.227 L -60.0404,-173.065
 L -60.0854,-172.906 L -60.1435,-172.752 L -60.214,-172.603 L -60.2968,-172.46 L -60.3908,-172.324 L -60.496,-172.197
 L -60.611,-172.079 L -60.7356,-171.971 L -60.8687,-171.873 L -61.0094,-171.787 L -61.1567,-171.713 L -61.3395,-171.639
 L -61.7837,-171.426 L -62.1984,-171.16 L -62.5774,-170.846 L -62.9149,-170.487 L -63.2057,-170.09 L -63.4454,-169.66
 L -63.6305,-169.203 L -63.7581,-168.727 L -63.8262,-168.24 L -63.834,-167.747 L -63.7811,-167.258 L -63.6089,-166.596
 L -63.543,-166.41 L -63.501,-166.251 L -63.4723,-166.088 L -63.4571,-165.924 L -63.4556,-165.759 L -63.4676,-165.594
 L -63.4932,-165.431 L -63.5322,-165.271 L -63.5843,-165.114 L -63.6492,-164.963 L -63.7263,-164.817 L -63.8152,-164.678
 L -63.9153,-164.547 L -64.0259,-164.424 L -64.1464,-164.311 L -64.2756,-164.209 L -64.4127,-164.117 L -64.5853,-164.021
 L -65.0007,-163.757 L -65.3804,-163.443 L -65.7187,-163.085 L -66.0105,-162.689 L -66.2512,-162.259 L -66.4374,-161.803
 L -66.5661,-161.328 L -66.6354,-160.84 L -66.6443,-160.348 L -66.5925,-159.858 L -66.481,-159.378 L -66.2304,-158.742
 L -66.1427,-158.566 L -66.0817,-158.412 L -66.0336,-158.254 L -65.9987,-158.093 L -65.9772,-157.93 L -65.9694,-157.765
 L -65.9752,-157.6 L -65.9945,-157.436 L -66.0274,-157.274 L -66.0735,-157.116 L -66.1324,-156.962 L -66.204,-156.813
 L -66.2875,-156.671 L -66.3826,-156.536 L -66.4884,-156.409 L -66.6043,-156.292 L -66.7296,-156.184 L -66.8893,-156.069
 L -67.2698,-155.756 L -67.6089,-155.399 L -67.9016,-155.003 L -68.1434,-154.574 L -68.3306,-154.118 L -68.4605,-153.643
 L -68.5309,-153.156 L -68.541,-152.663 L -68.4904,-152.174 L -68.3801,-151.694 L -68.2116,-151.231 L -67.886,-150.63
 L -67.7777,-150.465 L -67.6987,-150.32 L -67.6319,-150.169 L -67.5779,-150.013 L -67.5368,-149.853 L -67.5092,-149.691
 L -67.495,-149.527 L -67.4945,-149.361 L -67.5076,-149.197 L -67.5343,-149.034 L -67.5742,-148.874 L -67.6273,-148.718
 L -67.6931,-148.566 L -67.7712,-148.421 L -67.8611,-148.283 L -67.9619,-148.152 L -68.0734,-148.03 L -68.218,-147.896
 L -68.558,-147.54 L -68.8516,-147.145 L -69.0944,-146.716 L -69.2827,-146.261 L -69.4137,-145.786 L -69.4853,-145.299
 L -69.4965,-144.807 L -69.4471,-144.317 L -69.3379,-143.836 L -69.1705,-143.373 L -68.9474,-142.934 L -68.5519,-142.377
 L -68.4244,-142.226 L -68.3285,-142.092 L -68.2441,-141.95 L -68.1715,-141.802 L -68.1116,-141.648 L -68.0645,-141.49
 L -68.0307,-141.329 L -68.0102,-141.165 L -68.0034,-141 L -68.0102,-140.835 L -68.0307,-140.671 L -68.0645,-140.51
 L -68.1116,-140.352 L -68.1715,-140.198 L -68.2441,-140.05 L -68.3285,-139.908 L -68.4244,-139.774 L -68.5519,-139.623
 L -68.8464,-139.228 L -69.0903,-138.801 L -69.2796,-138.346 L -69.4117,-137.871 L -69.4845,-137.384 L -69.4968,-136.892
 L -69.4486,-136.402 L -69.3405,-135.921 L -69.1742,-135.458 L -68.9522,-135.018 L -68.6778,-134.609 L -68.218,-134.104
 L -68.0734,-133.97 L -67.9619,-133.848 L -67.8611,-133.717 L -67.7712,-133.579 L -67.6931,-133.434 L -67.6273,-133.282
 L -67.5742,-133.126 L -67.5343,-132.966 L -67.5076,-132.803 L -67.4945,-132.639 L -67.495,-132.473 L -67.5092,-132.309
 L -67.5368,-132.147 L -67.5779,-131.987 L -67.6319,-131.831 L -67.6987,-131.68 L -67.7777,-131.535 L -67.886,-131.37
 L -68.1309,-130.943 L -68.3214,-130.489 L -68.4546,-130.015 L -68.5285,-129.528 L -68.5421,-129.035 L -68.495,-128.545
 L -68.3881,-128.065 L -68.2229,-127.601 L -68.0019,-127.16 L -67.7285,-126.751 L -67.4069,-126.378 L -66.8893,-125.931
 L -66.7296,-125.816 L -66.6043,-125.708 L -66.4884,-125.591 L -66.3826,-125.464 L -66.2875,-125.329 L -66.204,-125.187
 L -66.1324,-125.038 L -66.0735,-124.884 L -66.0274,-124.726 L -65.9945,-124.564 L -65.9752,-124.4 L -65.9694,-124.235
 L -65.9772,-124.07 L -65.9987,-123.907 L -66.0336,-123.746 L -66.0817,-123.588 L -66.1427,-123.434 L -66.2304,-123.258
 L -66.4219,-122.804 L -66.5562,-122.33 L -66.6313,-121.843 L -66.646,-121.351 L -66.6001,-120.861 L -66.4943,-120.38
 L -66.3302,-119.916 L -66.1103,-119.475 L -65.8379,-119.065 L -65.5171,-118.691 L -65.1528,-118.359 L -64.5853,-117.979
 L -64.4127,-117.883 L -64.2756,-117.791 L -64.1464,-117.689 L -64.0259,-117.576 L -63.9153,-117.453 L -63.8152,-117.322
 L -63.7263,-117.183 L -63.6492,-117.037 L -63.5843,-116.886 L -63.5322,-116.729 L -63.4932,-116.569 L -63.4676,-116.406
 L -63.4556,-116.241 L -63.4571,-116.076 L -63.4723,-115.912 L -63.501,-115.749 L -63.543,-115.59 L -63.6089,-115.404
 L -63.7443,-114.93 L -63.8206,-114.444 L -63.8365,-113.952 L -63.7917,-113.461 L -63.6871,-112.98 L -63.5241,-112.515
 L -63.3052,-112.074 L -63.0337,-111.663 L -62.7139,-111.289 L -62.3504,-110.956 L -61.9488,-110.671 L -61.3395,-110.361
 L -61.1567,-110.287 L -61.0094,-110.213 L -60.8687,-110.127 L -60.7356,-110.029 L -60.611,-109.921 L -60.496,-109.803
 L -60.3908,-109.676 L -60.2968,-109.54 L -60.214,-109.397 L -60.1435,-109.248 L -60.0854,-109.094 L -60.0404,-108.935
 L -60.0085,-108.773 L -59.9902,-108.609 L -59.9855,-108.444 L -59.9944,-108.279 L -60.0169,-108.116 L -60.0598,-107.923
 L -60.1372,-107.437 L -60.1543,-106.945 L -60.1107,-106.454 L -60.0072,-105.973 L -59.8453,-105.508 L -59.6275,-105.066
 L -59.357,-104.654 L -59.038,-104.279 L -58.6753,-103.946 L -58.2745,-103.66 L -57.8415,-103.425 L -57.1992,-103.191
 L -57.009,-103.14 L -56.8535,-103.084 L -56.7036,-103.015 L -56.5598,-102.934 L -56.4229,-102.842 L -56.2944,-102.738
 L -56.1748,-102.625 L -56.065,-102.502 L -55.9657,-102.37 L -55.8777,-102.23 L -55.8015,-102.084 L -55.7376,-101.932
 L -55.6865,-101.775 L -55.6485,-101.614 L -55.6239,-101.451 L -55.6129,-101.286 L -55.6156,-101.121 L -55.6349,-100.925
 L -55.6532,-100.433 L -55.6107,-99.9423 L -55.5084,-99.4606 L -55.3476,-98.9951 L -55.1308,-98.5529 L -54.8613,-98.1406
 L -54.5432,-97.7647 L -54.1813,-97.4306 L -53.7811,-97.1436 L -53.3487,-96.9079 L -52.8905,-96.7272 L -52.2248,-96.5723
 L -52.0296,-96.5441 L -51.8687,-96.5072 L -51.7116,-96.4571 L -51.5589,-96.3942 L -51.4123,-96.319 L -51.2719,-96.2317
 L -51.1396,-96.1334 L -51.0157,-96.0243 L -50.9012,-95.9053 L -50.797,-95.7775 L -50.7038,-95.6414 L -50.622,-95.498
 L -50.5524,-95.3485 L -50.4953,-95.1935 L -50.4512,-95.0345 L -50.4205,-94.8724 L -50.4032,-94.7083 L -50.3988,-94.5112
 L -50.3576,-94.0204 L -50.2563,-93.5384 L -50.0966,-93.0726 L -49.8808,-92.6299 L -49.6123,-92.217 L -49.2951,-91.8403
 L -48.934,-91.5054 L -48.5345,-91.2174 L -48.1026,-90.9807 L -47.6449,-90.7989 L -47.1683,-90.6747 L -46.4888,-90.6012
 L -46.2917,-90.5968 L -46.1276,-90.5795 L -45.9655,-90.5488 L -45.8065,-90.5047 L -45.6515,-90.4476 L -45.502,-90.378
 L -45.3586,-90.2962 L -45.2225,-90.203 L -45.0947,-90.0988 L -44.9757,-89.9843 L -44.8666,-89.8604 L -44.7683,-89.7281
 L -44.681,-89.5877 L -44.6058,-89.4411 L -44.5429,-89.2884 L -44.4928,-89.1313 L -44.4559,-88.9704 L -44.4277,-88.7752
 L -44.3276,-88.293 L -44.169,-87.8268 L -43.9543,-87.3835 L -43.6868,-86.97 L -43.3705,-86.5926 L -43.0101,-86.2568
 L -42.6113,-85.9679 L -42.18,-85.7302 L -41.7227,-85.5473 L -41.2464,-85.422 L -40.7584,-85.3561 L -40.0749,-85.3651
 L -39.8788,-85.3844 L -39.7137,-85.3871 L -39.5491,-85.3761 L -39.386,-85.3515 L -39.2253,-85.3135 L -39.0685,-85.2624
 L -38.9162,-85.1985 L -38.7698,-85.1223 L -38.6304,-85.0343 L -38.4985,-84.935 L -38.3754,-84.8252 L -38.2617,-84.7056
 L -38.1583,-84.5771 L -38.0658,-84.4402 L -37.985,-84.2964 L -37.9164,-84.1465 L -37.8602,-83.991 L -37.8088,-83.8008
 L -37.6513,-83.3342 L -37.4376,-82.8904 L -37.1711,-82.4763 L -36.8556,-82.0981 L -36.4961,-81.7615 L -36.098,-81.4716
 L -35.6672,-81.2329 L -35.2104,-81.0489 L -34.7344,-80.9225 L -34.2465,-80.8555 L -33.754,-80.849 L -33.0766,-80.9402
 L -32.8842,-80.9831 L -32.7208,-81.0056 L -32.5561,-81.0145 L -32.3911,-81.0098 L -32.2271,-80.9915 L -32.065,-80.9596
 L -31.9065,-80.9146 L -31.7519,-80.8565 L -31.6029,-80.786 L -31.4598,-80.7032 L -31.3245,-80.6092 L -31.1971,-80.504
 L -31.0791,-80.389 L -30.9708,-80.2644 L -30.8732,-80.1313 L -30.7869,-79.9906 L -30.7126,-79.8433 L -30.6385,-79.6605
 L -30.426,-79.2163 L -30.1604,-78.8016 L -29.8459,-78.4226 L -29.4872,-78.0851 L -29.0897,-77.7943 L -28.6595,-77.5546
 L -28.2031,-77.3695 L -27.7274,-77.2419 L -27.2397,-77.1738 L -26.7473,-77.166 L -26.2576,-77.2189 L -25.5961,-77.3911
 L -25.4101,-77.457 L -25.2507,-77.499 L -25.0883,-77.5277 L -24.9238,-77.5429 L -24.7589,-77.5444 L -24.5943,-77.5324
 L -24.4312,-77.5068 L -24.271,-77.4678 L -24.1143,-77.4157 L -23.9625,-77.3508 L -23.8167,-77.2737 L -23.6777,-77.1848
 L -23.5466,-77.0847 L -23.4242,-76.9741 L -23.3111,-76.8536 L -23.2085,-76.7244 L -23.117,-76.5873 L -23.0215,-76.4147
 L -22.7569,-75.9993 L -22.4433,-75.6196 L -22.0853,-75.2813 L -21.6886,-74.9895 L -21.2589,-74.7488 L -20.803,-74.5626
 L -20.3276,-74.4339 L -19.84,-74.3646 L -19.3476,-74.3557 L -18.8578,-74.4075 L -18.3782,-74.519 L -17.7423,-74.7696
 L -17.5658,-74.8573 L -17.4124,-74.9183 L -17.2544,-74.9664 L -17.0933,-75.0013 L -16.9297,-75.0228 L -16.7648,-75.0306
 L -16.5999,-75.0248 L -16.436,-75.0055 L -16.2742,-74.9726 L -16.1158,-74.9265 L -15.9619,-74.8676 L -15.8129,-74.796
 L -15.6707,-74.7125 L -15.5358,-74.6174 L -15.4092,-74.5116 L -15.2918,-74.3957 L -15.1843,-74.2704 L -15.0687,-74.1107
 L -14.756,-73.7302 L -14.3989,-73.3911 L -14.0028,-73.0984 L -13.5738,-72.8566 L -13.1183,-72.6694 L -12.6432,-72.5395
 L -12.1558,-72.4691 L -11.6634,-72.459 L -11.1735,-72.5096 L -10.6935,-72.6199 L -10.2308,-72.7884 L -9.6297,-73.114
 L -9.46503,-73.2223 L -9.32008,-73.3013 L -9.16922,-73.3681 L -9.0134,-73.4221 L -8.85341,-73.4632 L -8.69084,-73.4908
 L -8.52652,-73.505 L -8.36137,-73.5055 L -8.19691,-73.4924 L -8.03391,-73.4657 L -7.87395,-73.4258 L -7.7177,-73.3727
 L -7.56644,-73.3069 L -7.42102,-73.2288 L -7.28253,-73.1389 L -7.1521,-73.0381 L -7.03024,-72.9266 L -6.89626,-72.782
 L -6.53995,-72.442 L -6.14455,-72.1484 L -5.71608,-71.9056 L -5.26102,-71.7173 L -4.78625,-71.5863 L -4.29901,-71.5147
 L -3.80664,-71.5035 L -3.31665,-71.5529 L -2.83643,-71.6621 L -2.37326,-71.8295 L -1.93419,-72.0526 L -1.37685,-72.4481
 L -1.22629,-72.5756 L -1.092,-72.6715 L -0.950378,-72.7559 L -0.80191,-72.8285 L -0.648376,-72.8884 L -0.490005,-72.9355
 L -0.328751,-72.9693 L -0.164871,-72.9898 L 0,-72.9966 L 0.164871,-72.9898 L 0.328751,-72.9693 L 0.490005,-72.9355
 L 0.648376,-72.8884 L 0.80191,-72.8285 L 0.950378,-72.7559 L 1.092,-72.6715 L 1.22629,-72.5756 L 1.37685,-72.4481
 L 1.77155,-72.1536 L 2.19945,-71.9097 L 2.65407,-71.7204 L 3.12851,-71.5883 L 3.61559,-71.5155 L 4.10793,-71.5032
 z
M -12.572,-159.24 L -13.0307,-159.413 L -13.4469,-159.671 L -13.8046,-160.006 L -14.0901,-160.405 L -14.2923,-160.851
 L -14.4036,-161.328 L -14.4196,-161.818 L -14.3398,-162.302 L -14.1672,-162.76 L -13.9084,-163.177 L -13.5734,-163.534
 L -13.175,-163.82 L -12.7286,-164.022 L -12.2513,-164.133 L -11.7615,-164.149 L -11.2779,-164.07 L -10.8193,-163.897
 L -10.4031,-163.638 L -10.0454,-163.303 L -9.75993,-162.905 L -9.55766,-162.458 L -9.44638,-161.981 L -9.43034,-161.491
 L -9.51018,-161.008 L -9.68282,-160.549 L -9.9416,-160.133 L -10.2766,-159.775 L -10.675,-159.49 L -11.1214,-159.287
 L -11.5987,-159.176 L -12.0885,-159.16 z
M 11.5987,-159.176 L 11.1214,-159.287 L 10.675,-159.49 L 10.2766,-159.775 L 9.9416,-160.133 L 9.68282,-160.549
 L 9.51018,-161.008 L 9.43034,-161.491 L 9.44638,-161.981 L 9.55766,-162.458 L 9.75993,-162.905 L 10.0454,-163.303
 L 10.4031,-163.638 L 10.8193,-163.897 L 11.2779,-164.07 L 11.7615,-164.149 L 12.2513,-164.133 L 12.7286,-164.022
 L 13.175,-163.82 L 13.5734,-163.534 L 13.9084,-163.177 L 14.1672,-162.76 L 14.3398,-162.302 L 14.4196,-161.818
 L 14.4036,-161.328 L 14.2923,-160.851 L 14.0901,-160.405 L 13.8046,-160.006 L 13.4469,-159.671 L 13.0307,-159.413
 L 12.572,-159.24 L 12.0885,-159.16 z
M -0.247726,-138.01 L -0.73645,-138.092 L -1.20508,-138.253 L -1.64084,-138.488 L -2.03183,-138.793 L -2.36742,-139.157
 L -2.63841,-139.572 L -2.83745,-140.026 L -2.95908,-140.506 L -3,-141 L -2.95908,-141.494 L -2.83745,-141.974
 L -2.63841,-142.428 L -2.36742,-142.843 L -2.03183,-143.207 L -1.64084,-143.512 L -1.20508,-143.747 L -0.73645,-143.908
 L -0.247726,-143.99 L 0.247726,-143.99 L 0.73645,-143.908 L 1.20508,-143.747 L 1.64084,-143.512 L 2.03183,-143.207
 L 2.36742,-142.843 L 2.39999,-142.793 L 2.39999,-139.207 L 2.36742,-139.157 L 2.03183,-138.793 L 1.64084,-138.488
 L 1.20508,-138.253 L 0.73645,-138.092 L 0.247726,-138.01 z
M -24.3377,-138.548 L -24.8067,-138.69 L -25.2389,-138.921 L -25.6178,-139.232 L -25.9287,-139.611 L -26.1597,-140.043
 L -26.302,-140.512 L -26.35,-141 L -26.302,-141.488 L -26.1597,-141.957 L -25.9287,-142.389 L -25.6178,-142.768
 L -25.2389,-143.079 L -24.8067,-143.31 L -24.3377,-143.452 L -23.85,-143.5 L -23.3623,-143.452 L -22.8933,-143.31
 L -22.4611,-143.079 L -22.0822,-142.768 L -21.7713,-142.389 L -21.5403,-141.957 L -21.398,-141.488 L -21.35,-141
 L -21.398,-140.512 L -21.5403,-140.043 L -21.7713,-139.611 L -22.0822,-139.232 L -22.4611,-138.921 L -22.8933,-138.69
 L -23.3623,-138.548 L -23.85,-138.5 z
M 23.3623,-138.548 L 22.8933,-138.69 L 22.4611,-138.921 L 22.0822,-139.232 L 21.7713,-139.611 L 21.5403,-140.043
 L 21.398,-140.512 L 21.35,-141 L 21.398,-141.488 L 21.5403,-141.957 L 21.7713,-142.389 L 22.0822,-142.768
 L 22.4611,-143.079 L 22.8933,-143.31 L 23.3623,-143.452 L 23.85,-143.5 L 24.3377,-143.452 L 24.8067,-143.31
 L 25.2389,-143.079 L 25.6178,-142.768 L 25.9287,-142.389 L 26.1597,-141.957 L 26.302,-141.488 L 26.35,-141
 L 26.302,-140.512 L 26.1597,-140.043 L 25.9287,-139.611 L 25.6178,-139.232 L 25.2389,-138.921 L 24.8067,-138.69
 L 24.3377,-138.548 L 23.85,-138.5 z
M -12.2513,-117.867 L -12.7286,-117.978 L -13.175,-118.18 L -13.5734,-118.466 L -13.9084,-118.823 L -14.1672,-119.24
 L -14.3398,-119.698 L -14.4196,-120.182 L -14.4036,-120.672 L -14.2923,-121.149 L -14.0901,-121.595 L -13.8046,-121.994
 L -13.4469,-122.329 L -13.0307,-122.587 L -12.572,-122.76 L -12.0885,-122.84 L -11.5987,-122.824 L -11.1214,-122.713
 L -10.675,-122.51 L -10.2766,-122.225 L -9.9416,-121.867 L -9.68282,-121.451 L -9.51018,-120.992 L -9.43034,-120.509
 L -9.44638,-120.019 L -9.55766,-119.542 L -9.75993,-119.095 L -10.0454,-118.697 L -10.4031,-118.362 L -10.8193,-118.103
 L -11.2779,-117.93 L -11.7615,-117.851 z
M 11.2779,-117.93 L 10.8193,-118.103 L 10.4031,-118.362 L 10.0454,-118.697 L 9.75993,-119.095 L 9.55766,-119.542
 L 9.44638,-120.019 L 9.43034,-120.509 L 9.51018,-120.992 L 9.68282,-121.451 L 9.9416,-121.867 L 10.2766,-122.225
 L 10.675,-122.51 L 11.1214,-122.713 L 11.5987,-122.824 L 12.0885,-122.84 L 12.572,-122.76 L 13.0307,-122.587
 L 13.4469,-122.329 L 13.8046,-121.994 L 14.0901,-121.595 L 14.2923,-121.149 L 14.4036,-120.672 L 14.4196,-120.182
 L 14.3398,-119.698 L 14.1672,-119.24 L 13.9084,-118.823 L 13.5734,-118.466 L 13.175,-118.18 L 12.7286,-117.978
 L 12.2513,-117.867 L 11.7615,-117.851 z
M -4.27092,-67.8762 L -4.43568,-67.8867 L -4.59874,-67.9107 L -4.75972,-67.9482 L -4.91658,-67.9987 L -5.06905,-68.0622
 L -5.21558,-68.1379 L -5.35542,-68.2255 L -5.51335,-68.3437 L -5.92511,-68.6138 L -6.36694,-68.8314 L -6.83217,-68.993
 L -7.31372,-69.0962 L -7.80431,-69.1394 L -8.29649,-69.122 L -8.78279,-69.0443 L -9.25587,-68.9074 L -9.70854,-68.7134
 L -10.1339,-68.4652 L -10.5256,-68.1667 L -11.0026,-67.6771 L -11.1275,-67.5247 L -11.2424,-67.4061 L -11.3666,-67.2975
 L -11.4993,-67.1995 L -11.6398,-67.1128 L -11.7868,-67.038 L -11.9397,-66.9755 L -12.0971,-66.9259 L -12.2579,-66.8895
 L -12.4214,-66.8665 L -12.5861,-66.857 L -12.751,-66.8612 L -12.915,-66.879 L -13.0773,-66.9104 L -13.236,-66.9549
 L -13.3906,-67.0124 L -13.5403,-67.0826 L -13.7111,-67.1808 L -14.1524,-67.3994 L -14.6173,-67.5621 L -15.0986,-67.6664
 L -15.5891,-67.7108 L -16.0813,-67.6946 L -16.5678,-67.618 L -17.0412,-67.4822 L -17.4943,-67.2893 L -17.9203,-67.0421
 L -18.3127,-66.7445 L -18.6655,-66.4009 L -19.08,-65.8574 L -19.1857,-65.691 L -19.2854,-65.5595 L -19.3955,-65.4368
 L -19.5155,-65.3234 L -19.6444,-65.2204 L -19.7816,-65.1283 L -19.9255,-65.0481 L -20.0759,-64.9798 L -20.2311,-64.9243
 L -20.3908,-64.8817 L -20.553,-64.8525 L -20.7174,-64.8368 L -20.8823,-64.8347 L -21.0469,-64.8462 L -21.2101,-64.8713
 L -21.3705,-64.9098 L -21.5272,-64.9614 L -21.7088,-65.0383 L -22.1732,-65.2021 L -22.6543,-65.3075 L -23.1447,-65.3531
 L -23.6369,-65.3381 L -24.1236,-65.2627 L -24.5974,-65.128 L -25.0509,-64.9362 L -25.4775,-64.69 L -25.8706,-64.3933
 L -26.2242,-64.0506 L -26.5331,-63.667 L -26.8791,-63.0774 L -26.9641,-62.8993 L -27.0471,-62.7569 L -27.1416,-62.6218
 L -27.2472,-62.4948 L -27.3627,-62.377 L -27.4876,-62.2692 L -27.621,-62.172 L -27.7619,-62.0862 L -27.9095,-62.0123
 L -28.0627,-61.9508 L -28.2203,-61.9023 L -28.3815,-61.8668 L -28.545,-61.8449 L -28.7097,-61.8365 L -28.8749,-61.8418
 L -29.0388,-61.8606 L -29.2005,-61.8929 L -29.3901,-61.9474 L -29.8709,-62.054 L -30.3612,-62.1007 L -30.8535,-62.0868
 L -31.3403,-62.0126 L -31.8143,-61.879 L -32.2684,-61.6882 L -32.6955,-61.4431 L -33.0893,-61.1474 L -33.4438,-60.8054
 L -33.7535,-60.4225 L -34.0139,-60.0045 L -34.2862,-59.3776 L -34.349,-59.1908 L -34.4144,-59.0392 L -34.4921,-58.8935
 L -34.5814,-58.7549 L -34.6819,-58.6241 L -34.7929,-58.5019 L -34.9136,-58.3894 L -35.0432,-58.2872 L -35.1808,-58.196
 L -35.3254,-58.1165 L -35.4759,-58.0494 L -35.6319,-57.9947 L -35.7915,-57.9532 L -35.9541,-57.925 L -36.1185,-57.9104
 L -36.2834,-57.9093 L -36.448,-57.9219 L -36.6427,-57.9531 L -37.1328,-58.001 L -37.6252,-57.9883 L -38.1122,-57.9152
 L -38.5865,-57.7828 L -39.041,-57.5931 L -39.4688,-57.349 L -39.8633,-57.0541 L -40.2185,-56.7131 L -40.5292,-56.3309
 L -40.7905,-55.9135 L -40.9986,-55.4671 L -41.1935,-54.8119 L -41.2333,-54.6189 L -41.2799,-54.4605 L -41.3394,-54.3066
 L -41.4113,-54.1582 L -41.4954,-54.016 L -41.5908,-53.8815 L -41.697,-53.7553 L -41.8134,-53.6382 L -41.939,-53.5312
 L -42.0731,-53.4348 L -42.2145,-53.3499 L -42.3625,-53.277 L -42.516,-53.2165 L -42.674,-53.1689 L -42.8355,-53.1345
 L -42.999,-53.1136 L -43.164,-53.1063 L -43.361,-53.1138 L -43.8534,-53.1022 L -44.3406,-53.0303 L -44.8152,-52.899
 L -45.2702,-52.7104 L -45.6985,-52.4673 L -46.0937,-52.1734 L -46.4497,-51.8331 L -46.7613,-51.4518 L -47.0236,-51.0349
 L -47.2328,-50.5891 L -47.3855,-50.1208 L -47.4999,-49.4471 L -47.5162,-49.2505 L -47.5434,-49.0877 L -47.5838,-48.9279
 L -47.6375,-48.7716 L -47.7037,-48.6207 L -47.7823,-48.4753 L -47.8725,-48.3374 L -47.9739,-48.2071 L -48.0857,-48.0857
 L -48.2071,-47.9739 L -48.3374,-47.8725 L -48.4753,-47.7823 L -48.6207,-47.7037 L -48.7716,-47.6375 L -48.9279,-47.5838
 L -49.0877,-47.5434 L -49.2505,-47.5162 L -49.4471,-47.4999 L -49.9344,-47.4291 L -50.4094,-47.2989 L -50.8648,-47.1114
 L -51.2937,-46.8693 L -51.6895,-46.5763 L -52.0464,-46.2369 L -52.3589,-45.8563 L -52.6222,-45.4401 L -52.8324,-44.9947
 L -52.9862,-44.5269 L -53.0814,-44.0437 L -53.1138,-43.361 L -53.1063,-43.164 L -53.1136,-42.999 L -53.1345,-42.8355
 L -53.1689,-42.674 L -53.2165,-42.516 L -53.277,-42.3625 L -53.3499,-42.2145 L -53.4348,-42.0731 L -53.5312,-41.939
 L -53.6382,-41.8134 L -53.7553,-41.697 L -53.8815,-41.5908 L -54.016,-41.4954 L -54.1582,-41.4113 L -54.3066,-41.3394
 L -54.4605,-41.2799 L -54.6189,-41.2333 L -54.8119,-41.1935 L -55.2872,-41.0644 L -55.743,-40.878 L -56.1725,-40.6369
 L -56.5691,-40.3449 L -56.9267,-40.0064 L -57.2401,-39.6264 L -57.5044,-39.2109 L -57.7157,-38.766 L -57.8707,-38.2985
 L -57.967,-37.8156 L -58.0033,-37.3244 L -57.9531,-36.6427 L -57.9219,-36.448 L -57.9093,-36.2834 L -57.9104,-36.1185
 L -57.925,-35.9541 L -57.9532,-35.7915 L -57.9947,-35.6319 L -58.0494,-35.4759 L -58.1165,-35.3254 L -58.196,-35.1808
 L -58.2872,-35.0432 L -58.3894,-34.9136 L -58.5019,-34.7929 L -58.6241,-34.6819 L -58.7549,-34.5814 L -58.8935,-34.4921
 L -59.0392,-34.4144 L -59.1908,-34.349 L -59.3776,-34.2862 L -59.8339,-34.1009 L -60.2639,-33.8608 L -60.6612,-33.5697
 L -61.0197,-33.2321 L -61.3339,-32.8529 L -61.5992,-32.438 L -61.8115,-31.9936 L -61.9676,-31.5265 L -62.0651,-31.0437
 L -62.1025,-30.5527 L -62.0793,-30.0607 L -61.9474,-29.3901 L -61.8929,-29.2005 L -61.8606,-29.0388 L -61.8418,-28.8749
 L -61.8365,-28.7097 L -61.8449,-28.545 L -61.8668,-28.3815 L -61.9023,-28.2203 L -61.9508,-28.0627 L -62.0123,-27.9095
 L -62.0862,-27.7619 L -62.172,-27.621 L -62.2692,-27.4876 L -62.377,-27.3627 L -62.4948,-27.2472 L -62.6218,-27.1416
 L -62.7569,-27.0471 L -62.8993,-26.9641 L -63.0774,-26.8791 L -63.508,-26.6401 L -63.906,-26.3499 L -64.2653,-26.0131
 L -64.5804,-25.6347 L -64.8467,-25.2204 L -65.0601,-24.7765 L -65.2173,-24.3098 L -65.3159,-23.8273 L -65.3545,-23.3363
 L -65.3324,-22.8443 L -65.2501,-22.3587 L -65.0383,-21.7088 L -64.9614,-21.5272 L -64.9098,-21.3705 L -64.8713,-21.2101
 L -64.8462,-21.0469 L -64.8347,-20.8823 L -64.8368,-20.7174 L -64.8525,-20.553 L -64.8817,-20.3908 L -64.9243,-20.2311
 L -64.9798,-20.0759 L -65.0481,-19.9255 L -65.1283,-19.7816 L -65.2204,-19.6444 L -65.3234,-19.5155 L -65.4368,-19.3955
 L -65.5595,-19.2854 L -65.691,-19.1857 L -65.8574,-19.08 L -66.256,-18.7908 L -66.6161,-18.4548 L -66.9322,-18.0772
 L -67.1994,-17.6635 L -67.4139,-17.2202 L -67.5722,-16.7538 L -67.6719,-16.2715 L -67.7117,-15.7806 L -67.6909,-15.2886
 L -67.6097,-14.8028 L -67.4694,-14.3307 L -67.1808,-13.7111 L -67.0826,-13.5403 L -67.0124,-13.3906 L -66.9549,-13.236
 L -66.9104,-13.0773 L -66.879,-12.915 L -66.8612,-12.751 L -66.857,-12.5861 L -66.8665,-12.4214 L -66.8895,-12.2579
 L -66.9259,-12.0971 L -66.9755,-11.9397 L -67.038,-11.7868 L -67.1128,-11.6398 L -67.1995,-11.4993 L -67.2975,-11.3666
 L -67.4061,-11.2424 L -67.5247,-11.1275 L -67.6771,-11.0026 L -68.038,-10.6675 L -68.3549,-10.2905 L -68.6232,-9.87752
 L -68.8386,-9.43465 L -68.998,-8.96867 L -69.0989,-8.48663 L -69.1398,-7.99585 L -69.1201,-7.50375 L -69.0401,-7.01781
 L -68.901,-6.54539 L -68.7048,-6.09364 L -68.3437,-5.51335 L -68.2255,-5.35542 L -68.1379,-5.21558 L -68.0622,-5.06905
 L -67.9987,-4.91658 L -67.9482,-4.75972 L -67.9107,-4.59874 L -67.8867,-4.43568 L -67.8762,-4.27092 L -67.8793,-4.10588
 L -67.8961,-3.94174 L -67.9263,-3.7796 L -67.9699,-3.62033 L -68.0264,-3.46548 L -68.0957,-3.31546 L -68.1769,-3.17189
 L -68.2698,-3.03554 L -68.3736,-2.90726 L -68.5099,-2.76476 L -68.8277,-2.38858 L -69.097,-1.97617 L -69.3134,-1.53381
 L -69.4739,-1.06822 L -69.576,-0.586426 L -69.6181,-0.0957336 L -69.5995,0.396393 L -69.5206,0.882523 L -69.3826,1.35527
 L -69.1875,1.80746 L -68.9384,2.23228 L -68.5099,2.76476 L -68.3736,2.90726 L -68.2698,3.03554 L -68.1769,3.17189
 L -68.0957,3.31546 L -68.0264,3.46548 L -67.9699,3.62033 L -67.9263,3.7796 L -67.8961,3.94174 L -67.8793,4.10588
 L -67.8762,4.27092 L -67.8867,4.43568 L -67.9107,4.59874 L -67.9482,4.75972 L -67.9987,4.91658 L -68.0622,5.06905
 L -68.1379,5.21558 L -68.2255,5.35542 L -68.3437,5.51335 L -68.6138,5.92511 L -68.8314,6.36694 L -68.993,6.83217
 L -69.0962,7.31372 L -69.1394,7.80431 L -69.122,8.29649 L -69.0443,8.78279 L -68.9074,9.25587 L -68.7134,9.70854
 L -68.4652,10.1339 L -68.1667,10.5256 L -67.6771,11.0026 L -67.5247,11.1275 L -67.4061,11.2424 L -67.2975,11.3666
 L -67.1995,11.4993 L -67.1128,11.6398 L -67.038,11.7868 L -66.9755,11.9397 L -66.9259,12.0971 L -66.8895,12.2579
 L -66.8665,12.4214 L -66.857,12.5861 L -66.8612,12.751 L -66.879,12.915 L -66.9104,13.0773 L -66.9549,13.236
 L -67.0124,13.3906 L -67.0826,13.5403 L -67.1808,13.7111 L -67.3994,14.1524 L -67.5621,14.6173 L -67.6664,15.0986
 L -67.7108,15.5891 L -67.6946,16.0813 L -67.618,16.5678 L -67.4822,17.0412 L -67.2893,17.4943 L -67.0421,17.9203
 L -66.7445,18.3127 L -66.4009,18.6655 L -65.8574,19.08 L -65.691,19.1857 L -65.5595,19.2854 L -65.4368,19.3955
 L -65.3234,19.5155 L -65.2204,19.6444 L -65.1283,19.7816 L -65.0481,19.9255 L -64.9798,20.0759 L -64.9243,20.2311
 L -64.8817,20.3908 L -64.8525,20.553 L -64.8368,20.7174 L -64.8347,20.8823 L -64.8462,21.0469 L -64.8713,21.2101
 L -64.9098,21.3705 L -64.9614,21.5272 L -65.0383,21.7088 L -65.2021,22.1732 L -65.3075,22.6543 L -65.3531,23.1447
 L -65.3381,23.6369 L -65.2627,24.1236 L -65.128,24.5974 L -64.9362,25.0509 L -64.69,25.4775 L -64.3933,25.8706
 L -64.0506,26.2242 L -63.667,26.5331 L -63.0774,26.8791 L -62.8993,26.9641 L -62.7569,27.0471 L -62.6218,27.1416
 L -62.4948,27.2472 L -62.377,27.3627 L -62.2692,27.4876 L -62.172,27.621 L -62.0862,27.7619 L -62.0123,27.9095
 L -61.9508,28.0627 L -61.9023,28.2203 L -61.8668,28.3815 L -61.8449,28.545 L -61.8365,28.7097 L -61.8418,28.8749
 L -61.8606,29.0388 L -61.8929,29.2005 L -61.9474,29.3901 L -62.054,29.8709 L -62.1007,30.3612 L -62.0868,30.8535
 L -62.0126,31.3403 L -61.879,31.8143 L -61.6882,32.2684 L -61.4431,32.6955 L -61.1474,33.0893 L -60.8054,33.4438
 L -60.4225,33.7535 L -60.0045,34.0139 L -59.3776,34.2862 L -59.1908,34.349 L -59.0392,34.4144 L -58.8935,34.4921
 L -58.7549,34.5814 L -58.6241,34.6819 L -58.5019,34.7929 L -58.3894,34.9136 L -58.2872,35.0432 L -58.196,35.1808
 L -58.1165,35.3254 L -58.0494,35.4759 L -57.9947,35.6319 L -57.9532,35.7915 L -57.925,35.9541 L -57.9104,36.1185
 L -57.9093,36.2834 L -57.9219,36.448 L -57.9531,36.6427 L -58.001,37.1328 L -57.9883,37.6252 L -57.9152,38.1122
 L -57.7828,38.5865 L -57.5931,39.041 L -57.349,39.4688 L -57.0541,39.8633 L -56.7131,40.2185 L -56.3309,40.5292
 L -55.9135,40.7905 L -55.4671,40.9986 L -54.8119,41.1935 L -54.6189,41.2333 L -54.4605,41.2799 L -54.3066,41.3394
 L -54.1582,41.4113 L -54.016,41.4954 L -53.8815,41.5908 L -53.7553,41.697 L -53.6382,41.8134 L -53.5312,41.939
 L -53.4348,42.0731 L -53.3499,42.2145 L -53.277,42.3625 L -53.2165,42.516 L -53.1689,42.674 L -53.1345,42.8355
 L -53.1136,42.999 L -53.1063,43.164 L -53.1138,43.361 L -53.1022,43.8534 L -53.0303,44.3406 L -52.899,44.8152
 L -52.7104,45.2702 L -52.4673,45.6985 L -52.1734,46.0937 L -51.8331,46.4497 L -51.4518,46.7613 L -51.0349,47.0236
 L -50.5891,47.2328 L -50.1208,47.3855 L -49.4471,47.4999 L -49.2505,47.5162 L -49.0877,47.5434 L -48.9279,47.5838
 L -48.7716,47.6375 L -48.6207,47.7037 L -48.4753,47.7823 L -48.3374,47.8725 L -48.2071,47.9739 L -48.0857,48.0857
 L -47.9739,48.2071 L -47.8725,48.3374 L -47.7823,48.4753 L -47.7037,48.6207 L -47.6375,48.7716 L -47.5838,48.9279
 L -47.5434,49.0877 L -47.5162,49.2505 L -47.4999,49.4471 L -47.4291,49.9344 L -47.2989,50.4094 L -47.1114,50.8648
 L -46.8693,51.2937 L -46.5763,51.6895 L -46.2369,52.0464 L -45.8563,52.3589 L -45.4401,52.6222 L -44.9947,52.8324
 L -44.5269,52.9862 L -44.0437,53.0814 L -43.361,53.1138 L -43.164,53.1063 L -42.999,53.1136 L -42.8355,53.1345
 L -42.674,53.1689 L -42.516,53.2165 L -42.3625,53.277 L -42.2145,53.3499 L -42.0731,53.4348 L -41.939,53.5312
 L -41.8134,53.6382 L -41.697,53.7553 L -41.5908,53.8815 L -41.4954,54.016 L -41.4113,54.1582 L -41.3394,54.3066
 L -41.2799,54.4605 L -41.2333,54.6189 L -41.1935,54.8119 L -41.0644,55.2872 L -40.878,55.743 L -40.6369,56.1725
 L -40.3449,56.5691 L -40.0064,56.9267 L -39.6264,57.2401 L -39.2109,57.5044 L -38.766,57.7157 L -38.2985,57.8707
 L -37.8156,57.967 L -37.3244,58.0033 L -36.6427,57.9531 L -36.448,57.9219 L -36.2834,57.9093 L -36.1185,57.9104
 L -35.9541,57.925 L -35.7915,57.9532 L -35.6319,57.9947 L -35.4759,58.0494 L -35.3254,58.1165 L -35.1808,58.196
 L -35.0432,58.2872 L -34.9136,58.3894 L -34.7929,58.5019 L -34.6819,58.6241 L -34.5814,58.7549 L -34.4921,58.8935
 L -34.4144,59.0392 L -34.349,59.1908 L -34.2862,59.3776 L -34.1009,59.8339 L -33.8608,60.2639 L -33.5697,60.6612
 L -33.2321,61.0197 L -32.8529,61.3339 L -32.438,61.5992 L -31.9936,61.8115 L -31.5265,61.9676 L -31.0437,62.0651
 L -30.5527,62.1025 L -30.0607,62.0793 L -29.3901,61.9474 L -29.2005,61.8929 L -29.0388,61.8606 L -28.8749,61.8418
 L -28.7097,61.8365 L -28.545,61.8449 L -28.3815,61.8668 L -28.2203,61.9023 L -28.0627,61.9508 L -27.9095,62.0123
 L -27.7619,62.0862 L -27.621,62.172 L -27.4876,62.2692 L -27.3627,62.377 L -27.2471,62.4948 L -27.1416,62.6218
 L -27.0471,62.7569 L -26.9641,62.8993 L -26.8791,63.0774 L -26.6401,63.508 L -26.3499,63.906 L -26.0131,64.2653
 L -25.6347,64.5804 L -25.2204,64.8467 L -24.7765,65.0601 L -24.3098,65.2173 L -23.8273,65.3159 L -23.3363,65.3545
 L -22.8443,65.3324 L -22.3587,65.2501 L -21.7088,65.0383 L -21.5272,64.9614 L -21.3705,64.9098 L -21.2101,64.8713
 L -21.0469,64.8462 L -20.8823,64.8347 L -20.7174,64.8368 L -20.553,64.8525 L -20.3908,64.8817 L -20.2311,64.9243
 L -20.0759,64.9798 L -19.9255,65.0481 L -19.7816,65.1283 L -19.6444,65.2204 L -19.5155,65.3234 L -19.3955,65.4368
 L -19.2854,65.5595 L -19.1857,65.691 L -19.08,65.8574 L -18.7908,66.256 L -18.4548,66.6161 L -18.0772,66.9322
 L -17.6635,67.1994 L -17.2202,67.4139 L -16.7538,67.5722 L -16.2715,67.6719 L -15.7806,67.7117 L -15.2886,67.6909
 L -14.8028,67.6097 L -14.3307,67.4694 L -13.7111,67.1808 L -13.5403,67.0826 L -13.3906,67.0124 L -13.236,66.9549
 L -13.0773,66.9104 L -12.915,66.879 L -12.751,66.8612 L -12.5861,66.857 L -12.4214,66.8665 L -12.2579,66.8895
 L -12.0971,66.9259 L -11.9397,66.9755 L -11.7868,67.038 L -11.6398,67.1128 L -11.4993,67.1995 L -11.3666,67.2975
 L -11.2424,67.4061 L -11.1275,67.5247 L -11.0026,67.6771 L -10.6675,68.038 L -10.2905,68.3549 L -9.87752,68.6232
 L -9.43465,68.8386 L -8.96867,68.998 L -8.48663,69.0989 L -7.99585,69.1398 L -7.50375,69.1201 L -7.01781,69.0401
 L -6.54539,68.901 L -6.09364,68.7048 L -5.51335,68.3437 L -5.35542,68.2255 L -5.21558,68.1379 L -5.06905,68.0622
 L -4.91658,67.9987 L -4.75972,67.9482 L -4.59874,67.9107 L -4.43568,67.8867 L -4.27092,67.8762 L -4.10588,67.8793
 L -3.94174,67.8961 L -3.7796,67.9263 L -3.62033,67.9699 L -3.46548,68.0264 L -3.31546,68.0957 L -3.17189,68.1769
 L -3.03554,68.2698 L -2.90726,68.3736 L -2.76476,68.5099 L -2.38858,68.8277 L -1.97617,69.097 L -1.53381,69.3134
 L -1.06822,69.4739 L -0.586426,69.576 L -0.0957336,69.6181 L 0.396393,69.5995 L 0.882523,69.5206 L 1.35527,69.3826
 L 1.80746,69.1875 L 2.23228,68.9384 L 2.76476,68.5099 L 2.90726,68.3736 L 3.03554,68.2698 L 3.17189,68.1769
 L 3.31546,68.0957 L 3.46548,68.0264 L 3.62033,67.9699 L 3.7796,67.9263 L 3.94174,67.8961 L 4.10588,67.8793
 L 4.27092,67.8762 L 4.43568,67.8867 L 4.59874,67.9107 L 4.75972,67.9482 L 4.91658,67.9987 L 5.06905,68.0622
 L 5.21558,68.1379 L 5.35542,68.2255 L 5.51335,68.3437 L 5.92511,68.6138 L 6.36694,68.8314 L 6.83217,68.993
 L 7.31372,69.0962 L 7.80431,69.1394 L 8.29649,69.122 L 8.78279,69.0443 L 9.25587,68.9074 L 9.70854,68.7134
 L 10.1339,68.4652 L 10.5256,68.1667 L 11.0026,67.6771 L 11.1275,67.5247 L 11.2424,67.4061 L 11.3666,67.2975
 L 11.4993,67.1995 L 11.6398,67.1128 L 11.7868,67.038 L 11.9397,66.9755 L 12.0971,66.9259 L 12.2579,66.8895
 L 12.4214,66.8665 L 12.5861,66.857 L 12.751,66.8612 L 12.915,66.879 L 13.0773,66.9104 L 13.236,66.9549
 L 13.3906,67.0124 L 13.5403,67.0826 L 13.7111,67.1808 L 14.1524,67.3994 L 14.6173,67.5621 L 15.0986,67.6664
 L 15.5891,67.7108 L 16.0813,67.6946 L 16.5678,67.618 L 17.0412,67.4822 L 17.4943,67.2893 L 17.9203,67.0421
 L 18.3127,66.7445 L 18.6655,66.4009 L 19.08,65.8574 L 19.1857,65.691 L 19.2854,65.5595 L 19.3955,65.4368
 L 19.5155,65.3234 L 19.6444,65.2204 L 19.7816,65.1283 L 19.9255,65.0481 L 20.0759,64.9798 L 20.2311,64.9243
 L 20.3908,64.8817 L 20.553,64.8525 L 20.7174,64.8368 L 20.8823,64.8347 L 21.0469,64.8462 L 21.2101,64.8713
 L 21.3705,64.9098 L 21.5272,64.9614 L 21.7088,65.0383 L 22.1732,65.2021 L 22.6543,65.3075 L 23.1447,65.3531
 L 23.6369,65.3381 L 24.1236,65.2627 L 24.5974,65.128 L 25.0509,64.9362 L 25.4775,64.69 L 25.8706,64.3933
 L 26.2242,64.0506 L 26.5331,63.667 L 26.8791,63.0774 L 26.9641,62.8993 L 27.0471,62.7569 L 27.1416,62.6218
 L 27.2472,62.4948 L 27.3627,62.377 L 27.4876,62.2692 L 27.621,62.172 L 27.7619,62.0862 L 27.9095,62.0123
 L 28.0627,61.9508 L 28.2203,61.9023 L 28.3815,61.8668 L 28.545,61.8449 L 28.7097,61.8365 L 28.8749,61.8418
 L 29.0388,61.8606 L 29.2005,61.8929 L 29.3901,61.9474 L 29.8709,62.054 L 30.3612,62.1007 L 30.8535,62.0868
 L 31.3403,62.0126 L 31.8143,61.879 L 32.2684,61.6882 L 32.6955,61.4431 L 33.0893,61.1474 L 33.4438,60.8054
 L 33.7535,60.4225 L 34.0139,60.0045 L 34.2862,59.3776 L 34.349,59.1908 L 34.4144,59.0392 L 34.4921,58.8935
 L 34.5814,58.7549 L 34.6819,58.6241 L 34.7929,58.5019 L 34.9136,58.3894 L 35.0432,58.2872 L 35.1808,58.196
 L 35.3254,58.1165 L 35.4759,58.0494 L 35.6319,57.9947 L 35.7915,57.9532 L 35.9541,57.925 L 36.1185,57.9104
 L 36.2834,57.9093 L 36.448,57.9219 L 36.6427,57.9531 L 37.1328,58.001 L 37.6252,57.9883 L 38.1122,57.9152
 L 38.5865,57.7828 L 39.041,57.5931 L 39.4688,57.349 L 39.8633,57.0541 L 40.2185,56.7131 L 40.5292,56.3309
 L 40.7905,55.9135 L 40.9986,55.4671 L 41.1935,54.8119 L 41.2333,54.6189 L 41.2799,54.4605 L 41.3394,54.3066
 L 41.4113,54.1582 L 41.4954,54.016 L 41.5908,53.8815 L 41.697,53.7553 L 41.8134,53.6382 L 41.939,53.5312
 L 42.0731,53.4348 L 42.2145,53.3499 L 42.3625,53.277 L 42.516,53.2165 L 42.674,53.1689 L 42.8355,53.1345
 L 42.999,53.1136 L 43.164,53.1063 L 43.361,53.1138 L 43.8534,53.1022 L 44.3406,53.0303 L 44.8152,52.899
 L 45.2702,52.7104 L 45.6985,52.4673 L 46.0937,52.1734 L 46.4497,51.8331 L 46.7613,51.4518 L 47.0236,51.0349
 L 47.2328,50.5891 L 47.3855,50.1208 L 47.4999,49.4471 L 47.5162,49.2505 L 47.5434,49.0877 L 47.5838,48.9279
 L 47.6375,48.7716 L 47.7037,48.6207 L 47.7823,48.4753 L 47.8725,48.3374 L 47.9739,48.2071 L 48.0857,48.0857
 L 48.2071,47.9739 L 48.3374,47.8725 L 48.4753,47.7823 L 48.6207,47.7037 L 48.7716,47.6375 L 48.9279,47.5838
 L 49.0877,47.5434 L 49.2505,47.5162 L 49.4471,47.4999 L 49.9344,47.4291 L 50.4094,47.2989 L 50.8648,47.1114
 L 51.2937,46.8693 L 51.6895,46.5763 L 52.0464,46.2369 L 52.3589,45.8563 L 52.6222,45.4401 L 52.8324,44.9947
 L 52.9862,44.5269 L 53.0814,44.0437 L 53.1138,43.361 L 53.1063,43.164 L 53.1136,42.999 L 53.1345,42.8355
 L 53.1689,42.674 L 53.2165,42.516 L 53.277,42.3625 L 53.3499,42.2145 L 53.4348,42.0731 L 53.5312,41.939
 L 53.6382,41.8134 L 53.7553,41.697 L 53.8815,41.5908 L 54.016,41.4954 L 54.1582,41.4113 L 54.3066,41.3394
 L 54.4605,41.2799 L 54.6189,41.2333 L 54.8119,41.1935 L 55.2872,41.0644 L 55.743,40.878 L 56.1725,40.6369
 L 56.5691,40.3449 L 56.9267,40.0064 L 57.2401,39.6264 L 57.5044,39.2109 L 57.7157,38.766 L 57.8707,38.2985
 L 57.967,37.8156 L 58.0033,37.3244 L 57.9531,36.6427 L 57.9219,36.448 L 57.9093,36.2834 L 57.9104,36.1185
 L 57.925,35.9541 L 57.9532,35.7915 L 57.9947,35.6319 L 58.0494,35.4759 L 58.1165,35.3254 L 58.196,35.1808
 L 58.2872,35.0432 L 58.3894,34.9136 L 58.5019,34.7929 L 58.6241,34.6819 L 58.7549,34.5814 L 58.8935,34.4921
 L 59.0392,34.4144 L 59.1908,34.349 L 59.3776,34.2862 L 59.8339,34.1009 L 60.2639,33.8608 L 60.6612,33.5697
 L 61.0197,33.2321 L 61.3339,32.8529 L 61.5992,32.438 L 61.8115,31.9936 L 61.9676,31.5265 L 62.0651,31.0437
 L 62.1025,30.5527 L 62.0793,30.0607 L 61.9474,29.3901 L 61.8929,29.2005 L 61.8606,29.0388 L 61.8418,28.8749
 L 61.8365,28.7097 L 61.8449,28.545 L 61.8668,28.3815 L 61.9023,28.2203 L 61.9508,28.0627 L 62.0123,27.9095
 L 62.0862,27.7619 L 62.172,27.621 L 62.2692,27.4876 L 62.377,27.3627 L 62.4948,27.2472 L 62.6218,27.1416
 L 62.7569,27.0471 L 62.8993,26.9641 L 63.0774,26.8791 L 63.508,26.6401 L 63.906,26.3499 L 64.2653,26.0131
 L 64.5804,25.6347 L 64.8467,25.2204 L 65.0601,24.7765 L 65.2173,24.3098 L 65.3159,23.8273 L 65.3545,23.3363
 L 65.3324,22.8443 L 65.2501,22.3587 L 65.0383,21.7088 L 64.9614,21.5272 L 64.9098,21.3705 L 64.8713,21.2101
 L 64.8462,21.0469 L 64.8347,20.8823 L 64.8368,20.7174 L 64.8525,20.553 L 64.8817,20.3908 L 64.9243,20.2311
 L 64.9798,20.0759 L 65.0481,19.9255 L 65.1283,19.7816 L 65.2204,19.6444 L 65.3234,19.5155 L 65.4368,19.3955
 L 65.5595,19.2854 L 65.691,19.1857 L 65.8574,19.08 L 66.256,18.7908 L 66.6161,18.4548 L 66.9322,18.0772
 L 67.1994,17.6635 L 67.4139,17.2202 L 67.5722,16.7538 L 67.6719,16.2715 L 67.7117,15.7806 L 67.6909,15.2886
 L 67.6097,14.8028 L 67.4694,14.3307 L 67.1808,13.7111 L 67.0826,13.5403 L 67.0124,13.3906 L 66.9549,13.236
 L 66.9104,13.0773 L 66.879,12.915 L 66.8612,12.751 L 66.857,12.5861 L 66.8665,12.4214 L 66.8895,12.2579
 L 66.9259,12.0971 L 66.9755,11.9397 L 67.038,11.7868 L 67.1128,11.6398 L 67.1995,11.4993 L 67.2975,11.3666
 L 67.4061,11.2424 L 67.5247,11.1275 L 67.6771,11.0026 L 68.038,10.6675 L 68.3549,10.2905 L 68.6232,9.87752
 L 68.8386,9.43465 L 68.998,8.96867 L 69.0989,8.48663 L 69.1398,7.99585 L 69.1201,7.50375 L 69.0401,7.01781
 L 68.901,6.54539 L 68.7048,6.09364 L 68.3437,5.51335 L 68.2255,5.35542 L 68.1379,5.21558 L 68.0622,5.06905
 L 67.9987,4.91658 L 67.9482,4.75972 L 67.9107,4.59874 L 67.8867,4.43568 L 67.8762,4.27092 L 67.8793,4.10588
 L 67.8961,3.94174 L 67.9263,3.7796 L 67.9699,3.62033 L 68.0264,3.46548 L 68.0957,3.31546 L 68.1769,3.17189
 L 68.2698,3.03554 L 68.3736,2.90726 L 68.5099,2.76476 L 68.8277,2.38858 L 69.097,1.97617 L 69.3134,1.53381
 L 69.4739,1.06822 L 69.576,0.586426 L 69.6181,0.0957336 L 69.5995,-0.396393 L 69.5206,-0.882523 L 69.3826,-1.35527
 L 69.1875,-1.80746 L 68.9384,-2.23228 L 68.5099,-2.76476 L 68.3736,-2.90726 L 68.2698,-3.03554 L 68.1769,-3.17189
 L 68.0957,-3.31546 L 68.0264,-3.46548 L 67.9699,-3.62033 L 67.9263,-3.7796 L 67.8961,-3.94174 L 67.8793,-4.10588
 L 67.8762,-4.27092 L 67.8867,-4.43568 L 67.9107,-4.59874 L 67.9482,-4.75972 L 67.9987,-4.91658 L 68.0622,-5.06905
 L 68.1379,-5.21558 L 68.2255,-5.35542 L 68.3437,-5.51335 L 68.6138,-5.92511 L 68.8314,-6.36694 L 68.993,-6.83217
 L 69.0962,-7.31372 L 69.1394,-7.80431 L 69.122,-8.29649 L 69.0443,-8.78279 L 68.9074,-9.25587 L 68.7134,-9.70854
 L 68.4652,-10.1339 L 68.1667,-10.5256 L 67.6771,-11.0026 L 67.5247,-11.1275 L 67.4061,-11.2424 L 67.2975,-11.3666
 L 67.1995,-11.4993 L 67.1128,-11.6398 L 67.038,-11.7868 L 66.9755,-11.9397 L 66.9259,-12.0971 L 66.8895,-12.2579
 L 66.8665,-12.4214 L 66.857,-12.5861 L 66.8612,-12.751 L 66.879,-12.915 L 66.9104,-13.0773 L 66.9549,-13.236
 L 67.0124,-13.3906 L 67.0826,-13.5403 L 67.1808,-13.7111 L 67.3994,-14.1524 L 67.5621,-14.6173 L 67.6664,-15.0986
 L 67.7108,-15.5891 L 67.6946,-16.0813 L 67.618,-16.5678 L 67.4822,-17.0412 L 67.2893,-17.4943 L 67.0421,-17.9203
 L 66.7445,-18.3127 L 66.4009,-18.6655 L 65.8574,-19.08 L 65.691,-19.1857 L 65.5595,-19.2854 L 65.4368,-19.3955
 L 65.3234,-19.5155 L 65.2204,-19.6444 L 65.1283,-19.7816 L 65.0481,-19.9255 L 64.9798,-20.0759 L 64.9243,-20.2311
 L 64.8817,-20.3908 L 64.8525,-20.553 L 64.8368,-20.7174 L 64.8347,-20.8823 L 64.8462,-21.0469 L 64.8713,-21.2101
 L 64.9098,-21.3705 L 64.9614,-21.5272 L 65.0383,-21.7088 L 65.2021,-22.1732 L 65.3075,-22.6543 L 65.3531,-23.1447
 L 65.3381,-23.6369 L 65.2627,-24.1236 L 65.128,-24.5974 L 64.9362,-25.0509 L 64.69,-25.4775 L 64.3933,-25.8706
 L 64.0506,-26.2242 L 63.667,-26.5331 L 63.0774,-26.8791 L 62.8993,-26.9641 L 62.7569,-27.0471 L 62.6218,-27.1416
 L 62.4948,-27.2471 L 62.377,-27.3627 L 62.2692,-27.4876 L 62.172,-27.621 L 62.0862,-27.7619 L 62.0123,-27.9095
 L 61.9508,-28.0627 L 61.9023,-28.2203 L 61.8668,-28.3815 L 61.8449,-28.545 L 61.8365,-28.7097 L 61.8418,-28.8749
 L 61.8606,-29.0388 L 61.8929,-29.2005 L 61.9474,-29.3901 L 62.054,-29.8709 L 62.1007,-30.3612 L 62.0868,-30.8535
 L 62.0126,-31.3403 L 61.879,-31.8143 L 61.6882,-32.2684 L 61.4431,-32.6955 L 61.1474,-33.0893 L 60.8054,-33.4438
 L 60.4225,-33.7535 L 60.0045,-34.0139 L 59.3776,-34.2862 L 59.1908,-34.349 L 59.0392,-34.4144 L 58.8935,-34.4921
 L 58.7549,-34.5814 L 58.6241,-34.6819 L 58.5019,-34.7929 L 58.3894,-34.9136 L 58.2872,-35.0432 L 58.196,-35.1808
 L 58.1165,-35.3254 L 58.0494,-35.4759 L 57.9947,-35.6319 L 57.9532,-35.7915 L 57.925,-35.9541 L 57.9104,-36.1185
 L 57.9093,-36.2834 L 57.9219,-36.448 L 57.9531,-36.6427 L 58.001,-37.1328 L 57.9883,-37.6252 L 57.9152,-38.1122
 L 57.7828,-38.5865 L 57.5931,-39.041 L 57.349,-39.4688 L 57.0541,-39.8633 L 56.7131,-40.2185 L 56.3309,-40.5292
 L 55.9135,-40.7905 L 55.4671,-40.9986 L 54.8119,-41.1935 L 54.6189,-41.2333 L 54.4605,-41.2799 L 54.3066,-41.3394
 L 54.1582,-41.4113 L 54.016,-41.4954 L 53.8815,-41.5908 L 53.7553,-41.697 L 53.6382,-41.8134 L 53.5312,-41.939
 L 53.4348,-42.0731 L 53.3499,-42.2145 L 53.277,-42.3625 L 53.2165,-42.516 L 53.1689,-42.674 L 53.1345,-42.8355
 L 53.1136,-42.999 L 53.1063,-43.164 L 53.1138,-43.361 L 53.1022,-43.8534 L 53.0303,-44.3406 L 52.899,-44.8152
 L 52.7104,-45.2702 L 52.4673,-45.6985 L 52.1734,-46.0937 L 51.8331,-46.4497 L 51.4518,-46.7613 L 51.0349,-47.0236
 L 50.5891,-47.2328 L 50.1208,-47.3855 L 49.4471,-47.4999 L 49.2505,-47.5162 L 49.0877,-47.5434 L 48.9279,-47.5838
 L 48.7716,-47.6375 L 48.6207,-47.7037 L 48.4753,-47.7823 L 48.3374,-47.8725 L 48.2071,-47.9739 L 48.0857,-48.0857
 L 47.9739,-48.2071 L 47.8725,-48.3374 L 47.7823,-48.4753 L 47.7037,-48.6207 L 47.6375,-48.7716 L 47.5838,-48.9279
 L 47.5434,-49.0877 L 47.5162,-49.2505 L 47.4999,-49.4471 L 47.4291,-49.9344 L 47.2989,-50.4094 L 47.1114,-50.8648
 L 46.8693,-51.2937 L 46.5763,-51.6895 L 46.2369,-52.0464 L 45.8563,-52.3589 L 45.4401,-52.6222 L 44.9947,-52.8324
 L 44.5269,-52.9862 L 44.0437,-53.0814 L 43.361,-53.1138 L 43.164,-53.1063 L 42.999,-53.1136 L 42.8355,-53.1345
 L 42.674,-53.1689 L 42.516,-53.2165 L 42.3625,-53.277 L 42.2145,-53.3499 L 42.0731,-53.4348 L 41.939,-53.5312
 L 41.8134,-53.6382 L 41.697,-53.7553 L 41.5908,-53.8815 L 41.4954,-54.016 L 41.4113,-54.1582 L 41.3394,-54.3066
 L 41.2799,-54.4605 L 41.2333,-54.6189 L 41.1935,-54.8119 L 41.0644,-55.2872 L 40.878,-55.743 L 40.6369,-56.1725
 L 40.3449,-56.5691 L 40.0064,-56.9267 L 39.6264,-57.2401 L 39.2109,-57.5044 L 38.766,-57.7157 L 38.2985,-57.8707
 L 37.8156,-57.967 L 37.3244,-58.0033 L 36.6427,-57.9531 L 36.448,-57.9219 L 36.2834,-57.9093 L 36.1185,-57.9104
 L 35.9541,-57.925 L 35.7915,-57.9532 L 35.6319,-57.9947 L 35.4759,-58.0494 L 35.3254,-58.1165 L 35.1808,-58.196
 L 35.0432,-58.2872 L 34.9136,-58.3894 L 34.7929,-58.5019 L 34.6819,-58.6241 L 34.5814,-58.7549 L 34.4921,-58.8935
 L 34.4144,-59.0392 L 34.349,-59.1908 L 34.2862,-59.3776 L 34.1009,-59.8339 L 33.8608,-60.2639 L 33.5697,-60.6612
 L 33.2321,-61.0197 L 32.8529,-61.3339 L 32.438,-61.5992 L 31.9936,-61.8115 L 31.5265,-61.9676 L 31.0437,-62.0651
 L 30.5527,-62.1025 L 30.0607,-62.0793 L 29.3901,-61.9474 L 29.2005,-61.8929 L 29.0388,-61.8606 L 28.8749,-61.8418
 L 28.7097,-61.8365 L 28.545,-61.8449 L 28.3815,-61.8668 L 28.2203,-61.9023 L 28.0627,-61.9508 L 27.9095,-62.0123
 L 27.7619,-62.0862 L 27.621,-62.172 L 27.4876,-62.2692 L 27.3627,-62.377 L 27.2472,-62.4948 L 27.1416,-62.6218
 L 27.0471,-62.7569 L 26.9641,-62.8993 L 26.8791,-63.0774 L 26.6401,-63.508 L 26.3499,-63.906 L 26.0131,-64.2653
 L 25.6347,-64.5804 L 25.2204,-64.8467 L 24.7765,-65.0601 L 24.3098,-65.2173 L 23.8273,-65.3159 L 23.3363,-65.3545
 L 22.8443,-65.3324 L 22.3587,-65.2501 L 21.7088,-65.0383 L 21.5272,-64.9614 L 21.3705,-64.9098 L 21.2101,-64.8713
 L 21.0469,-64.8462 L 20.8823,-64.8347 L 20.7174,-64.8368 L 20.553,-64.8525 L 20.3908,-64.8817 L 20.2311,-64.9243
 L 20.0759,-64.9798 L 19.9255,-65.0481 L 19.7816,-65.1283 L 19.6444,-65.2204 L 19.5155,-65.3234 L 19.3955,-65.4368
 L 19.2854,-65.5595 L 19.1857,-65.691 L 19.08,-65.8574 L 18.7908,-66.256 L 18.4548,-66.6161 L 18.0772,-66.9322
 L 17.6635,-67.1994 L 17.2202,-67.4139 L 16.7538,-67.5722 L 16.2715,-67.6719 L 15.7806,-67.7117 L 15.2886,-67.6909
 L 14.8028,-67.6097 L 14.3307,-67.4694 L 13.7111,-67.1808 L 13.5403,-67.0826 L 13.3906,-67.0124 L 13.236,-66.9549
 L 13.0773,-66.9104 L 12.915,-66.879 L 12.751,-66.8612 L 12.5861,-66.857 L 12.4214,-66.8665 L 12.2579,-66.8895
 L 12.0971,-66.9259 L 11.9397,-66.9755 L 11.7868,-67.038 L 11.6398,-67.1128 L 11.4993,-67.1995 L 11.3666,-67.2975
 L 11.2424,-67.4061 L 11.1275,-67.5247 L 11.0026,-67.6771 L 10.6675,-68.038 L 10.2905,-68.3549 L 9.87752,-68.6232
 L 9.43465,-68.8386 L 8.96867,-68.998 L 8.48663,-69.0989 L 7.99585,-69.1398 L 7.50375,-69.1201 L 7.01781,-69.0401
 L 6.54539,-68.901 L 6.09364,-68.7048 L 5.51335,-68.3437 L 5.35542,-68.2255 L 5.21558,-68.1379 L 5.06905,-68.0622
 L 4.91658,-67.9987 L 4.75972,-67.9482 L 4.59874,-67.9107 L 4.43568,-67.8867 L 4.27092,-67.8762 L 4.10588,-67.8793
 L 3.94174,-67.8961 L 3.7796,-67.9263 L 3.62033,-67.9699 L 3.46548,-68.0264 L 3.31546,-68.0957 L 3.17189,-68.1769
 L 3.03554,-68.2698 L 2.90726,-68.3736 L 2.76476,-68.5099 L 2.38858,-68.8277 L 1.97617,-69.097 L 1.53381,-69.3134
 L 1.06822,-69.4739 L 0.586426,-69.576 L 0.0957336,-69.6181 L -0.396393,-69.5995 L -0.882523,-69.5206 L -1.35527,-69.3826
 L -1.80746,-69.1875 L -2.23228,-68.9384 L -2.76476,-68.5099 L -2.90726,-68.3736 L -3.03554,-68.2698 L -3.17189,-68.1769
 L -3.31546,-68.0957 L -3.46548,-68.0264 L -3.62033,-67.9699 L -3.7796,-67.9263 L -3.94174,-67.8961 L -4.10588,-67.8793
 z
M 11.5987,-18.1761 L 11.1214,-18.2874 L 10.675,-18.4896 L 10.2766,-18.7751 L 9.9416,-19.1328 L 9.68282,-19.549
 L 9.51018,-20.0076 L 9.43034,-20.4912 L 9.44638,-20.981 L 9.55766,-21.4583 L 9.75993,-21.9047 L 10.0454,-22.3031
 L 10.4031,-22.6381 L 10.8193,-22.8969 L 11.2779,-23.0695 L 11.7615,-23.1494 L 12.2513,-23.1333 L 12.7286,-23.022
 L 13.175,-22.8198 L 13.5734,-22.5343 L 13.9084,-22.1766 L 14.1672,-21.7604 L 14.3398,-21.3017 L 14.4196,-20.8182
 L 14.4036,-20.3284 L 14.2923,-19.8511 L 14.0901,-19.4047 L 13.8046,-19.0063 L 13.4469,-18.6713 L 13.0307,-18.4125
 L 12.572,-18.2399 L 12.0885,-18.16 z
M -12.572,-18.2399 L -13.0307,-18.4125 L -13.4469,-18.6713 L -13.8046,-19.0063 L -14.0901,-19.4047 L -14.2923,-19.8511
 L -14.4036,-20.3284 L -14.4196,-20.8182 L -14.3398,-21.3017 L -14.1672,-21.7604 L -13.9084,-22.1766 L -13.5734,-22.5343
 L -13.175,-22.8198 L -12.7286,-23.022 L -12.2513,-23.1333 L -11.7615,-23.1494 L -11.2779,-23.0695 L -10.8193,-22.8969
 L -10.4031,-22.6381 L -10.0454,-22.3031 L -9.75993,-21.9047 L -9.55766,-21.4583 L -9.44638,-20.981 L -9.43034,-20.4912
 L -9.51018,-20.0076 L -9.68282,-19.549 L -9.9416,-19.1328 L -10.2766,-18.7751 L -10.675,-18.4896 L -11.1214,-18.2874
 L -11.5987,-18.1761 L -12.0885,-18.16 z
M -0.247726,2.98975 L -0.73645,2.90819 L -1.20508,2.74731 L -1.64084,2.51149 L -2.03183,2.20717 L -2.36742,1.84264
 L -2.63841,1.42784 L -2.83745,0.974091 L -2.95908,0.493774 L -3,-0 L -2.95908,-0.493774 L -2.83745,-0.974091
 L -2.63841,-1.42784 L -2.36742,-1.84264 L -2.03183,-2.20717 L -1.64084,-2.51149 L -1.20508,-2.74731 L -0.73645,-2.90819
 L -0.247726,-2.98975 L 0.247726,-2.98975 L 0.73645,-2.90819 L 1.20508,-2.74731 L 1.64084,-2.51149 L 2.03183,-2.20717
 L 2.36742,-1.84264 L 2.39999,-1.79277 L 2.39999,1.79277 L 2.36742,1.84264 L 2.03183,2.20717 L 1.64084,2.51149
 L 1.20508,2.74731 L 0.73645,2.90819 L 0.247726,2.98975 z
M 23.3623,2.45195 L 22.8933,2.30969 L 22.4611,2.07866 L 22.0822,1.76776 L 21.7713,1.38892 L 21.5403,0.956696
 L 21.398,0.487717 L 21.35,-0 L 21.398,-0.487717 L 21.5403,-0.956696 L 21.7713,-1.38892 L 22.0822,-1.76776
 L 22.4611,-2.07866 L 22.8933,-2.30969 L 23.3623,-2.45195 L 23.85,-2.5 L 24.3377,-2.45195 L 24.8067,-2.30969
 L 25.2389,-2.07866 L 25.6178,-1.76776 L 25.9287,-1.38892 L 26.1597,-0.956696 L 26.302,-0.487717 L 26.35,-0
 L 26.302,0.487717 L 26.1597,0.956696 L 25.9287,1.38892 L 25.6178,1.76776 L 25.2389,2.07866 L 24.8067,2.30969
 L 24.3377,2.45195 L 23.85,2.5 z
M -24.3377,2.45195 L -24.8067,2.30969 L -25.2389,2.07866 L -25.6178,1.76776 L -25.9287,1.38892 L -26.1597,0.956696
 L -26.302,0.487717 L -26.35,-0 L -26.302,-0.487717 L -26.1597,-0.956696 L -25.9287,-1.38892 L -25.6178,-1.76776
 L -25.2389,-2.07866 L -24.8067,-2.30969 L -24.3377,-2.45195 L -23.85,-2.5 L -23.3623,-2.45195 L -22.8933,-2.30969
 L -22.4611,-2.07866 L -22.0822,-1.76776 L -21.7713,-1.38892 L -21.5403,-0.956696 L -21.398,-0.487717 L -21.35,-0
 L -21.398,0.487717 L -21.5403,0.956696 L -21.7713,1.38892 L -22.0822,1.76776 L -22.4611,2.07866 L -22.8933,2.30969
 L -23.3623,2.45195 L -23.85,2.5 z
M -12.2513,23.1333 L -12.7286,23.022 L -13.175,22.8198 L -13.5734,22.5343 L -13.9084,22.1766 L -14.1672,21.7604
 L -14.3398,21.3017 L -14.4196,20.8182 L -14.4036,20.3284 L -14.2923,19.8511 L -14.0901,19.4047 L -13.8046,19.0063
 L -13.4469,18.6713 L -13.0307,18.4125 L -12.572,18.2399 L -12.0885,18.16 L -11.5987,18.1761 L -11.1214,18.2874
 L -10.675,18.4896 L -10.2766,18.7751 L -9.9416,19.1328 L -9.68282,19.549 L -9.51018,20.0076 L -9.43034,20.4912
 L -9.44638,20.981 L -9.55766,21.4583 L -9.75993,21.9047 L -10.0454,22.3031 L -10.4031,22.6381 L -10.8193,22.8969
 L -11.2779,23.0695 L -11.7615,23.1494 z
M 11.2779,23.0695 L 10.8193,22.8969 L 10.4031,22.6381 L 10.0454,22.3031 L 9.75993,21.9047 L 9.55766,21.4583
 L 9.44638,20.981 L 9.43034,20.4912 L 9.51018,20.0076 L 9.68282,19.549 L 9.9416,19.1328 L 10.2766,18.7751
 L 10.675,18.4896 L 11.1214,18.2874 L 11.5987,18.1761 L 12.0885,18.16 L 12.572,18.2399 L 13.0307,18.4125
 L 13.4469,18.6713 L 13.8046,19.0063 L 14.0901,19.4047 L 14.2923,19.8511 L 14.4036,20.3284 L 14.4196,20.8182
 L 14.3398,21.3017 L 14.1672,21.7604 L 13.9084,22.1766 L 13.5734,22.5343 L 13.175,22.8198 L 12.7286,23.022
 L 12.2513,23.1333 L 11.7615,23.1494 z
" stroke="black" fill="lightgray" stroke-width="0.5"/>
</svg>
