<?xml version="1.0" standalone="no"?>
<!DOCTYPE svg PUBLIC "-//W3C//DTD SVG 1.1//EN" "http://www.w3.org/Graphics/SVG/1.1/DTD/svg11.dtd">
<svg width="130mm" height="130mm" viewBox="-65 -65 130 130" xmlns="http://www.w3.org/2000/svg" version="1.1">
<title>OpenSCAD Model</title>
<path d="
M -3.36009,64.4565 L -2.8788,64.3521 L -2.41397,64.1893 L -1.97267,63.9707 L -1.38034,63.5549 L -1.22632,63.4244
 L -1.092,63.3285 L -0.950378,63.2441 L -0.80191,63.1715 L -0.648376,63.1116 L -0.490005,63.0645 L -0.328751,63.0307
 L -0.164871,63.0102 L 0,63.0034 L 0.164871,63.0102 L 0.328751,63.0307 L 0.490005,63.0645 L 0.648376,63.1116
 L 0.80191,63.1715 L 0.950378,63.2441 L 1.092,63.3285 L 1.22632,63.4244 L 1.38034,63.5549 L 1.77502,63.8494
 L 2.20293,64.0932 L 2.65755,64.2826 L 3.13199,64.4147 L 3.61906,64.4875 L 4.11139,64.4999 L 4.60152,64.4516
 L 5.082,64.3436 L 5.54555,64.1773 L 5.98515,63.9552 L 6.39415,63.6809 L 6.92711,63.1912 L 7.06281,63.0418
 L 7.18324,62.9294 L 7.31296,62.827 L 7.45036,62.7358 L 7.59488,62.6563 L 7.74564,62.589 L 7.90132,62.5343
 L 8.06104,62.4927 L 8.22363,62.4644 L 8.38788,62.4496 L 8.55304,62.4485 L 8.71747,62.461 L 8.88036,62.487
 L 9.04074,62.5265 L 9.1972,62.579 L 9.34863,62.6442 L 9.4944,62.7218 L 9.66423,62.831 L 10.094,63.0715
 L 10.5501,63.2574 L 11.0255,63.3858 L 11.5132,63.4548 L 12.0056,63.4634 L 12.4953,63.4114 L 12.9749,63.2996
 L 13.4372,63.1297 L 13.875,62.9043 L 14.2819,62.6268 L 14.6516,62.3013 L 15.1159,61.7465 L 15.231,61.5806
 L 15.3358,61.4533 L 15.4508,61.3351 L 15.5754,61.2266 L 15.7083,61.1289 L 15.8489,61.0425 L 15.996,60.968
 L 16.1491,60.9059 L 16.3064,60.8566 L 16.4675,60.8205 L 16.6309,60.7979 L 16.7959,60.7888 L 16.9606,60.7933
 L 17.1248,60.8115 L 17.2865,60.8431 L 17.4455,60.888 L 17.6001,60.9459 L 17.7826,61.032 L 18.2401,61.2144
 L 18.7165,61.3392 L 19.2047,61.4044 L 19.6971,61.4092 L 20.1864,61.3534 L 20.6652,61.2379 L 21.1261,61.0645
 L 21.5623,60.8357 L 21.967,60.5551 L 22.3341,60.2269 L 22.6581,59.856 L 23.0461,59.2453 L 23.1385,59.0658
 L 23.2258,58.926 L 23.3246,58.7935 L 23.4337,58.6699 L 23.5529,58.5556 L 23.681,58.4515 L 23.8171,58.3585
 L 23.9607,58.2769 L 24.1103,58.2076 L 24.2654,58.1508 L 24.4243,58.107 L 24.5866,58.0764 L 24.7507,58.0594
 L 24.9157,58.056 L 25.0803,58.0662 L 25.2437,58.09 L 25.4046,58.1272 L 25.5967,58.1888 L 26.0741,58.3099
 L 26.5627,58.3714 L 27.0552,58.3724 L 27.5441,58.3129 L 28.0219,58.1937 L 28.4815,58.0167 L 28.9158,57.7846
 L 29.3184,57.5009 L 29.683,57.1698 L 30.0042,56.7965 L 30.277,56.3865 L 30.582,55.7304 L 30.6501,55.5404
 L 30.7185,55.3902 L 30.799,55.2462 L 30.8912,55.1092 L 30.9945,54.9803 L 31.1077,54.8606 L 31.2307,54.7505
 L 31.3624,54.6508 L 31.5016,54.5626 L 31.648,54.486 L 31.7998,54.4219 L 31.9567,54.3704 L 32.1172,54.3321
 L 32.2804,54.3072 L 32.4451,54.2958 L 32.61,54.2981 L 32.7741,54.314 L 32.9729,54.35 L 33.462,54.4077
 L 33.9545,54.4049 L 34.4429,54.3416 L 34.9198,54.2187 L 35.378,54.0382 L 35.8106,53.8028 L 36.2109,53.5159
 L 36.573,53.1821 L 36.8913,52.8063 L 37.1609,52.3942 L 37.378,51.9521 L 37.5946,51.2618 L 37.6374,51.0645
 L 37.6856,50.9068 L 37.7467,50.7533 L 37.8201,50.6057 L 37.9057,50.4643 L 38.0023,50.3308 L 38.1099,50.2056
 L 38.2274,50.0898 L 38.354,49.984 L 38.489,49.889 L 38.6314,49.8055 L 38.7801,49.734 L 38.9341,49.6752
 L 39.0928,49.6291 L 39.2543,49.5964 L 39.4183,49.5771 L 39.5832,49.5714 L 39.7847,49.5812 L 40.2772,49.5746
 L 40.7651,49.5076 L 41.2411,49.3811 L 41.6979,49.197 L 42.1286,48.9583 L 42.5267,48.6684 L 42.8862,48.3318
 L 43.2016,47.9535 L 43.4682,47.5394 L 43.6818,47.0957 L 43.8392,46.629 L 43.964,45.9162 L 43.9807,45.7151
 L 44.0078,45.5522 L 44.0483,45.3923 L 44.102,45.2361 L 44.1683,45.085 L 44.2467,44.94 L 44.337,44.8018
 L 44.4384,44.6715 L 44.5501,44.5501 L 44.6715,44.4384 L 44.8018,44.337 L 44.94,44.2467 L 45.085,44.1683
 L 45.2361,44.102 L 45.3923,44.0483 L 45.5522,44.0078 L 45.7151,43.9807 L 45.9162,43.964 L 46.4035,43.8932
 L 46.8785,43.763 L 47.3339,43.5755 L 47.7628,43.3334 L 48.1586,43.0404 L 48.5155,42.701 L 48.828,42.3204
 L 49.0913,41.9042 L 49.3015,41.4588 L 49.4553,40.991 L 49.5505,40.5078 L 49.5812,39.7847 L 49.5714,39.5832
 L 49.5771,39.4183 L 49.5964,39.2543 L 49.6291,39.0928 L 49.6752,38.9341 L 49.734,38.7801 L 49.8055,38.6314
 L 49.889,38.489 L 49.984,38.354 L 50.0898,38.2274 L 50.2056,38.1099 L 50.3308,38.0023 L 50.4643,37.9057
 L 50.6057,37.8201 L 50.7533,37.7467 L 50.9068,37.6856 L 51.0645,37.6374 L 51.2618,37.5946 L 51.7358,37.4608
 L 52.1897,37.2697 L 52.6167,37.0244 L 53.0103,36.7284 L 53.3645,36.3862 L 53.6741,36.0032 L 53.9342,35.585
 L 54.1409,35.138 L 54.2912,34.669 L 54.3826,34.1851 L 54.4139,33.6936 L 54.35,32.9729 L 54.314,32.7741
 L 54.2981,32.6101 L 54.2958,32.4451 L 54.3072,32.2804 L 54.3321,32.1172 L 54.3704,31.9567 L 54.4219,31.7998
 L 54.486,31.648 L 54.5626,31.5016 L 54.6508,31.3624 L 54.7505,31.2307 L 54.8606,31.1077 L 54.9803,30.9945
 L 55.1092,30.8912 L 55.2462,30.799 L 55.3902,30.7185 L 55.5404,30.6501 L 55.7304,30.582 L 56.1828,30.3874
 L 56.6079,30.1388 L 56.9992,29.8397 L 57.3508,29.4949 L 57.6574,29.1095 L 57.9143,28.6893 L 58.1175,28.2407
 L 58.2642,27.7705 L 58.3519,27.2859 L 58.3794,26.7942 L 58.3463,26.3028 L 58.1888,25.5967 L 58.1272,25.4046
 L 58.09,25.2437 L 58.0662,25.0803 L 58.056,24.9157 L 58.0594,24.7507 L 58.0764,24.5866 L 58.107,24.4243
 L 58.1508,24.2654 L 58.2076,24.1103 L 58.2769,23.9607 L 58.3585,23.8171 L 58.4515,23.681 L 58.5556,23.5529
 L 58.6699,23.4337 L 58.7935,23.3246 L 58.926,23.2258 L 59.0658,23.1385 L 59.2453,23.0461 L 59.6684,22.7942
 L 60.0574,22.4922 L 60.4064,22.1446 L 60.71,21.7569 L 60.9636,21.3347 L 61.1635,20.8846 L 61.3065,20.4133
 L 61.3905,19.9281 L 61.4142,19.4361 L 61.3773,18.945 L 61.2804,18.4622 L 61.032,17.7826 L 60.9459,17.6001
 L 60.888,17.4455 L 60.8431,17.2865 L 60.8115,17.1248 L 60.7933,16.9606 L 60.7888,16.7959 L 60.7979,16.6309
 L 60.8205,16.4675 L 60.8566,16.3064 L 60.9059,16.1491 L 60.968,15.996 L 61.0425,15.8489 L 61.1289,15.7083
 L 61.2266,15.5754 L 61.3351,15.4508 L 61.4533,15.3358 L 61.5806,15.231 L 61.7465,15.1159 L 62.1332,14.8109
 L 62.4794,14.4607 L 62.78,14.0706 L 63.0304,13.6465 L 63.2268,13.1949 L 63.3662,12.7225 L 63.4465,12.2366
 L 63.4664,11.7445 L 63.4258,11.2537 L 63.3251,10.7716 L 63.1659,10.3056 L 62.831,9.66423 L 62.7218,9.4944
 L 62.6442,9.34863 L 62.579,9.1972 L 62.5265,9.04074 L 62.487,8.88036 L 62.461,8.71747 L 62.4485,8.55304
 L 62.4496,8.38794 L 62.4644,8.22363 L 62.4927,8.06104 L 62.5343,7.90132 L 62.589,7.74564 L 62.6563,7.59488
 L 62.7358,7.45036 L 62.827,7.31296 L 62.9294,7.18324 L 63.0418,7.06281 L 63.1912,6.92711 L 63.5348,6.57425
 L 63.8324,6.18185 L 64.0795,5.75584 L 64.2724,5.3027 L 64.4082,4.8293 L 64.4847,4.3428 L 64.5009,3.85057
 L 64.4565,3.36009 L 64.3521,2.8788 L 64.1893,2.41397 L 63.9707,1.97267 L 63.5549,1.38034 L 63.4244,1.22632
 L 63.3285,1.092 L 63.2441,0.950378 L 63.1715,0.80191 L 63.1116,0.648376 L 63.0645,0.490005 L 63.0307,0.328751
 L 63.0102,0.164871 L 63.0034,-0 L 63.0102,-0.164871 L 63.0307,-0.328751 L 63.0645,-0.490005 L 63.1116,-0.648376
 L 63.1715,-0.80191 L 63.2441,-0.950378 L 63.3285,-1.092 L 63.4244,-1.22632 L 63.5549,-1.38034 L 63.8494,-1.77502
 L 64.0932,-2.20293 L 64.2826,-2.65755 L 64.4147,-3.13199 L 64.4875,-3.61906 L 64.4999,-4.11139 L 64.4516,-4.60152
 L 64.3436,-5.082 L 64.1773,-5.54555 L 63.9552,-5.98515 L 63.6809,-6.39415 L 63.1912,-6.92711 L 63.0418,-7.06281
 L 62.9294,-7.18324 L 62.827,-7.31296 L 62.7358,-7.45036 L 62.6563,-7.59488 L 62.589,-7.74564 L 62.5343,-7.90132
 L 62.4927,-8.06104 L 62.4644,-8.22363 L 62.4496,-8.38788 L 62.4485,-8.55304 L 62.461,-8.71747 L 62.487,-8.88036
 L 62.5265,-9.04074 L 62.579,-9.1972 L 62.6442,-9.34863 L 62.7218,-9.4944 L 62.831,-9.66423 L 63.0715,-10.094
 L 63.2574,-10.5501 L 63.3858,-11.0255 L 63.4548,-11.5132 L 63.4634,-12.0056 L 63.4114,-12.4953 L 63.2996,-12.9749
 L 63.1297,-13.4372 L 62.9043,-13.875 L 62.6268,-14.2819 L 62.3013,-14.6516 L 61.7465,-15.1159 L 61.5806,-15.231
 L 61.4533,-15.3358 L 61.3351,-15.4508 L 61.2266,-15.5754 L 61.1289,-15.7083 L 61.0425,-15.8489 L 60.968,-15.996
 L 60.9059,-16.1491 L 60.8566,-16.3064 L 60.8205,-16.4675 L 60.7979,-16.6309 L 60.7888,-16.7959 L 60.7933,-16.9606
 L 60.8115,-17.1248 L 60.8431,-17.2865 L 60.888,-17.4455 L 60.9459,-17.6001 L 61.032,-17.7826 L 61.2144,-18.2401
 L 61.3392,-18.7165 L 61.4044,-19.2047 L 61.4092,-19.6971 L 61.3534,-20.1864 L 61.2379,-20.6652 L 61.0645,-21.1261
 L 60.8357,-21.5623 L 60.5551,-21.967 L 60.2269,-22.3341 L 59.856,-22.6581 L 59.2453,-23.0461 L 59.0658,-23.1385
 L 58.926,-23.2258 L 58.7935,-23.3246 L 58.6699,-23.4337 L 58.5556,-23.5529 L 58.4515,-23.681 L 58.3585,-23.8171
 L 58.2769,-23.9607 L 58.2076,-24.1103 L 58.1508,-24.2654 L 58.107,-24.4243 L 58.0764,-24.5866 L 58.0594,-24.7507
 L 58.056,-24.9157 L 58.0662,-25.0803 L 58.09,-25.2437 L 58.1272,-25.4046 L 58.1888,-25.5967 L 58.3099,-26.0741
 L 58.3714,-26.5627 L 58.3724,-27.0552 L 58.3129,-27.5441 L 58.1937,-28.0219 L 58.0167,-28.4815 L 57.7846,-28.9158
 L 57.5009,-29.3184 L 57.1698,-29.683 L 56.7965,-30.0042 L 56.3865,-30.277 L 55.7304,-30.582 L 55.5404,-30.6501
 L 55.3902,-30.7185 L 55.2462,-30.799 L 55.1092,-30.8912 L 54.9803,-30.9945 L 54.8606,-31.1077 L 54.7505,-31.2307
 L 54.6508,-31.3624 L 54.5626,-31.5016 L 54.486,-31.648 L 54.4219,-31.7998 L 54.3704,-31.9567 L 54.3321,-32.1172
 L 54.3072,-32.2804 L 54.2958,-32.4451 L 54.2981,-32.61 L 54.314,-32.7741 L 54.35,-32.9729 L 54.4077,-33.462
 L 54.4049,-33.9545 L 54.3416,-34.4429 L 54.2187,-34.9198 L 54.0382,-35.378 L 53.8028,-35.8106 L 53.5159,-36.2109
 L 53.1821,-36.573 L 52.8063,-36.8913 L 52.3942,-37.1609 L 51.9521,-37.378 L 51.2618,-37.5946 L 51.0645,-37.6374
 L 50.9068,-37.6856 L 50.7533,-37.7467 L 50.6057,-37.8201 L 50.4643,-37.9057 L 50.3308,-38.0023 L 50.2056,-38.1099
 L 50.0898,-38.2274 L 49.984,-38.354 L 49.889,-38.489 L 49.8055,-38.6314 L 49.734,-38.7801 L 49.6752,-38.9341
 L 49.6291,-39.0928 L 49.5964,-39.2543 L 49.5771,-39.4183 L 49.5714,-39.5832 L 49.5812,-39.7847 L 49.5746,-40.2772
 L 49.5076,-40.7651 L 49.3811,-41.2411 L 49.197,-41.6979 L 48.9583,-42.1286 L 48.6684,-42.5267 L 48.3318,-42.8862
 L 47.9535,-43.2016 L 47.5394,-43.4682 L 47.0957,-43.6818 L 46.629,-43.8392 L 45.9162,-43.964 L 45.7151,-43.9807
 L 45.5522,-44.0078 L 45.3923,-44.0483 L 45.2361,-44.102 L 45.085,-44.1683 L 44.94,-44.2467 L 44.8018,-44.337
 L 44.6715,-44.4384 L 44.5501,-44.5501 L 44.4384,-44.6715 L 44.337,-44.8018 L 44.2467,-44.94 L 44.1683,-45.085
 L 44.102,-45.2361 L 44.0483,-45.3923 L 44.0078,-45.5522 L 43.9807,-45.7151 L 43.964,-45.9162 L 43.8932,-46.4035
 L 43.763,-46.8785 L 43.5755,-47.3339 L 43.3334,-47.7628 L 43.0404,-48.1586 L 42.701,-48.5155 L 42.3204,-48.828
 L 41.9042,-49.0913 L 41.4588,-49.3015 L 40.991,-49.4553 L 40.5078,-49.5505 L 39.7847,-49.5812 L 39.5832,-49.5714
 L 39.4183,-49.5771 L 39.2543,-49.5964 L 39.0928,-49.6291 L 38.9341,-49.6752 L 38.7801,-49.734 L 38.6314,-49.8055
 L 38.489,-49.889 L 38.354,-49.984 L 38.2274,-50.0898 L 38.1099,-50.2056 L 38.0023,-50.3308 L 37.9057,-50.4643
 L 37.8201,-50.6057 L 37.7467,-50.7533 L 37.6856,-50.9068 L 37.6374,-51.0645 L 37.5946,-51.2618 L 37.4608,-51.7358
 L 37.2697,-52.1897 L 37.0244,-52.6167 L 36.7284,-53.0103 L 36.3862,-53.3645 L 36.0032,-53.6741 L 35.585,-53.9342
 L 35.138,-54.1409 L 34.669,-54.2912 L 34.1851,-54.3826 L 33.6936,-54.4139 L 32.9729,-54.35 L 32.7741,-54.314
 L 32.61,-54.2981 L 32.4451,-54.2958 L 32.2804,-54.3072 L 32.1172,-54.3321 L 31.9567,-54.3704 L 31.7998,-54.4219
 L 31.648,-54.486 L 31.5016,-54.5626 L 31.3624,-54.6508 L 31.2307,-54.7505 L 31.1077,-54.8606 L 30.9945,-54.9803
 L 30.8912,-55.1092 L 30.799,-55.2462 L 30.7185,-55.3902 L 30.6501,-55.5404 L 30.582,-55.7304 L 30.3874,-56.1828
 L 30.1388,-56.6079 L 29.8397,-56.9992 L 29.4949,-57.3508 L 29.1095,-57.6574 L 28.6893,-57.9143 L 28.2407,-58.1175
 L 27.7705,-58.2642 L 27.2859,-58.3519 L 26.7942,-58.3794 L 26.3028,-58.3463 L 25.5967,-58.1888 L 25.4046,-58.1272
 L 25.2437,-58.09 L 25.0803,-58.0662 L 24.9157,-58.056 L 24.7507,-58.0594 L 24.5866,-58.0764 L 24.4243,-58.107
 L 24.2654,-58.1508 L 24.1103,-58.2076 L 23.9607,-58.2769 L 23.8171,-58.3585 L 23.681,-58.4515 L 23.5529,-58.5556
 L 23.4337,-58.6699 L 23.3246,-58.7935 L 23.2258,-58.926 L 23.1385,-59.0658 L 23.0461,-59.2453 L 22.7942,-59.6684
 L 22.4922,-60.0574 L 22.1446,-60.4064 L 21.7569,-60.71 L 21.3347,-60.9636 L 20.8846,-61.1635 L 20.4133,-61.3065
 L 19.9281,-61.3905 L 19.4361,-61.4142 L 18.945,-61.3773 L 18.4622,-61.2804 L 17.7826,-61.032 L 17.6001,-60.9459
 L 17.4455,-60.888 L 17.2865,-60.8431 L 17.1248,-60.8115 L 16.9606,-60.7933 L 16.7959,-60.7888 L 16.6309,-60.7979
 L 16.4675,-60.8205 L 16.3064,-60.8566 L 16.1491,-60.9059 L 15.996,-60.968 L 15.8489,-61.0425 L 15.7083,-61.1289
 L 15.5754,-61.2266 L 15.4508,-61.3351 L 15.3358,-61.4533 L 15.231,-61.5806 L 15.1159,-61.7465 L 14.8109,-62.1332
 L 14.4607,-62.4794 L 14.0706,-62.78 L 13.6465,-63.0304 L 13.1949,-63.2268 L 12.7225,-63.3662 L 12.2366,-63.4465
 L 11.7445,-63.4664 L 11.2537,-63.4258 L 10.7716,-63.3251 L 10.3056,-63.1659 L 9.66423,-62.831 L 9.4944,-62.7218
 L 9.34863,-62.6442 L 9.1972,-62.579 L 9.04074,-62.5265 L 8.88036,-62.487 L 8.71747,-62.461 L 8.55304,-62.4485
 L 8.38788,-62.4496 L 8.22363,-62.4644 L 8.06104,-62.4927 L 7.90132,-62.5343 L 7.74564,-62.589 L 7.59488,-62.6563
 L 7.45036,-62.7358 L 7.31296,-62.827 L 7.18324,-62.9294 L 7.06281,-63.0418 L 6.92711,-63.1912 L 6.57425,-63.5348
 L 6.18185,-63.8324 L 5.75584,-64.0795 L 5.3027,-64.2724 L 4.8293,-64.4082 L 4.3428,-64.4847 L 3.85057,-64.5009
 L 3.36009,-64.4565 L 2.8788,-64.3521 L 2.41397,-64.1893 L 1.97267,-63.9707 L 1.38034,-63.5549 L 1.22632,-63.4244
 L 1.092,-63.3285 L 0.950378,-63.2441 L 0.80191,-63.1715 L 0.648376,-63.1116 L 0.490005,-63.0645 L 0.328751,-63.0307
 L 0.164871,-63.0102 L 0,-63.0034 L -0.164871,-63.0102 L -0.328751,-63.0307 L -0.490005,-63.0645 L -0.648376,-63.1116
 L -0.80191,-63.1715 L -0.950378,-63.2441 L -1.092,-63.3285 L -1.22632,-63.4244 L -1.38034,-63.5549 L -1.77502,-63.8494
 L -2.20293,-64.0932 L -2.65755,-64.2826 L -3.13199,-64.4147 L -3.61906,-64.4875 L -4.11139,-64.4999 L -4.60152,-64.4516
 L -5.082,-64.3436 L -5.54555,-64.1773 L -5.98515,-63.9552 L -6.39415,-63.6809 L -6.92711,-63.1912 L -7.06281,-63.0418
 L -7.18324,-62.9294 L -7.31296,-62.827 L -7.45036,-62.7358 L -7.59488,-62.6563 L -7.74564,-62.589 L -7.90132,-62.5343
 L -8.06104,-62.4927 L -8.22363,-62.4644 L -8.38788,-62.4496 L -8.55304,-62.4485 L -8.71747,-62.461 L -8.88036,-62.487
 L -9.04074,-62.5265 L -9.1972,-62.579 L -9.34863,-62.6442 L -9.4944,-62.7218 L -9.66423,-62.831 L -10.094,-63.0715
 L -10.5501,-63.2574 L -11.0255,-63.3858 L -11.5132,-63.4548 L -12.0056,-63.4634 L -12.4953,-63.4114 L -12.9749,-63.2996
 L -13.4372,-63.1297 L -13.875,-62.9043 L -14.2819,-62.6268 L -14.6516,-62.3013 L -15.1159,-61.7465 L -15.231,-61.5806
 L -15.3358,-61.4533 L -15.4508,-61.3351 L -15.5754,-61.2266 L -15.7083,-61.1289 L -15.8489,-61.0425 L -15.996,-60.968
 L -16.1491,-60.9059 L -16.3064,-60.8566 L -16.4675,-60.8205 L -16.6309,-60.7979 L -16.7959,-60.7888 L -16.9606,-60.7933
 L -17.1248,-60.8115 L -17.2865,-60.8431 L -17.4455,-60.888 L -17.6001,-60.9459 L -17.7826,-61.032 L -18.2401,-61.2144
 L -18.7165,-61.3392 L -19.2047,-61.4044 L -19.6971,-61.4092 L -20.1864,-61.3534 L -20.6652,-61.2379 L -21.1261,-61.0645
 L -21.5623,-60.8357 L -21.967,-60.5551 L -22.3341,-60.2269 L -22.6581,-59.856 L -23.0461,-59.2453 L -23.1385,-59.0658
 L -23.2258,-58.926 L -23.3246,-58.7935 L -23.4337,-58.6699 L -23.5529,-58.5556 L -23.681,-58.4515 L -23.8171,-58.3585
 L -23.9607,-58.2769 L -24.1103,-58.2076 L -24.2654,-58.1508 L -24.4243,-58.107 L -24.5866,-58.0764 L -24.7507,-58.0594
 L -24.9157,-58.056 L -25.0803,-58.0662 L -25.2437,-58.09 L -25.4046,-58.1272 L -25.5967,-58.1888 L -26.0741,-58.3099
 L -26.5627,-58.3714 L -27.0552,-58.3724 L -27.5441,-58.3129 L -28.0219,-58.1937 L -28.4815,-58.0167 L -28.9158,-57.7846
 L -29.3184,-57.5009 L -29.683,-57.1698 L -30.0042,-56.7965 L -30.277,-56.3865 L -30.582,-55.7304 L -30.6501,-55.5404
 L -30.7185,-55.3902 L -30.799,-55.2462 L -30.8912,-55.1092 L -30.9945,-54.9803 L -31.1077,-54.8606 L -31.2307,-54.7505
 L -31.3624,-54.6508 L -31.5016,-54.5626 L -31.648,-54.486 L -31.7998,-54.4219 L -31.9567,-54.3704 L -32.1172,-54.3321
 L -32.2804,-54.3072 L -32.4451,-54.2958 L -32.61,-54.2981 L -32.7741,-54.314 L -32.9729,-54.35 L -33.462,-54.4077
 L -33.9545,-54.4049 L -34.4429,-54.3416 L -34.9198,-54.2187 L -35.378,-54.0382 L -35.8106,-53.8028 L -36.2109,-53.5159
 L -36.573,-53.1821 L -36.8913,-52.8063 L -37.1609,-52.3942 L -37.378,-51.9521 L -37.5946,-51.2618 L -37.6374,-51.0645
 L -37.6856,-50.9068 L -37.7467,-50.7533 L -37.8201,-50.6057 L -37.9057,-50.4643 L -38.0023,-50.3308 L -38.1099,-50.2056
 L -38.2274,-50.0898 L -38.354,-49.984 L -38.489,-49.889 L -38.6314,-49.8055 L -38.7801,-49.734 L -38.9341,-49.6752
 L -39.0928,-49.6291 L -39.2543,-49.5964 L -39.4183,-49.5771 L -39.5832,-49.5714 L -39.7847,-49.5812 L -40.2772,-49.5746
 L -40.7651,-49.5076 L -41.2411,-49.3811 L -41.6979,-49.197 L -42.1286,-48.9583 L -42.5267,-48.6684 L -42.8862,-48.3318
 L -43.2016,-47.9535 L -43.4682,-47.5394 L -43.6818,-47.0957 L -43.8392,-46.629 L -43.964,-45.9162 L -43.9807,-45.7151
 L -44.0078,-45.5522 L -44.0483,-45.3923 L -44.102,-45.2361 L -44.1683,-45.085 L -44.2467,-44.94 L -44.337,-44.8018
 L -44.4384,-44.6715 L -44.5501,-44.5501 L -44.6715,-44.4384 L -44.8018,-44.337 L -44.94,-44.2467 L -45.085,-44.1683
 L -45.2361,-44.102 L -45.3923,-44.0483 L -45.5522,-44.0078 L -45.7151,-43.9807 L -45.9162,-43.964 L -46.4035,-43.8932
 L -46.8785,-43.763 L -47.3339,-43.5755 L -47.7628,-43.3334 L -48.1586,-43.0404 L -48.5155,-42.701 L -48.828,-42.3204
 L -49.0913,-41.9042 L -49.3015,-41.4588 L -49.4553,-40.991 L -49.5505,-40.5078 L -49.5812,-39.7847 L -49.5714,-39.5832
 L -49.5771,-39.4183 L -49.5964,-39.2543 L -49.6291,-39.0928 L -49.6752,-38.9341 L -49.734,-38.7801 L -49.8055,-38.6314
 L -49.889,-38.489 L -49.984,-38.354 L -50.0898,-38.2274 L -50.2056,-38.1099 L -50.3308,-38.0023 L -50.4643,-37.9057
 L -50.6057,-37.8201 L -50.7533,-37.7467 L -50.9068,-37.6856 L -51.0645,-37.6374 L -51.2618,-37.5946 L -51.7358,-37.4608
 L -52.1897,-37.2697 L -52.6167,-37.0244 L -53.0103,-36.7284 L -53.3645,-36.3862 L -53.6741,-36.0032 L -53.9342,-35.585
 L -54.1409,-35.138 L -54.2912,-34.669 L -54.3826,-34.1851 L -54.4139,-33.6936 L -54.35,-32.9729 L -54.314,-32.7741
 L -54.2981,-32.61 L -54.2958,-32.4451 L -54.3072,-32.2804 L -54.3321,-32.1172 L -54.3704,-31.9567 L -54.4219,-31.7998
 L -54.486,-31.648 L -54.5626,-31.5016 L -54.6508,-31.3624 L -54.7505,-31.2307 L -54.8606,-31.1077 L -54.9803,-30.9945
 L -55.1092,-30.8912 L -55.2462,-30.799 L -55.3902,-30.7185 L -55.5404,-30.6501 L -55.7304,-30.582 L -56.1828,-30.3874
 L -56.6079,-30.1388 L -56.9992,-29.8397 L -57.3508,-29.4949 L -57.6574,-29.1095 L -57.9143,-28.6893 L -58.1175,-28.2407
 L -58.2642,-27.7705 L -58.3519,-27.2859 L -58.3794,-26.7942 L -58.3463,-26.3028 L -58.1888,-25.5967 L -58.1272,-25.4046
 L -58.09,-25.2437 L -58.0662,-25.0803 L -58.056,-24.9157 L -58.0594,-24.7507 L -58.0764,-24.5866 L -58.107,-24.4243
 L -58.1508,-24.2654 L -58.2076,-24.1103 L -58.2769,-23.9607 L -58.3585,-23.8171 L -58.4515,-23.681 L -58.5556,-23.5529
 L -58.6699,-23.4337 L -58.7935,-23.3246 L -58.926,-23.2258 L -59.0658,-23.1385 L -59.2453,-23.0461 L -59.6684,-22.7942
 L -60.0574,-22.4922 L -60.4064,-22.1446 L -60.71,-21.7569 L -60.9636,-21.3347 L -61.1635,-20.8846 L -61.3065,-20.4133
 L -61.3905,-19.9281 L -61.4142,-19.4361 L -61.3773,-18.945 L -61.2804,-18.4622 L -61.032,-17.7826 L -60.9459,-17.6001
 L -60.888,-17.4455 L -60.8431,-17.2865 L -60.8115,-17.1248 L -60.7933,-16.9606 L -60.7888,-16.7959 L -60.7979,-16.6309
 L -60.8205,-16.4675 L -60.8566,-16.3064 L -60.9059,-16.1491 L -60.968,-15.996 L -61.0425,-15.8489 L -61.1289,-15.7083
 L -61.2266,-15.5754 L -61.3351,-15.4508 L -61.4533,-15.3358 L -61.5806,-15.231 L -61.7465,-15.1159 L -62.1332,-14.8109
 L -62.4794,-14.4607 L -62.78,-14.0706 L -63.0304,-13.6465 L -63.2268,-13.1949 L -63.3662,-12.7225 L -63.4465,-12.2366
 L -63.4664,-11.7445 L -63.4258,-11.2537 L -63.3251,-10.7716 L -63.1659,-10.3056 L -62.831,-9.66423 L -62.7218,-9.4944
 L -62.6442,-9.34863 L -62.579,-9.1972 L -62.5265,-9.04074 L -62.487,-8.88036 L -62.461,-8.71747 L -62.4485,-8.55304
 L -62.4496,-8.38788 L -62.4644,-8.22363 L -62.4927,-8.06104 L -62.5343,-7.90132 L -62.589,-7.74564 L -62.6563,-7.59488
 L -62.7358,-7.45036 L -62.827,-7.31296 L -62.9294,-7.18324 L -63.0418,-7.06281 L -63.1912,-6.92711 L -63.5348,-6.57425
 L -63.8324,-6.18185 L -64.0795,-5.75584 L -64.2724,-5.3027 L -64.4082,-4.8293 L -64.4847,-4.3428 L -64.5009,-3.85057
 L -64.4565,-3.36009 L -64.3521,-2.8788 L -64.1893,-2.41397 L -63.9707,-1.97267 L -63.5549,-1.38034 L -63.4244,-1.22632
 L -63.3285,-1.092 L -63.2441,-0.950378 L -63.1715,-0.80191 L -63.1116,-0.648376 L -63.0645,-0.490005 L -63.0307,-0.328751
 L -63.0102,-0.164871 L -63.0034,-0 L -63.0102,0.164871 L -63.0307,0.328751 L -63.0645,0.490005 L -63.1116,0.648376
 L -63.1715,0.80191 L -63.2441,0.950378 L -63.3285,1.092 L -63.4244,1.22632 L -63.5549,1.38034 L -63.8494,1.77502
 L -64.0932,2.20293 L -64.2826,2.65755 L -64.4147,3.13199 L -64.4875,3.61906 L -64.4999,4.11139 L -64.4516,4.60152
 L -64.3436,5.082 L -64.1773,5.54555 L -63.9552,5.98515 L -63.6809,6.39415 L -63.1912,6.92711 L -63.0418,7.06281
 L -62.9294,7.18324 L -62.827,7.31296 L -62.7358,7.45036 L -62.6563,7.59488 L -62.589,7.74564 L -62.5343,7.90132
 L -62.4927,8.06104 L -62.4644,8.22363 L -62.4496,8.38794 L -62.4485,8.55304 L -62.461,8.71747 L -62.487,8.88036
 L -62.5265,9.04074 L -62.579,9.1972 L -62.6442,9.34863 L -62.7218,9.4944 L -62.831,9.66423 L -63.0715,10.094
 L -63.2574,10.5501 L -63.3858,11.0255 L -63.4548,11.5132 L -63.4634,12.0056 L -63.4114,12.4953 L -63.2996,12.9749
 L -63.1297,13.4372 L -62.9043,13.875 L -62.6268,14.2819 L -62.3013,14.6516 L -61.7465,15.1159 L -61.5806,15.231
 L -61.4533,15.3358 L -61.3351,15.4508 L -61.2266,15.5754 L -61.1289,15.7083 L -61.0425,15.8489 L -60.968,15.996
 L -60.9059,16.1491 L -60.8566,16.3064 L -60.8205,16.4675 L -60.7979,16.6309 L -60.7888,16.7959 L -60.7933,16.9606
 L -60.8115,17.1248 L -60.8431,17.2865 L -60.888,17.4455 L -60.9459,17.6001 L -61.032,17.7826 L -61.2144,18.2401
 L -61.3392,18.7165 L -61.4044,19.2047 L -61.4092,19.6971 L -61.3534,20.1864 L -61.2379,20.6652 L -61.0645,21.1261
 L -60.8357,21.5623 L -60.5551,21.967 L -60.2269,22.3341 L -59.856,22.6581 L -59.2453,23.0461 L -59.0658,23.1385
 L -58.926,23.2258 L -58.7935,23.3246 L -58.6699,23.4337 L -58.5556,23.5529 L -58.4515,23.681 L -58.3585,23.8171
 L -58.2769,23.9607 L -58.2076,24.1103 L -58.1508,24.2654 L -58.107,24.4243 L -58.0764,24.5866 L -58.0594,24.7507
 L -58.056,24.9157 L -58.0662,25.0803 L -58.09,25.2437 L -58.1272,25.4046 L -58.1888,25.5967 L -58.3099,26.0741
 L -58.3714,26.5627 L -58.3724,27.0552 L -58.3129,27.5441 L -58.1937,28.0219 L -58.0167,28.4815 L -57.7846,28.9158
 L -57.5009,29.3184 L -57.1698,29.683 L -56.7965,30.0042 L -56.3865,30.277 L -55.7304,30.582 L -55.5404,30.6501
 L -55.3902,30.7185 L -55.2462,30.799 L -55.1092,30.8912 L -54.9803,30.9945 L -54.8606,31.1077 L -54.7505,31.2307
 L -54.6508,31.3624 L -54.5626,31.5016 L -54.486,31.648 L -54.4219,31.7998 L -54.3704,31.9567 L -54.3321,32.1172
 L -54.3072,32.2804 L -54.2958,32.4451 L -54.2981,32.6101 L -54.314,32.7741 L -54.35,32.9729 L -54.4077,33.462
 L -54.4049,33.9545 L -54.3416,34.4429 L -54.2187,34.9198 L -54.0382,35.378 L -53.8028,35.8106 L -53.5159,36.2109
 L -53.1821,36.573 L -52.8063,36.8913 L -52.3942,37.1609 L -51.9521,37.378 L -51.2618,37.5946 L -51.0645,37.6374
 L -50.9068,37.6856 L -50.7533,37.7467 L -50.6057,37.8201 L -50.4643,37.9057 L -50.3308,38.0023 L -50.2056,38.1099
 L -50.0898,38.2274 L -49.984,38.354 L -49.889,38.489 L -49.8055,38.6314 L -49.734,38.7801 L -49.6752,38.9341
 L -49.6291,39.0928 L -49.5964,39.2543 L -49.5771,39.4183 L -49.5714,39.5832 L -49.5812,39.7847 L -49.5746,40.2772
 L -49.5076,40.7651 L -49.3811,41.2411 L -49.197,41.6979 L -48.9583,42.1286 L -48.6684,42.5267 L -48.3318,42.8862
 L -47.9535,43.2016 L -47.5394,43.4682 L -47.0957,43.6818 L -46.629,43.8392 L -45.9162,43.964 L -45.7151,43.9807
 L -45.5522,44.0078 L -45.3923,44.0483 L -45.2361,44.102 L -45.085,44.1683 L -44.94,44.2467 L -44.8018,44.337
 L -44.6715,44.4384 L -44.5501,44.5501 L -44.4384,44.6715 L -44.337,44.8018 L -44.2467,44.94 L -44.1683,45.085
 L -44.102,45.2361 L -44.0483,45.3923 L -44.0078,45.5522 L -43.9807,45.7151 L -43.964,45.9162 L -43.8932,46.4035
 L -43.763,46.8785 L -43.5755,47.3339 L -43.3334,47.7628 L -43.0404,48.1586 L -42.701,48.5155 L -42.3204,48.828
 L -41.9042,49.0913 L -41.4588,49.3015 L -40.991,49.4553 L -40.5078,49.5505 L -39.7847,49.5812 L -39.5832,49.5714
 L -39.4183,49.5771 L -39.2543,49.5964 L -39.0928,49.6291 L -38.9341,49.6752 L -38.7801,49.734 L -38.6314,49.8055
 L -38.489,49.889 L -38.354,49.984 L -38.2274,50.0898 L -38.1099,50.2056 L -38.0023,50.3308 L -37.9057,50.4643
 L -37.8201,50.6057 L -37.7467,50.7533 L -37.6856,50.9068 L -37.6374,51.0645 L -37.5946,51.2618 L -37.4608,51.7358
 L -37.2697,52.1897 L -37.0244,52.6167 L -36.7284,53.0103 L -36.3862,53.3645 L -36.0032,53.6741 L -35.585,53.9342
 L -35.138,54.1409 L -34.669,54.2912 L -34.1851,54.3826 L -33.6936,54.4139 L -32.9729,54.35 L -32.7741,54.314
 L -32.61,54.2981 L -32.4451,54.2958 L -32.2804,54.3072 L -32.1172,54.3321 L -31.9567,54.3704 L -31.7998,54.4219
 L -31.648,54.486 L -31.5016,54.5626 L -31.3624,54.6508 L -31.2307,54.7505 L -31.1077,54.8606 L -30.9945,54.9803
 L -30.8912,55.1092 L -30.799,55.2462 L -30.7185,55.3902 L -30.6501,55.5404 L -30.582,55.7304 L -30.3874,56.1828
 L -30.1388,56.6079 L -29.8397,56.9992 L -29.4949,57.3508 L -29.1095,57.6574 L -28.6893,57.9143 L -28.2407,58.1175
 L -27.7705,58.2642 L -27.2859,58.3519 L -26.7942,58.3794 L -26.3028,58.3463 L -25.5967,58.1888 L -25.4046,58.1272
 L -25.2437,58.09 L -25.0803,58.0662 L -24.9157,58.056 L -24.7507,58.0594 L -24.5866,58.0764 L -24.4243,58.107
 L -24.2654,58.1508 L -24.1103,58.2076 L -23.9607,58.2769 L -23.8171,58.3585 L -23.681,58.4515 L -23.5529,58.5556
 L -23.4337,58.6699 L -23.3246,58.7935 L -23.2258,58.926 L -23.1385,59.0658 L -23.0461,59.2453 L -22.7942,59.6684
 L -22.4922,60.0574 L -22.1446,60.4064 L -21.7569,60.71 L -21.3347,60.9636 L -20.8846,61.1635 L -20.4133,61.3065
 L -19.9281,61.3905 L -19.4361,61.4142 L -18.945,61.3773 L -18.4622,61.2804 L -17.7826,61.032 L -17.6001,60.9459
 L -17.4455,60.888 L -17.2865,60.8431 L -17.1248,60.8115 L -16.9606,60.7933 L -16.7959,60.7888 L -16.6309,60.7979
 L -16.4675,60.8205 L -16.3064,60.8566 L -16.1491,60.9059 L -15.996,60.968 L -15.8489,61.0425 L -15.7083,61.1289
 L -15.5754,61.2266 L -15.4508,61.3351 L -15.3358,61.4533 L -15.231,61.5806 L -15.1159,61.7465 L -14.8109,62.1332
 L -14.4607,62.4794 L -14.0706,62.78 L -13.6465,63.0304 L -13.1949,63.2268 L -12.7225,63.3662 L -12.2366,63.4465
 L -11.7445,63.4664 L -11.2537,63.4258 L -10.7716,63.3251 L -10.3056,63.1659 L -9.66423,62.831 L -9.4944,62.7218
 L -9.34863,62.6442 L -9.1972,62.579 L -9.04074,62.5265 L -8.88036,62.487 L -8.71747,62.461 L -8.55304,62.4485
 L -8.38788,62.4496 L -8.22363,62.4644 L -8.06104,62.4927 L -7.90132,62.5343 L -7.74564,62.589 L -7.59488,62.6563
 L -7.45036,62.7358 L -7.31296,62.827 L -7.18324,62.9294 L -7.06281,63.0418 L -6.92711,63.1912 L -6.57425,63.5348
 L -6.18185,63.8324 L -5.75584,64.0795 L -5.3027,64.2724 L -4.8293,64.4082 L -4.3428,64.4847 L -3.85057,64.5009
 z
M -12.572,-18.2399 L -13.0307,-18.4125 L -13.4469,-18.6713 L -13.8046,-19.0063 L -14.0901,-19.4047 L -14.2923,-19.8511
 L -14.4036,-20.3284 L -14.4196,-20.8182 L -14.3398,-21.3017 L -14.1672,-21.7604 L -13.9084,-22.1766 L -13.5734,-22.5343
 L -13.175,-22.8198 L -12.7286,-23.022 L -12.2513,-23.1333 L -11.7615,-23.1494 L -11.2779,-23.0695 L -10.8193,-22.8969
 L -10.4031,-22.6381 L -10.0454,-22.3031 L -9.75993,-21.9047 L -9.55766,-21.4583 L -9.44638,-20.981 L -9.43034,-20.4912
 L -9.51018,-20.0076 L -9.68282,-19.549 L -9.9416,-19.1328 L -10.2766,-18.7751 L -10.675,-18.4896 L -11.1214,-18.2874
 L -11.5987,-18.1761 L -12.0885,-18.16 z
M 11.5987,-18.1761 L 11.1214,-18.2874 L 10.675,-18.4896 L 10.2766,-18.7751 L 9.9416,-19.1328 L 9.68282,-19.549
 L 9.51018,-20.0076 L 9.43034,-20.4912 L 9.44638,-20.981 L 9.55766,-21.4583 L 9.75993,-21.9047 L 10.0454,-22.3031
 L 10.4031,-22.6381 L 10.8193,-22.8969 L 11.2779,-23.0695 L 11.7615,-23.1494 L 12.2513,-23.1333 L 12.7286,-23.022
 L 13.175,-22.8198 L 13.5734,-22.5343 L 13.9084,-22.1766 L 14.1672,-21.7604 L 14.3398,-21.3017 L 14.4196,-20.8182
 L 14.4036,-20.3284 L 14.2923,-19.8511 L 14.0901,-19.4047 L 13.8046,-19.0063 L 13.4469,-18.6713 L 13.0307,-18.4125
 L 12.572,-18.2399 L 12.0885,-18.16 z
M -0.247726,2.98975 L -0.73645,2.90819 L -1.20508,2.74731 L -1.64084,2.51149 L -2.03183,2.20717 L -2.36742,1.84264
 L -2.63841,1.42784 L -2.83745,0.974091 L -2.95908,0.493774 L -3,-0 L -2.95908,-0.493774 L -2.83745,-0.974091
 L -2.63841,-1.42784 L -2.36742,-1.84264 L -2.03183,-2.20717 L -1.64084,-2.51149 L -1.20508,-2.74731 L -0.73645,-2.90819
 L -0.247726,-2.98975 L 0.247726,-2.98975 L 0.73645,-2.90819 L 1.20508,-2.74731 L 1.64084,-2.51149 L 2.03183,-2.20717
 L 2.36742,-1.84264 L 2.39999,-1.79277 L 2.39999,1.79277 L 2.36742,1.84264 L 2.03183,2.20717 L 1.64084,2.51149
 L 1.20508,2.74731 L 0.73645,2.90819 L 0.247726,2.98975 z
M 23.3623,2.45195 L 22.8933,2.30969 L 22.4611,2.07866 L 22.0822,1.76776 L 21.7713,1.38892 L 21.5403,0.956696
 L 21.398,0.487717 L 21.35,-0 L 21.398,-0.487717 L 21.5403,-0.956696 L 21.7713,-1.38892 L 22.0822,-1.76776
 L 22.4611,-2.07866 L 22.8933,-2.30969 L 23.3623,-2.45195 L 23.85,-2.5 L 24.3377,-2.45195 L 24.8067,-2.30969
 L 25.2389,-2.07866 L 25.6178,-1.76776 L 25.9287,-1.38892 L 26.1597,-0.956696 L 26.302,-0.487717 L 26.35,-0
 L 26.302,0.487717 L 26.1597,0.956696 L 25.9287,1.38892 L 25.6178,1.76776 L 25.2389,2.07866 L 24.8067,2.30969
 L 24.3377,2.45195 L 23.85,2.5 z
M -24.3377,2.45195 L -24.8067,2.30969 L -25.2389,2.07866 L -25.6178,1.76776 L -25.9287,1.38892 L -26.1597,0.956696
 L -26.302,0.487717 L -26.35,-0 L -26.302,-0.487717 L -26.1597,-0.956696 L -25.9287,-1.38892 L -25.6178,-1.76776
 L -25.2389,-2.07866 L -24.8067,-2.30969 L -24.3377,-2.45195 L -23.85,-2.5 L -23.3623,-2.45195 L -22.8933,-2.30969
 L -22.4611,-2.07866 L -22.0822,-1.76776 L -21.7713,-1.38892 L -21.5403,-0.956696 L -21.398,-0.487717 L -21.35,-0
 L -21.398,0.487717 L -21.5403,0.956696 L -21.7713,1.38892 L -22.0822,1.76776 L -22.4611,2.07866 L -22.8933,2.30969
 L -23.3623,2.45195 L -23.85,2.5 z
M 9.43034,20.4912 L 9.51018,20.0076 L 9.68282,19.549 L 9.9416,19.1328 L 10.2766,18.7751 L 10.675,18.4896
 L 11.1214,18.2874 L 11.5987,18.1761 L 12.0885,18.16 L 12.572,18.2399 L 13.0307,18.4125 L 13.4469,18.6713
 L 13.8046,19.0063 L 14.0901,19.4047 L 14.2923,19.8511 L 14.4036,20.3284 L 14.4196,20.8182 L 14.3398,21.3017
 L 14.1672,21.7604 L 13.9084,22.1766 L 13.5734,22.5343 L 13.175,22.8198 L 12.7286,23.022 L 12.2513,23.1333
 L 11.7615,23.1494 L 11.2779,23.0695 L 10.8193,22.8969 L 10.4031,22.6381 L 10.0454,22.3031 L 9.75993,21.9047
 L 9.55766,21.4583 L 9.44638,20.981 z
M -10.0454,22.3031 L -10.4031,22.6381 L -10.8193,22.8969 L -11.2779,23.0695 L -11.7615,23.1494 L -12.2513,23.1333
 L -12.7286,23.022 L -13.175,22.8198 L -13.5734,22.5343 L -13.9084,22.1766 L -14.1672,21.7604 L -14.3398,21.3017
 L -14.4196,20.8182 L -14.4036,20.3284 L -14.2923,19.8511 L -14.0901,19.4047 L -13.8046,19.0063 L -13.4469,18.6713
 L -13.0307,18.4125 L -12.572,18.2399 L -12.0885,18.16 L -11.5987,18.1761 L -11.1214,18.2874 L -10.675,18.4896
 L -10.2766,18.7751 L -9.9416,19.1328 L -9.68282,19.549 L -9.51018,20.0076 L -9.43034,20.4912 L -9.44638,20.981
 L -9.55766,21.4583 L -9.75993,21.9047 z
" stroke="black" fill="lightgray" stroke-width="0.5"/>
</svg>
